<?xml version="1.0" encoding="UTF-8"?>
<svg version="1.1" xmlns="http://www.w3.org/2000/svg" width="2048" height="2048">
<path d="M0 0 C2.76912595 2.44422856 4.19783271 5.02770307 5.83705139 8.32006836 C6.39047211 9.42423096 6.94389282 10.52839355 7.51408386 11.66601562 C8.12025542 12.89057168 8.72631551 14.11518293 9.33227539 15.33984375 C9.97606104 16.62989921 10.6203821 17.91968758 11.26519775 19.20922852 C12.65355176 21.98864306 14.03807405 24.76992113 15.41966438 27.55270386 C17.6136474 31.9717748 19.8159812 36.38665048 22.01939392 40.80102539 C25.51465715 47.80605605 29.00414275 54.81394694 32.49127239 61.82302952 C38.7057017 74.31353799 44.92952062 86.79936754 51.15591806 99.28391361 C53.33454019 103.65284075 55.51054153 108.02306017 57.68443602 112.39434147 C66.10900212 129.3819194 66.10900212 129.3819194 74.85131836 146.20703125 C82.40620517 160.38784381 89.46724398 174.82773167 96.63702202 189.20558167 C98.79132536 193.52430847 100.94831743 197.8416919 103.10510254 202.15917969 C109.03541206 214.03174394 114.96167156 225.90632855 120.88787079 237.78094482 C126.32763223 248.68075539 131.76829255 259.58011495 137.21221495 270.47784805 C139.34868594 274.75491334 141.484313 279.03239541 143.61787415 283.31091309 C154.18536665 304.5725902 154.18536665 304.5725902 165.13864899 325.63658142 C172.16660906 338.88707021 178.74230265 352.37991353 185.43509293 365.80172348 C187.56136805 370.06439634 189.69033373 374.32572492 191.8190918 378.5871582 C197.67199671 390.30491156 203.52085088 402.02468557 209.36964417 413.74449158 C214.73849136 424.50247558 220.10823841 435.26000806 225.4812479 446.01591396 C227.58977353 450.23708778 229.69745569 454.45867807 231.80307007 458.68130493 C241.71336543 478.66986527 241.71336543 478.66986527 251.98632812 498.47265625 C259.50037604 512.56203685 266.51179049 526.91706262 273.63702202 541.20558167 C275.79132536 545.52430847 277.94831743 549.8416919 280.10510254 554.15917969 C286.03541206 566.03174394 291.96167156 577.90632855 297.88787079 589.78094482 C303.32763223 600.68075539 308.76829255 611.58011495 314.21221495 622.47784805 C316.34868594 626.75491334 318.484313 631.03239541 320.61787415 635.31091309 C331.18536665 656.5725902 331.18536665 656.5725902 342.13864899 677.63658142 C349.16660906 690.88707021 355.74230265 704.37991353 362.43509293 717.80172348 C364.56136805 722.06439634 366.69033373 726.32572492 368.8190918 730.5871582 C374.67199671 742.30491156 380.52085088 754.02468557 386.36964417 765.74449158 C391.73849136 776.50247558 397.10823841 787.26000806 402.4812479 798.01591396 C404.58977353 802.23708778 406.69745569 806.45867807 408.80307007 810.68130493 C418.71336543 830.66986527 418.71336543 830.66986527 428.98632812 850.47265625 C436.50037604 864.56203685 443.51179049 878.91706262 450.63702202 893.20558167 C452.79132536 897.52430847 454.94831743 901.8416919 457.10510254 906.15917969 C463.03541206 918.03174394 468.96167156 929.90632855 474.88787079 941.78094482 C480.32763223 952.68075539 485.76829255 963.58011495 491.21221495 974.47784805 C493.34868594 978.75491334 495.484313 983.03239541 497.61787415 987.31091309 C508.18536665 1008.5725902 508.18536665 1008.5725902 519.13864899 1029.63658142 C526.16660906 1042.88707021 532.74230265 1056.37991353 539.43509293 1069.80172348 C541.56136805 1074.06439634 543.69033373 1078.32572492 545.8190918 1082.5871582 C551.67199671 1094.30491156 557.52085088 1106.02468557 563.36964417 1117.74449158 C568.73849136 1128.50247558 574.10823841 1139.26000806 579.4812479 1150.01591396 C581.58977353 1154.23708778 583.69745569 1158.45867807 585.80307007 1162.68130493 C595.71336543 1182.66986527 595.71336543 1182.66986527 605.98632812 1202.47265625 C613.50037604 1216.56203685 620.51179049 1230.91706262 627.63702202 1245.20558167 C629.79132536 1249.52430847 631.94831743 1253.8416919 634.10510254 1258.15917969 C640.03541206 1270.03174394 645.96167156 1281.90632855 651.88787079 1293.78094482 C657.32763223 1304.68075539 662.76829255 1315.58011495 668.21221495 1326.47784805 C670.34868594 1330.75491334 672.484313 1335.03239541 674.61787415 1339.31091309 C685.18536665 1360.5725902 685.18536665 1360.5725902 696.13864899 1381.63658142 C703.16660906 1394.88707021 709.74230265 1408.37991353 716.43509293 1421.80172348 C718.56136805 1426.06439634 720.69033373 1430.32572492 722.8190918 1434.5871582 C728.67199671 1446.30491156 734.52085088 1458.02468557 740.36964417 1469.74449158 C745.73849136 1480.50247558 751.10823841 1491.26000806 756.4812479 1502.01591396 C758.58977353 1506.23708778 760.69745569 1510.45867807 762.80307007 1514.68130493 C772.71336543 1534.66986527 772.71336543 1534.66986527 782.98632812 1554.47265625 C790.50037604 1568.56203685 797.51179049 1582.91706262 804.63702202 1597.20558167 C806.79132536 1601.52430847 808.94831743 1605.8416919 811.10510254 1610.15917969 C817.03541206 1622.03174394 822.96167156 1633.90632855 828.88787079 1645.78094482 C834.32763223 1656.68075539 839.76829255 1667.58011495 845.21221495 1678.47784805 C847.34868594 1682.75491334 849.484313 1687.03239541 851.61787415 1691.31091309 C862.18536665 1712.5725902 862.18536665 1712.5725902 873.13864899 1733.63658142 C880.16660906 1746.88707021 886.74230265 1760.37991353 893.43509293 1773.80172348 C895.56136805 1778.06439634 897.69033373 1782.32572492 899.8190918 1786.5871582 C905.67199671 1798.30491156 911.52085088 1810.02468557 917.36964417 1821.74449158 C922.73849136 1832.50247558 928.10823841 1843.26000806 933.4812479 1854.01591396 C935.58977353 1858.23708778 937.69745569 1862.45867807 939.80307007 1866.68130493 C951.13674273 1889.43236846 951.13674273 1889.43236846 962.87026978 1911.97875977 C966.50168635 1918.80672346 969.97137977 1925.71793159 973.44921875 1932.625 C973.99999557 1933.71856812 973.99999557 1933.71856812 974.56189919 1934.83422852 C976.48892993 1938.66203018 978.41327563 1942.49116878 980.33569336 1946.32128906 C981.91775599 1949.47188325 983.50566135 1952.61943248 985.09838867 1955.76464844 C987.04443511 1959.60764957 988.98078266 1963.45538531 990.91007423 1967.30682373 C991.64152881 1968.76301835 992.37638731 1970.21750839 993.1147213 1971.67022705 C994.13622991 1973.68185532 995.14513662 1975.69932528 996.15112305 1977.71875 C996.72718796 1978.86279297 997.30325287 1980.00683594 997.89677429 1981.18554688 C999 1984 999 1984 998 1987 C970.66435482 1976.09621906 943.36448664 1965.10531477 916.07984924 1954.0745697 C908.31308439 1950.93460535 900.54551341 1947.79664347 892.77734375 1944.66015625 C891.69415863 1944.22280655 890.61097351 1943.78545685 889.4949646 1943.33485413 C887.31406848 1942.45430027 885.13317046 1941.57375115 882.95227051 1940.69320679 C864.50207687 1933.24362636 846.05400267 1925.78881479 827.60736084 1918.33044434 C812.17715867 1912.09178307 796.74536007 1905.85708333 781.3125 1899.625 C780.23279938 1899.18899475 779.15309875 1898.7529895 778.04067993 1898.30377197 C770.36050194 1895.20239416 762.6802584 1892.10117868 755 1889 C746.22912174 1885.45844459 737.45827235 1881.91681771 728.6875 1878.375 C727.60739655 1877.93883362 726.52729309 1877.50266724 725.41445923 1877.05328369 C709.14390436 1870.48276639 692.87513178 1863.90785085 676.60736084 1857.33044434 C661.17715867 1851.09178307 645.74536007 1844.85708333 630.3125 1838.625 C629.23279938 1838.18899475 628.15309875 1837.7529895 627.04067993 1837.30377197 C619.36050194 1834.20239416 611.6802584 1831.10117868 604 1828 C595.22912174 1824.45844459 586.45827235 1820.91681771 577.6875 1817.375 C576.60739655 1816.93883362 575.52729309 1816.50266724 574.41445923 1816.05328369 C558.14390436 1809.48276639 541.87513178 1802.90785085 525.60736084 1796.33044434 C510.17715867 1790.09178307 494.74536007 1783.85708333 479.3125 1777.625 C478.23279938 1777.18899475 477.15309875 1776.7529895 476.04067993 1776.30377197 C468.36050194 1773.20239416 460.6802584 1770.10117868 453 1767 C444.22912174 1763.45844459 435.45827235 1759.91681771 426.6875 1756.375 C425.60739655 1755.93883362 424.52729309 1755.50266724 423.41445923 1755.05328369 C407.14390436 1748.48276639 390.87513178 1741.90785085 374.60736084 1735.33044434 C359.17715867 1729.09178307 343.74536007 1722.85708333 328.3125 1716.625 C327.23279938 1716.18899475 326.15309875 1715.7529895 325.04067993 1715.30377197 C317.36050194 1712.20239416 309.6802584 1709.10117868 302 1706 C293.22912174 1702.45844459 284.45827235 1698.91681771 275.6875 1695.375 C274.60739655 1694.93883362 273.52729309 1694.50266724 272.41445923 1694.05328369 C260.98001833 1689.43572809 249.54598884 1684.81715818 238.11328125 1680.1953125 C237.148423 1679.80528046 236.18356476 1679.41524841 235.18946838 1679.01339722 C230.3971965 1677.0760536 225.60520816 1675.13801338 220.8137207 1673.19873047 C211.32806886 1669.36047912 201.83897744 1665.53111188 192.34234619 1661.72009277 C187.52434379 1659.78627608 182.70757541 1657.84939595 177.89086914 1655.91235352 C175.56417815 1654.97770263 173.23687515 1654.0445737 170.90893555 1653.11303711 C167.67472722 1651.81874492 164.44263751 1650.51928999 161.2109375 1649.21875 C160.24864227 1648.83525391 159.28634705 1648.45175781 158.29489136 1648.05664062 C156.95855148 1647.51716797 156.95855148 1647.51716797 155.59521484 1646.96679688 C154.82430511 1646.65770386 154.05339539 1646.34861084 153.25912476 1646.03015137 C152.51361359 1645.69020142 151.76810242 1645.35025146 151 1645 C150.1564592 1644.66334157 149.31291841 1644.32668314 148.44381577 1643.97982293 C146 1642 146 1642 145.07335657 1638.20621842 C144.90471138 1636.57068168 144.76231142 1634.93232135 144.63982296 1633.29268169 C144.51017513 1631.93318996 144.51017513 1631.93318996 144.37790816 1630.54623374 C144.09110569 1627.47730352 143.83817138 1624.40649069 143.58470154 1621.3346405 C143.38440808 1619.11582651 143.18205179 1616.89719792 142.97780734 1614.67874414 C142.41845848 1608.5370582 141.88865857 1602.3931156 141.36330467 1596.24844134 C140.84768467 1590.2719016 140.30996303 1584.29736284 139.77277775 1578.32273203 C138.66234441 1565.96368492 137.57410106 1553.60277345 136.49777794 1541.24071312 C135.40994352 1528.74762072 134.31184573 1516.25549431 133.20096779 1503.76442909 C133.13104346 1502.97812016 133.06111913 1502.19181123 132.98907589 1501.38167476 C132.63264326 1497.37413607 132.27603269 1493.36661325 131.91935281 1489.35909656 C129.33929451 1460.36708662 126.78138542 1431.37315753 124.23498535 1402.37817383 C121.70207404 1373.53797715 119.15898221 1344.69870557 116.60241699 1315.8605957 C116.52277498 1314.96220015 116.44313296 1314.06380459 116.36107756 1313.13818493 C115.39093663 1302.19488503 114.42037033 1291.25162288 113.44967188 1280.30837242 C111.97765201 1263.7130545 110.50662009 1247.11764898 109.03578278 1230.52222622 C108.87134157 1228.66684817 108.70689663 1226.81147045 108.54244796 1224.95609307 C106.04549194 1196.78429957 103.55326349 1168.61209094 101.06495325 1140.43953251 C100.64725702 1135.71039155 100.2295356 1130.98125283 99.81181872 1126.2521137 C99.72919226 1125.3166618 99.64656579 1124.3812099 99.5614355 1123.41741097 C99.31123133 1120.58473713 99.06102588 1117.75206339 98.81081963 1114.91938972 C98.72831838 1113.98536336 98.64581714 1113.05133699 98.56081586 1112.08900679 C91.02227017 1026.74323823 83.43469187 941.40194451 75.16823134 848.97465312 C74.88667306 845.82662512 74.60513409 842.67859539 74.3235951 839.53056566 C71.75926448 810.85756134 69.19410992 782.18463077 66.62779903 753.51180363 C62.91985533 712.08336604 59.21631634 670.65453684 55.51622061 629.2253976 C55.18494715 625.51622972 54.85366222 621.80706287 54.52237761 618.09789598 C53.99500539 612.19325882 53.46763564 606.28862145 52.94027036 600.38398367 C52.87524305 599.65590635 52.81021574 598.92782903 52.74321791 598.17768876 C52.35019018 593.77715207 51.95716708 589.37661496 51.56414655 584.97607763 C48.68939351 552.78834263 45.81396638 520.60066788 42.9375 488.41308594 C42.84461831 487.3737392 42.84461831 487.3737392 42.74986023 486.31339556 C37.70989024 429.91647233 32.66024396 373.52041775 27.60770583 317.12461925 C26.01903796 299.39186401 24.43096986 281.65905515 22.84332275 263.9262085 C22.62349744 261.47096451 22.4036721 259.01572052 22.18384671 256.56047654 C21.321319 246.92676041 20.45880756 237.29304282 19.59638262 227.65931749 C17.24514692 201.39496062 14.89228238 175.13075154 12.53521574 148.86691727 C10.95292079 131.23572254 9.37298208 113.6043181 7.79562473 95.97268093 C6.87503402 85.68334174 5.95242733 75.39418796 5.02687852 65.10529356 C4.41545246 58.30628611 3.80655377 51.50705549 3.19976504 44.70763262 C2.85584235 40.85463242 2.51079198 37.00174239 2.16259336 33.14912605 C1.78948439 29.02066184 1.42183717 24.89172969 1.05474854 20.76272583 C0.94626225 19.57226564 0.83777596 18.38180544 0.72600222 17.1552707 C0.2199113 11.40979152 -0.11873214 5.76773608 0 0 Z " fill="#BD2027" transform="translate(1049,39)"/>
<path d="M0 0 C0.33 0 0.66 0 1 0 C6.12658593 56.73427048 11.04639945 113.48619629 15.92822266 170.24194336 C16.00761225 171.16489388 16.08700185 172.0878444 16.16879719 173.03876312 C18.20689512 196.73359701 20.24262597 220.42863412 22.27748495 244.12374636 C23.63846962 259.97186301 25.00008322 275.81992549 26.3622551 291.66794014 C26.45394501 292.73469854 26.54563493 293.80145695 26.64010333 294.90054136 C27.10639627 300.32555413 27.57269872 305.75056607 28.03900473 311.17557771 C31.32279147 349.37941256 34.60536831 387.58335128 37.88720703 425.78735352 C41.03436288 462.42347543 44.18207767 499.05954925 47.33056641 535.69555664 C47.42714711 536.81937819 47.52372782 537.94319974 47.62323521 539.10107649 C48.49817734 549.28197368 49.3731267 559.46287025 50.24808452 569.6437661 C52.35975903 594.21494185 54.47133735 618.78612586 56.58285522 643.35731506 C56.67643122 644.44623453 56.77000721 645.535154 56.86641884 646.65707103 C59.40327409 676.17784811 61.93995306 705.69864033 64.47628988 735.21946195 C64.99160832 741.21732855 65.5069444 747.21519364 66.02229439 753.21305752 C67.68251224 772.53549089 69.34240535 791.85795201 71.00113244 811.18051342 C71.72194119 819.57704701 72.44289355 827.97356828 73.16387939 836.37008667 C73.24244899 837.2851398 73.32101859 838.20019292 73.40196908 839.14297493 C75.70684469 865.98582055 78.0197575 892.82796367 80.33848746 919.66961596 C80.92827245 926.49756387 81.51751469 933.32555844 82.1063689 940.15358669 C82.18802169 941.10038123 82.26967449 942.04717578 82.35380161 943.02266108 C82.76032216 947.7366654 83.1667683 952.45067613 83.5731601 957.16469156 C84.43370088 967.14534672 85.29612871 977.12583533 86.16103605 987.10611305 C86.74130747 993.80363664 87.31946331 1000.50134066 87.89592703 1007.19919304 C88.22668251 1011.04130893 88.55843504 1014.88333203 88.89283964 1018.72513218 C89.25448653 1022.88004262 89.61153035 1027.03533576 89.96813011 1031.19068241 C90.12694496 1033.00209818 90.12694496 1033.00209818 90.28896818 1034.8501082 C91.58661981 1050.09125923 91.58661981 1050.09125923 89.8293457 1052.81347656 C89.28366943 1053.25143555 88.73799316 1053.68939453 88.17578125 1054.140625 C87.56597412 1054.64795166 86.95616699 1055.15527832 86.32788086 1055.67797852 C85.66280518 1056.19674561 84.99772949 1056.7155127 84.3125 1057.25 C83.63131104 1057.80937256 82.95012207 1058.36874512 82.24829102 1058.94506836 C80.84757096 1060.09433954 79.44020863 1061.2355622 78.02636719 1062.36865234 C75.1160278 1064.71165087 72.27953588 1067.13759094 69.4375 1069.5625 C68.37673569 1070.4575454 67.31553483 1071.35207365 66.25390625 1072.24609375 C62.77485743 1075.18322806 59.32575821 1078.15473899 55.875 1081.125 C51.81379124 1084.61823856 47.72481029 1088.06448707 43.5625 1091.4375 C37.21723119 1096.59186792 31.07490552 1101.97362765 24.90966797 1107.34033203 C17.86727609 1113.4607846 10.80997199 1119.56030337 3.5625 1125.4375 C-1.48933717 1129.53979949 -6.4030598 1133.78701978 -11.31005859 1138.06005859 C-15.89096638 1142.04703759 -20.50741507 1145.98811681 -25.15136719 1149.90136719 C-29.16384184 1153.28481948 -33.14710388 1156.70100184 -37.125 1160.125 C-41.18620876 1163.61823856 -45.27518971 1167.06448707 -49.4375 1170.4375 C-55.78276881 1175.59186792 -61.92509448 1180.97362765 -68.09033203 1186.34033203 C-75.13272391 1192.4607846 -82.19002801 1198.56030337 -89.4375 1204.4375 C-95.78276881 1209.59186792 -101.92509448 1214.97362765 -108.09033203 1220.34033203 C-115.13272391 1226.4607846 -122.19002801 1232.56030337 -129.4375 1238.4375 C-135.78276881 1243.59186792 -141.92509448 1248.97362765 -148.09033203 1254.34033203 C-155.13272391 1260.4607846 -162.19002801 1266.56030337 -169.4375 1272.4375 C-174.48933717 1276.53979949 -179.4030598 1280.78701978 -184.31005859 1285.06005859 C-188.89096638 1289.04703759 -193.50741507 1292.98811681 -198.15136719 1296.90136719 C-202.16384184 1300.28481948 -206.14710388 1303.70100184 -210.125 1307.125 C-214.18620876 1310.61823856 -218.27518971 1314.06448707 -222.4375 1317.4375 C-228.78276881 1322.59186792 -234.92509448 1327.97362765 -241.09033203 1333.34033203 C-248.13272391 1339.4607846 -255.19002801 1345.56030337 -262.4375 1351.4375 C-268.78276881 1356.59186792 -274.92509448 1361.97362765 -281.09033203 1367.34033203 C-288.13272391 1373.4607846 -295.19002801 1379.56030337 -302.4375 1385.4375 C-308.78276881 1390.59186792 -314.92509448 1395.97362765 -321.09033203 1401.34033203 C-328.13272391 1407.4607846 -335.19002801 1413.56030337 -342.4375 1419.4375 C-348.78276881 1424.59186792 -354.92509448 1429.97362765 -361.09033203 1435.34033203 C-368.13272391 1441.4607846 -375.19002801 1447.56030337 -382.4375 1453.4375 C-387.48933717 1457.53979949 -392.4030598 1461.78701978 -397.31005859 1466.06005859 C-401.89096638 1470.04703759 -406.50741507 1473.98811681 -411.15136719 1477.90136719 C-415.16384184 1481.28481948 -419.14710388 1484.70100184 -423.125 1488.125 C-427.18620876 1491.61823856 -431.27518971 1495.06448707 -435.4375 1498.4375 C-441.78276881 1503.59186792 -447.92509448 1508.97362765 -454.09033203 1514.34033203 C-461.13272391 1520.4607846 -468.19002801 1526.56030337 -475.4375 1532.4375 C-481.78276881 1537.59186792 -487.92509448 1542.97362765 -494.09033203 1548.34033203 C-501.13272391 1554.4607846 -508.19002801 1560.56030337 -515.4375 1566.4375 C-521.78276881 1571.59186792 -527.92509448 1576.97362765 -534.09033203 1582.34033203 C-541.13272391 1588.4607846 -548.19002801 1594.56030337 -555.4375 1600.4375 C-560.48933717 1604.53979949 -565.4030598 1608.78701978 -570.31005859 1613.06005859 C-574.89096638 1617.04703759 -579.50741507 1620.98811681 -584.15136719 1624.90136719 C-588.16384184 1628.28481948 -592.14710388 1631.70100184 -596.125 1635.125 C-600.18620876 1638.61823856 -604.27518971 1642.06448707 -608.4375 1645.4375 C-614.78276881 1650.59186792 -620.92509448 1655.97362765 -627.09033203 1661.34033203 C-634.13272391 1667.4607846 -641.19002801 1673.56030337 -648.4375 1679.4375 C-654.78276881 1684.59186792 -660.92509448 1689.97362765 -667.09033203 1695.34033203 C-674.13272391 1701.4607846 -681.19002801 1707.56030337 -688.4375 1713.4375 C-694.78276881 1718.59186792 -700.92509448 1723.97362765 -707.09033203 1729.34033203 C-714.13272391 1735.4607846 -721.19002801 1741.56030337 -728.4375 1747.4375 C-734.78276881 1752.59186792 -740.92509448 1757.97362765 -747.09033203 1763.34033203 C-754.13272391 1769.4607846 -761.19002801 1775.56030337 -768.4375 1781.4375 C-773.48933717 1785.53979949 -778.4030598 1789.78701978 -783.31005859 1794.06005859 C-787.89096638 1798.04703759 -792.50741507 1801.98811681 -797.15136719 1805.90136719 C-801.16384184 1809.28481948 -805.14710388 1812.70100184 -809.125 1816.125 C-813.18620876 1819.61823856 -817.27518971 1823.06448707 -821.4375 1826.4375 C-827.78276881 1831.59186792 -833.92509448 1836.97362765 -840.09033203 1842.34033203 C-847.13272391 1848.4607846 -854.19002801 1854.56030337 -861.4375 1860.4375 C-867.78276881 1865.59186792 -873.92509448 1870.97362765 -880.09033203 1876.34033203 C-887.13272391 1882.4607846 -894.19002801 1888.56030337 -901.4375 1894.4375 C-907.78276881 1899.59186792 -913.92509448 1904.97362765 -920.09033203 1910.34033203 C-927.13272391 1916.4607846 -934.19002801 1922.56030337 -941.4375 1928.4375 C-946.48933717 1932.53979949 -951.4030598 1936.78701978 -956.31005859 1941.06005859 C-960.88940288 1945.04567681 -965.50359938 1948.98623639 -970.14697266 1952.89697266 C-972.97976144 1955.28472067 -975.80083107 1957.68467884 -978.60546875 1960.10546875 C-984.94543122 1965.57731411 -991.30039361 1970.9664333 -998 1976 C-998.33 1975.34 -998.66 1974.68 -999 1974 C-998.07885742 1971.68774414 -998.07885742 1971.68774414 -996.60546875 1968.78515625 C-996.06083984 1967.70427734 -995.51621094 1966.62339844 -994.95507812 1965.50976562 C-994.37177734 1964.37216797 -993.78847656 1963.23457031 -993.1875 1962.0625 C-992.64673828 1960.99064453 -992.10597656 1959.91878906 -991.54882812 1958.81445312 C-989.04788809 1953.87891864 -986.51793699 1948.96102865 -983.91650391 1944.07763672 C-978.432464 1933.77472568 -973.14860904 1923.38034128 -967.9375 1912.9375 C-967.57768351 1912.21645521 -967.21786701 1911.49541042 -966.84714699 1910.75251579 C-964.22859079 1905.50309101 -961.61392051 1900.25173427 -959 1895 C-956.02338415 1889.01955974 -953.04524 1883.03988864 -950.0625 1877.0625 C-949.70123016 1876.33843964 -949.33996033 1875.61437927 -948.96774292 1874.86837769 C-944.69911859 1866.31946383 -940.36776702 1857.81219918 -935.86962891 1849.38134766 C-931.7598925 1841.63365147 -927.85279612 1833.78457287 -923.9375 1825.9375 C-923.57679413 1825.21464813 -923.21608826 1824.49179626 -922.8444519 1823.74703979 C-920.22679605 1818.49943931 -917.61301404 1813.24991303 -915 1808 C-912.02338415 1802.01955974 -909.04524 1796.03988864 -906.0625 1790.0625 C-905.70123016 1789.33843964 -905.33996033 1788.61437927 -904.96774292 1787.86837769 C-900.69911859 1779.31946383 -896.36776702 1770.81219918 -891.86962891 1762.38134766 C-887.7598925 1754.63365147 -883.85279612 1746.78457287 -879.9375 1738.9375 C-879.57679413 1738.21464813 -879.21608826 1737.49179626 -878.8444519 1736.74703979 C-876.22679605 1731.49943931 -873.61301404 1726.24991303 -871 1721 C-868.02338415 1715.01955974 -865.04524059 1709.03988834 -862.0625 1703.0625 C-861.52034599 1701.97591095 -861.52034599 1701.97591095 -860.96723938 1700.86737061 C-857.06728723 1693.05681446 -853.14210609 1685.26483343 -849.03125 1677.5625 C-844.43709683 1668.9531256 -840.07541441 1660.23112989 -835.71875 1651.5 C-835.16121033 1650.38276047 -835.16121033 1650.38276047 -834.59240723 1649.24295044 C-831.89210334 1643.83004475 -829.19567016 1638.41521446 -826.5 1633 C-823.42962777 1626.83206287 -820.35773541 1620.66489065 -817.28125 1614.5 C-816.90907349 1613.75412628 -816.53689697 1613.00825256 -816.15344238 1612.23977661 C-811.81405721 1603.54948935 -807.41793928 1594.90009692 -802.84411621 1586.33032227 C-798.74197156 1578.60013083 -794.8443044 1570.76754613 -790.9375 1562.9375 C-790.57674881 1562.2145575 -790.21599762 1561.49161499 -789.84431458 1560.74676514 C-787.22670448 1555.49925622 -784.61296843 1550.24982139 -782 1545 C-779.02338415 1539.01955974 -776.04524 1533.03988864 -773.0625 1527.0625 C-772.70123016 1526.33843964 -772.33996033 1525.61437927 -771.96774292 1524.86837769 C-767.69911859 1516.31946383 -763.36776702 1507.81219918 -758.86962891 1499.38134766 C-754.7598925 1491.63365147 -750.85279612 1483.78457287 -746.9375 1475.9375 C-746.57679413 1475.21464813 -746.21608826 1474.49179626 -745.8444519 1473.74703979 C-743.22679605 1468.49943931 -740.61301404 1463.24991303 -738 1458 C-735.02338415 1452.01955974 -732.04524 1446.03988864 -729.0625 1440.0625 C-728.70123016 1439.33843964 -728.33996033 1438.61437927 -727.96774292 1437.86837769 C-723.69911859 1429.31946383 -719.36776702 1420.81219918 -714.86962891 1412.38134766 C-710.7598925 1404.63365147 -706.85279612 1396.78457287 -702.9375 1388.9375 C-702.57679413 1388.21464813 -702.21608826 1387.49179626 -701.8444519 1386.74703979 C-699.22679605 1381.49943931 -696.61301404 1376.24991303 -694 1371 C-691.02338415 1365.01955974 -688.04524059 1359.03988834 -685.0625 1353.0625 C-684.52034599 1351.97591095 -684.52034599 1351.97591095 -683.96723938 1350.86737061 C-680.06728723 1343.05681446 -676.14210609 1335.26483343 -672.03125 1327.5625 C-667.43709683 1318.9531256 -663.07541441 1310.23112989 -658.71875 1301.5 C-658.34705688 1300.75517365 -657.97536377 1300.01034729 -657.59240723 1299.24295044 C-654.89210334 1293.83004475 -652.19567016 1288.41521446 -649.5 1283 C-646.42962777 1276.83206287 -643.35773541 1270.66489065 -640.28125 1264.5 C-639.72298523 1263.38118942 -639.72298523 1263.38118942 -639.15344238 1262.23977661 C-634.81405721 1253.54948935 -630.41793928 1244.90009692 -625.84411621 1236.33032227 C-621.74197156 1228.60013083 -617.8443044 1220.76754613 -613.9375 1212.9375 C-613.57674881 1212.2145575 -613.21599762 1211.49161499 -612.84431458 1210.74676514 C-610.22670448 1205.49925622 -607.61296843 1200.24982139 -605 1195 C-602.02338415 1189.01955974 -599.04524 1183.03988864 -596.0625 1177.0625 C-595.70123016 1176.33843964 -595.33996033 1175.61437927 -594.96774292 1174.86837769 C-590.69911859 1166.31946383 -586.36776702 1157.81219918 -581.86962891 1149.38134766 C-577.7598925 1141.63365147 -573.85279612 1133.78457287 -569.9375 1125.9375 C-569.57679413 1125.21464813 -569.21608826 1124.49179626 -568.8444519 1123.74703979 C-566.22679605 1118.49943931 -563.61301404 1113.24991303 -561 1108 C-558.02338415 1102.01955974 -555.04524 1096.03988864 -552.0625 1090.0625 C-551.70123016 1089.33843964 -551.33996033 1088.61437927 -550.96774292 1087.86837769 C-546.69911859 1079.31946383 -542.36776702 1070.81219918 -537.86962891 1062.38134766 C-533.7598925 1054.63365147 -529.85279612 1046.78457287 -525.9375 1038.9375 C-525.57679413 1038.21464813 -525.21608826 1037.49179626 -524.8444519 1036.74703979 C-522.22679605 1031.49943931 -519.61301404 1026.24991303 -517 1021 C-514.02338415 1015.01955974 -511.04524059 1009.03988834 -508.0625 1003.0625 C-507.701064 1002.3381073 -507.33962799 1001.6137146 -506.96723938 1000.86737061 C-503.06728723 993.05681446 -499.14210609 985.26483343 -495.03125 977.5625 C-490.43709683 968.9531256 -486.07541441 960.23112989 -481.71875 951.5 C-481.34705688 950.75517365 -480.97536377 950.01034729 -480.59240723 949.24295044 C-477.89210334 943.83004475 -475.19567016 938.41521446 -472.5 933 C-469.42962777 926.83206287 -466.35773541 920.66489065 -463.28125 914.5 C-462.72298523 913.38118942 -462.72298523 913.38118942 -462.15344238 912.23977661 C-457.81405721 903.54948935 -453.41793928 894.90009692 -448.84411621 886.33032227 C-444.74197156 878.60013083 -440.8443044 870.76754613 -436.9375 862.9375 C-436.57674881 862.2145575 -436.21599762 861.49161499 -435.84431458 860.74676514 C-433.22670448 855.49925622 -430.61296843 850.24982139 -428 845 C-425.02338415 839.01955974 -422.04524 833.03988864 -419.0625 827.0625 C-418.70123016 826.33843964 -418.33996033 825.61437927 -417.96774292 824.86837769 C-413.69911859 816.31946383 -409.36776702 807.81219918 -404.86962891 799.38134766 C-400.7598925 791.63365147 -396.85279612 783.78457287 -392.9375 775.9375 C-392.57679413 775.21464813 -392.21608826 774.49179626 -391.8444519 773.74703979 C-389.22679605 768.49943931 -386.61301404 763.24991303 -384 758 C-381.02338415 752.01955974 -378.04524 746.03988864 -375.0625 740.0625 C-374.70123016 739.33843964 -374.33996033 738.61437927 -373.96774292 737.86837769 C-369.69911859 729.31946383 -365.36776702 720.81219918 -360.86962891 712.38134766 C-356.7598925 704.63365147 -352.85279612 696.78457287 -348.9375 688.9375 C-348.57679413 688.21464813 -348.21608826 687.49179626 -347.8444519 686.74703979 C-345.22679605 681.49943931 -342.61301404 676.24991303 -340 671 C-337.02338415 665.01955974 -334.04524059 659.03988834 -331.0625 653.0625 C-330.701064 652.3381073 -330.33962799 651.6137146 -329.96723938 650.86737061 C-326.06728723 643.05681446 -322.14210609 635.26483343 -318.03125 627.5625 C-313.43709683 618.9531256 -309.07541441 610.23112989 -304.71875 601.5 C-304.34705688 600.75517365 -303.97536377 600.01034729 -303.59240723 599.24295044 C-300.89210334 593.83004475 -298.19567016 588.41521446 -295.5 583 C-292.42962777 576.83206287 -289.35773541 570.66489065 -286.28125 564.5 C-285.72298523 563.38118942 -285.72298523 563.38118942 -285.15344238 562.23977661 C-280.81405721 553.54948935 -276.41793928 544.90009692 -271.84411621 536.33032227 C-267.74197156 528.60013083 -263.8443044 520.76754613 -259.9375 512.9375 C-259.57674881 512.2145575 -259.21599762 511.49161499 -258.84431458 510.74676514 C-256.22670448 505.49925622 -253.61296843 500.24982139 -251 495 C-248.02338415 489.01955974 -245.04524 483.03988864 -242.0625 477.0625 C-241.70123016 476.33843964 -241.33996033 475.61437927 -240.96774292 474.86837769 C-236.69911859 466.31946383 -232.36776702 457.81219918 -227.86962891 449.38134766 C-223.7598925 441.63365147 -219.85279612 433.78457287 -215.9375 425.9375 C-215.57679413 425.21464813 -215.21608826 424.49179626 -214.8444519 423.74703979 C-212.22679605 418.49943931 -209.61301404 413.24991303 -207 408 C-204.02338415 402.01955974 -201.04524 396.03988864 -198.0625 390.0625 C-197.70123016 389.33843964 -197.33996033 388.61437927 -196.96774292 387.86837769 C-192.69911859 379.31946383 -188.36776702 370.81219918 -183.86962891 362.38134766 C-179.7598925 354.63365147 -175.85279612 346.78457287 -171.9375 338.9375 C-171.57679413 338.21464813 -171.21608826 337.49179626 -170.8444519 336.74703979 C-168.22679605 331.49943931 -165.61301404 326.24991303 -163 321 C-160.02338415 315.01955974 -157.04524059 309.03988834 -154.0625 303.0625 C-153.701064 302.3381073 -153.33962799 301.6137146 -152.96723938 300.86737061 C-149.06728723 293.05681446 -145.14210609 285.26483343 -141.03125 277.5625 C-136.43709683 268.9531256 -132.07541441 260.23112989 -127.71875 251.5 C-127.34705688 250.75517365 -126.97536377 250.01034729 -126.59240723 249.24295044 C-123.89210334 243.83004475 -121.19567016 238.41521446 -118.5 233 C-115.42962777 226.83206287 -112.35773541 220.66489065 -109.28125 214.5 C-108.72298523 213.38118942 -108.72298523 213.38118942 -108.15344238 212.23977661 C-103.81405721 203.54948935 -99.41793928 194.90009692 -94.84411621 186.33032227 C-90.74197156 178.60013083 -86.8443044 170.76754613 -82.9375 162.9375 C-82.57674881 162.2145575 -82.21599762 161.49161499 -81.84431458 160.74676514 C-79.22670448 155.49925622 -76.61296843 150.24982139 -74 145 C-71.02338415 139.01955974 -68.04524 133.03988864 -65.0625 127.0625 C-64.52059525 125.97640945 -64.52059525 125.97640945 -63.96774292 124.86837769 C-59.69911859 116.31946383 -55.36776702 107.81219918 -50.86962891 99.38134766 C-46.7598925 91.63365147 -42.85279612 83.78457287 -38.9375 75.9375 C-38.57679413 75.21464813 -38.21608826 74.49179626 -37.8444519 73.74703979 C-35.22679605 68.49943931 -32.61301404 63.24991303 -30 58 C-4.93070834 7.63226411 -4.93070834 7.63226411 0 0 Z " fill="#054E8C" transform="translate(1004,5)"/>
<path d="M0 0 C1.33200105 0.53786676 2.66410104 1.07548858 3.99629211 1.61288452 C7.57574917 3.05756873 11.15386732 4.50554175 14.7317543 5.95410919 C18.51135253 7.48363428 22.2922306 9.009989 26.07299805 10.53662109 C32.25287828 13.03237251 38.43210413 15.52973683 44.61083984 18.02832031 C52.53725046 21.23350765 60.46539298 24.43437872 68.39453125 27.6328125 C69.55665131 28.10158813 70.71877136 28.57036377 71.91610718 29.05334473 C74.22498956 29.98467563 76.53387824 30.91599091 78.84277344 31.84729004 C83.47330669 33.71525189 88.10352143 35.58400253 92.73373413 37.45275879 C108.97726656 44.00861832 125.22285886 50.55936352 141.46875 57.109375 C162.47388557 65.57825813 183.47760234 74.05064735 204.47998047 82.52636719 C223.14157003 90.05734611 241.80475299 97.58436517 260.46875 105.109375 C281.47387364 113.57828773 302.47760233 122.05064735 323.47998047 130.52636719 C342.14157003 138.05734611 360.80475299 145.58436517 379.46875 153.109375 C400.47387364 161.57828773 421.47760233 170.05064735 442.47998047 178.52636719 C461.14157003 186.05734611 479.80475299 193.58436517 498.46875 201.109375 C519.47387364 209.57828773 540.47760233 218.05064735 561.47998047 226.52636719 C580.14157003 234.05734611 598.80475299 241.58436517 617.46875 249.109375 C638.47387364 257.57828773 659.47760233 266.05064735 680.47998047 274.52636719 C699.14157003 282.05734611 717.80475299 289.58436517 736.46875 297.109375 C757.47387364 305.57828773 778.47760233 314.05064735 799.47998047 322.52636719 C818.14157003 330.05734611 836.80475299 337.58436517 855.46875 345.109375 C876.47387364 353.57828773 897.47760233 362.05064735 918.47998047 370.52636719 C937.14157003 378.05734611 955.80475299 385.58436517 974.46875 393.109375 C995.47387364 401.57828773 1016.47760233 410.05064735 1037.47998047 418.52636719 C1056.14157003 426.05734611 1074.80475299 433.58436517 1093.46875 441.109375 C1114.47387364 449.57828773 1135.47760233 458.05064735 1156.47998047 466.52636719 C1176.43605291 474.57974124 1196.39394947 482.6285835 1216.35272217 490.67526245 C1230.02957707 496.18929986 1243.70604471 501.70429063 1257.38062286 507.22397232 C1259.34046901 508.01505343 1261.30032924 508.80609965 1263.26019287 509.59713745 C1269.37284498 512.06435148 1275.4853654 514.53189105 1281.59765625 517 C1282.70695496 517.44769745 1283.81625366 517.8953949 1284.95916748 518.35665894 C1287.10374618 519.22247455 1289.24800353 520.08908661 1291.39190674 520.95657349 C1296.41241501 522.98558179 1301.43904816 524.99529163 1306.48339844 526.96435547 C1307.42085907 527.33229721 1308.3583197 527.70023895 1309.32418823 528.07933044 C1311.07654513 528.76578861 1312.83109848 529.44667562 1314.58816528 530.12098694 C1320.35717509 532.38622518 1320.35717509 532.38622518 1321.46875 534.609375 C667.73875 534.609375 14.00875 534.609375 -659.53125 534.609375 C-657.50977311 530.56642123 -656.30141941 529.36461904 -652.84375 526.671875 C-648.20722507 522.97960319 -643.68533671 519.19293971 -639.21875 515.296875 C-637.93625866 514.18091977 -636.65370619 513.06503479 -635.37109375 511.94921875 C-634.73413574 511.39476074 -634.09717773 510.84030273 -633.44091797 510.26904297 C-626.39852609 504.1485904 -619.34122199 498.04907163 -612.09375 492.171875 C-607.04191283 488.06957551 -602.1281902 483.82235522 -597.22119141 479.54931641 C-592.64028362 475.56233741 -588.02383493 471.62125819 -583.37988281 467.70800781 C-579.36740816 464.32455552 -575.38414612 460.90837316 -571.40625 457.484375 C-567.34504124 453.99113644 -563.25606029 450.54488793 -559.09375 447.171875 C-552.74848119 442.01750708 -546.60615552 436.63574735 -540.44091797 431.26904297 C-533.39852609 425.1485904 -526.34122199 419.04907163 -519.09375 413.171875 C-514.04191283 409.06957551 -509.1281902 404.82235522 -504.22119141 400.54931641 C-499.64028362 396.56233741 -495.02383493 392.62125819 -490.37988281 388.70800781 C-486.36740816 385.32455552 -482.38414612 381.90837316 -478.40625 378.484375 C-474.34504124 374.99113644 -470.25606029 371.54488793 -466.09375 368.171875 C-459.74848119 363.01750708 -453.60615552 357.63574735 -447.44091797 352.26904297 C-440.39852609 346.1485904 -433.34122199 340.04907163 -426.09375 334.171875 C-419.74848119 329.01750708 -413.60615552 323.63574735 -407.44091797 318.26904297 C-400.39852609 312.1485904 -393.34122199 306.04907163 -386.09375 300.171875 C-381.04191283 296.06957551 -376.1281902 291.82235522 -371.22119141 287.54931641 C-366.64028362 283.56233741 -362.02383493 279.62125819 -357.37988281 275.70800781 C-353.36740816 272.32455552 -349.38414612 268.90837316 -345.40625 265.484375 C-341.34504124 261.99113644 -337.25606029 258.54488793 -333.09375 255.171875 C-326.74848119 250.01750708 -320.60615552 244.63574735 -314.44091797 239.26904297 C-307.39852609 233.1485904 -300.34122199 227.04907163 -293.09375 221.171875 C-288.04191283 217.06957551 -283.1281902 212.82235522 -278.22119141 208.54931641 C-273.64028362 204.56233741 -269.02383493 200.62125819 -264.37988281 196.70800781 C-260.36740816 193.32455552 -256.38414612 189.90837316 -252.40625 186.484375 C-248.34504124 182.99113644 -244.25606029 179.54488793 -240.09375 176.171875 C-233.74848119 171.01750708 -227.60615552 165.63574735 -221.44091797 160.26904297 C-214.39852609 154.1485904 -207.34122199 148.04907163 -200.09375 142.171875 C-193.74848119 137.01750708 -187.60615552 131.63574735 -181.44091797 126.26904297 C-174.39852609 120.1485904 -167.34122199 114.04907163 -160.09375 108.171875 C-155.04191283 104.06957551 -150.1281902 99.82235522 -145.22119141 95.54931641 C-140.64028362 91.56233741 -136.02383493 87.62125819 -131.37988281 83.70800781 C-127.36740816 80.32455552 -123.38414612 76.90837316 -119.40625 73.484375 C-115.34504124 69.99113644 -111.25606029 66.54488793 -107.09375 63.171875 C-100.74848119 58.01750708 -94.60615552 52.63574735 -88.44091797 47.26904297 C-81.39852609 41.1485904 -74.34122199 35.04907163 -67.09375 29.171875 C-60.75010795 24.01882852 -54.60907438 18.63865533 -48.4453125 13.2734375 C-44.23471792 9.61279813 -40.01399003 5.96553753 -35.75 2.3671875 C-33.68313679 0.61914893 -31.71973121 -1.1588324 -29.75 -3.0234375 C-28.9146875 -3.78398438 -28.079375 -4.54453125 -27.21875 -5.328125 C-26.52136719 -5.99714844 -25.82398438 -6.66617187 -25.10546875 -7.35546875 C-18.41613669 -10.0454126 -6.45116469 -2.61637465 0 0 Z " fill="#239846" transform="translate(659.53125,1508.390625)"/>
<path d="M0 0 C4.32906442 47.52410671 8.6581191 95.04821431 12.98712158 142.57232666 C13.08356513 143.63109108 13.08356513 143.63109108 13.18195703 144.71124468 C14.58001417 160.05922029 15.97806955 175.40719606 17.37612312 190.755172 C18.06194633 198.28420975 18.74776994 205.81324746 19.43359375 213.34228516 C19.53595334 214.4659984 19.53595334 214.4659984 19.6403808 215.61241292 C21.84348335 239.79827832 24.04661146 263.98414139 26.24975314 288.17000323 C28.51793066 313.06982328 30.78608176 337.96964574 33.05420066 362.86947113 C33.37617309 366.4041434 33.69814581 369.93881563 34.02011871 373.47348785 C34.08347394 374.16901223 34.14682917 374.86453661 34.21210426 375.58113749 C35.22295117 386.67837665 36.23382509 397.77561335 37.24470967 408.87284907 C38.26643741 420.0891247 39.28813471 431.30540309 40.30980489 442.52168396 C40.86115307 448.57458314 41.41251311 454.62748123 41.96390915 460.68037605 C42.06684633 461.81041834 42.16978352 462.94046062 42.27584001 464.10474661 C42.47945854 466.33988159 42.68311328 468.57501327 42.88680556 470.81014153 C43.37209471 476.13593022 43.8567232 481.46177713 44.33974791 486.7877717 C45.17655295 496.00824491 46.01837837 505.22812108 46.88494621 514.44585161 C47.26656 518.50877314 47.64458589 522.57202502 48.02232853 526.63530806 C48.19925736 528.52717457 48.37797679 530.41887467 48.55868158 532.31038424 C50.32185898 550.77105096 50.32185898 550.77105096 50 560 C37.44742894 555.36440958 25.0042403 550.47312832 12.57421875 545.51953125 C10.47125533 544.68269848 8.36825228 543.84596526 6.26521301 543.00932312 C0.59164128 540.75158433 -5.08100075 538.49151865 -10.75338745 536.23080444 C-14.34418889 534.79987199 -17.93524515 533.36958077 -21.52636719 531.93945312 C-57.98626711 517.41858955 -94.41306623 502.81652896 -130.82016373 488.16373062 C-166.63029366 473.75119946 -202.47531711 459.42896563 -238.34671402 445.16963959 C-278.02953474 429.39490217 -317.66897325 413.51428625 -357.28017998 397.56057358 C-362.57585301 395.42776571 -367.87180267 393.29564572 -373.16796875 391.1640625 C-374.66777094 390.56039982 -374.66777094 390.56039982 -376.19787216 389.94454193 C-393.76470277 382.87644194 -411.36561023 375.89775153 -429 369 C-429 366 -429 366 -426.76171875 363.6171875 C-425.74524111 362.6939461 -424.7198465 361.78046241 -423.6875 360.875 C-423.14496582 360.38854004 -422.60243164 359.90208008 -422.04345703 359.40087891 C-417.68735816 355.52583716 -413.1893304 351.83582189 -408.6484375 348.1796875 C-406.02724881 346.02242601 -403.50845719 343.78689 -401 341.5 C-397.68010514 338.47717579 -394.30235888 335.57487839 -390.8125 332.75 C-384.37288007 327.53481485 -378.14544597 322.08668248 -371.89648438 316.64648438 C-368.92144811 314.06362591 -365.9305594 311.49943086 -362.9375 308.9375 C-362.07741333 308.20116333 -362.07741333 308.20116333 -361.19995117 307.44995117 C-360.04469482 306.46114797 -358.88934024 305.47245951 -357.73388672 304.48388672 C-354.82105954 301.99104476 -351.91065939 299.49537234 -349 297 C-347.83334482 295.9999866 -346.66667816 294.99998659 -345.5 294 C-344.9225 293.505 -344.345 293.01 -343.75 292.5 C-342 291 -340.25 289.5 -338.5 288 C-337.92241943 287.50491943 -337.34483887 287.00983887 -336.74975586 286.49975586 C-335.58394896 285.50051604 -334.41809614 284.50132977 -333.25219727 283.50219727 C-330.32199602 280.99100539 -327.39261709 278.47886607 -324.46484375 275.96484375 C-318.29340193 270.6672344 -312.10598459 265.38984001 -305.89208984 260.14208984 C-300.15831236 255.29603358 -294.46176847 250.40686219 -288.76611328 245.51611328 C-285.84557725 243.00899015 -282.92267689 240.50462672 -280 238 C-278.83332184 237.00001341 -277.66665518 236.0000134 -276.5 235 C-269.5 229 -262.5 223 -255.5 217 C-254.9222583 216.5047583 -254.3445166 216.0095166 -253.74926758 215.49926758 C-252.58518023 214.50154805 -251.42095544 213.50398886 -250.2565918 212.5065918 C-247.29930113 209.97301257 -244.34461631 207.43649863 -241.39453125 204.89453125 C-236.06164678 200.30393447 -230.71814055 195.74238602 -225.25 191.3125 C-220.87492253 187.76254679 -216.69450808 184.04436179 -212.53125 180.25 C-209.02200514 177.13067124 -205.36837877 174.20250867 -201.71875 171.25 C-199.07852271 169.06498431 -196.5327028 166.80828609 -194 164.5 C-189.70008209 160.58108748 -185.24080453 156.90829131 -180.71875 153.25 C-178.07852271 151.06498431 -175.5327028 148.80828609 -173 146.5 C-169.68010514 143.47717579 -166.30235888 140.57487839 -162.8125 137.75 C-156.37288007 132.53481485 -150.14544597 127.08668248 -143.89648438 121.64648438 C-140.92144811 119.06362591 -137.9305594 116.49943086 -134.9375 113.9375 C-134.36410889 113.44660889 -133.79071777 112.95571777 -133.19995117 112.44995117 C-132.04469482 111.46114797 -130.88934024 110.47245951 -129.73388672 109.48388672 C-126.82105954 106.99104476 -123.91065939 104.49537234 -121 102 C-119.83334482 100.9999866 -118.66667816 99.99998659 -117.5 99 C-116.9225 98.505 -116.345 98.01 -115.75 97.5 C-114 96 -112.25 94.5 -110.5 93 C-109.9222583 92.5047583 -109.3445166 92.0095166 -108.74926758 91.49926758 C-107.58518023 90.50154805 -106.42095544 89.50398886 -105.2565918 88.5065918 C-102.29930113 85.97301257 -99.34461631 83.43649863 -96.39453125 80.89453125 C-91.06164678 76.30393447 -85.71814055 71.74238602 -80.25 67.3125 C-75.87492253 63.76254679 -71.69450808 60.04436179 -67.53125 56.25 C-64.02200514 53.13067124 -60.36837877 50.20250867 -56.71875 47.25 C-54.07852271 45.06498431 -51.5327028 42.80828609 -49 40.5 C-44.70008209 36.58108748 -40.24080453 32.90829131 -35.71875 29.25 C-33.07852271 27.06498431 -30.5327028 24.80828609 -28 22.5 C-23.72408894 18.60912358 -19.31864092 14.92044494 -14.82421875 11.28515625 C-12.83812833 9.67815362 -10.86178737 8.06325522 -8.89453125 6.43359375 C-7.39986328 5.19802734 -7.39986328 5.19802734 -5.875 3.9375 C-4.96492188 3.18339844 -4.05484375 2.42929688 -3.1171875 1.65234375 C-1 0 -1 0 0 0 Z " fill="#CDCDCE" transform="translate(1101,1105)"/>
</svg>
