<?xml version="1.0" encoding="UTF-8"?>
<svg version="1.1" xmlns="http://www.w3.org/2000/svg" width="1200" height="1351">
<path d="M0 0 C2.09123944 -0.00961489 4.18145501 -0.04065854 6.27246094 -0.07226562 C32.51122149 -0.27746768 53.46322479 10.37391281 75.62402344 23.24023438 C76.8429126 23.94720459 76.8429126 23.94720459 78.08642578 24.66845703 C81.45556934 26.6297607 84.81241317 28.61085153 88.16308594 30.60351562 C93.76648189 33.9289924 99.4155981 37.1751769 105.06152344 40.42773438 C106.16890869 41.06582031 107.27629395 41.70390625 108.41723633 42.36132812 C110.68771423 43.66930128 112.95830444 44.97707951 115.22900391 46.28466797 C120.69572323 49.43355491 126.15977231 52.58706701 131.62402344 55.74023438 C133.79067655 56.99025787 135.95734323 58.24025784 138.12402344 59.49023438 C151.12402344 66.99023437 164.12402344 74.49023437 177.12402344 81.99023438 C178.19668457 82.60906494 179.2693457 83.22789551 180.37451172 83.86547852 C182.53959414 85.11458956 184.70463326 86.36377567 186.86962891 87.61303711 C192.3101805 90.75225747 197.75149559 93.89014 203.19433594 97.02539062 C213.64608543 103.04770766 224.08701892 109.08692775 234.49902344 115.17773438 C243.17664585 120.25298561 251.89007912 125.26282204 260.62402344 130.24023438 C270.3451796 135.78025167 280.03297002 141.37398246 289.69091797 147.02368164 C300.21486968 153.17790179 310.77782481 159.26393434 321.34179688 165.34912109 C326.77062286 168.47703586 332.19721625 171.60881885 337.62402344 174.74023438 C339.79067926 175.99025316 341.95734593 177.24025316 344.12402344 178.49023438 C391.7906901 205.99023437 439.45735677 233.49023438 487.12402344 260.99023438 C488.196604 261.60898437 489.26918457 262.22773438 490.37426758 262.86523438 C492.54028306 264.11495257 494.70613603 265.36495246 496.87182617 266.61523438 C502.29715653 269.74687941 507.72524762 272.87353548 513.15917969 275.99023438 C519.65892394 279.72059835 526.14398743 283.47576172 532.62402344 287.24023438 C533.74921387 287.89088867 534.8744043 288.54154297 536.03369141 289.21191406 C539.40479109 291.16691195 542.76550265 293.13872099 546.12402344 295.11523438 C547.13215088 295.69724609 548.14027832 296.27925781 549.17895508 296.87890625 C556.07884794 300.97201404 561.83154161 305.70610889 567.62402344 311.24023438 C568.55214844 312.078125 569.48027344 312.91601562 570.43652344 313.77929688 C587.4377709 329.99120071 602.235907 357.31463756 602.8770231 381.17400366 C602.88854281 382.99668641 602.88933853 384.81945807 602.88129234 386.64215946 C602.88479842 387.65739798 602.88830449 388.6726365 602.89191681 389.71863982 C602.90121556 393.11823202 602.89631134 396.51765234 602.89144897 399.91725159 C602.895186 402.38024804 602.89978773 404.8432433 602.90517962 407.30623668 C602.91486318 412.66025555 602.91832545 418.01422465 602.9162674 423.36824799 C602.91321433 431.33028665 602.92154822 439.29228538 602.93201665 447.25431628 C602.951351 462.30383307 602.95698468 477.35333623 602.95813076 492.40286399 C602.95905021 504.02722945 602.96316879 515.65158957 602.96953201 527.27595329 C602.97132714 530.62330641 602.97310677 533.97065953 602.97488177 537.31801265 C602.97532386 538.15020548 602.97576596 538.98239831 602.97622145 539.83980911 C602.98852887 563.24619762 602.99642269 586.65258428 602.9955349 610.05897617 C602.99550374 610.94132897 602.99547258 611.82368177 602.99544048 612.73277252 C602.99527427 617.20478416 602.99507619 621.67679578 602.99487107 626.14880741 C602.99481123 627.48101397 602.99481123 627.48101397 602.99475018 628.84013379 C602.99466931 630.63616536 602.99458571 632.43219693 602.9944994 634.2282285 C602.99327424 662.16364777 603.00828109 690.09901846 603.03564453 718.03442383 C603.06638406 749.42933595 603.08357586 780.82421616 603.08171809 812.21914428 C603.08156883 815.56869789 603.08147141 818.91825149 603.08140945 822.2678051 C603.08137449 823.50489517 603.08137449 823.50489517 603.08133882 824.76697697 C603.08127734 838.02369098 603.0940347 851.28036274 603.11127398 864.53706421 C603.12825067 877.86785049 603.13018842 891.19857514 603.11705534 904.52936626 C603.10967948 912.44233706 603.11328314 920.35512027 603.13294002 928.26807109 C603.14639619 934.18656075 603.13879202 940.10490481 603.12319358 946.02339315 C603.12012481 948.41033905 603.12375133 950.7973054 603.13491373 953.18422718 C603.26199584 982.29722252 595.12861548 1009.04665974 575.62402344 1031.24023438 C574.94984375 1032.0575 574.27566406 1032.87476563 573.58105469 1033.71679688 C561.83297746 1047.54058174 546.57705282 1055.54010746 530.98876953 1064.33203125 C525.83860855 1067.25277267 520.73165991 1070.24595626 515.62402344 1073.24023438 C504.07781231 1079.98908279 492.49498851 1086.67363599 480.90625 1093.34912109 C475.47742401 1096.47703586 470.05083063 1099.60881885 464.62402344 1102.74023438 C462.45736761 1103.99025316 460.29070094 1105.24025316 458.12402344 1106.49023438 C457.05152344 1107.10898438 455.97902344 1107.72773437 454.87402344 1108.36523438 C263.12402345 1218.99023437 263.12402345 1218.99023437 259.87353516 1220.86547852 C257.70845273 1222.11458956 255.54341362 1223.36377567 253.37841797 1224.61303711 C247.93786638 1227.75225747 242.49655128 1230.89014 237.05371094 1234.02539062 C226.60196144 1240.04770766 216.16102796 1246.08692775 205.74902344 1252.17773438 C196.47902566 1257.59944615 187.16570592 1262.94228353 177.83557129 1268.25946045 C168.71119504 1273.46068566 159.6226957 1278.72051315 150.55712891 1284.02368164 C140.03317719 1290.17790179 129.47022206 1296.26393434 118.90625 1302.34912109 C113.47742399 1305.47703587 108.05084402 1308.60884204 102.62402344 1311.74023438 C100.47298715 1312.98112912 98.32194547 1314.22201451 96.17089844 1315.46289062 C90.53404031 1318.7148589 84.89791289 1321.96809024 79.26269531 1325.22290039 C77.02569232 1326.51336746 74.78743432 1327.80166176 72.54785156 1329.08764648 C65.99218013 1332.85189128 65.99218013 1332.85189128 59.51464844 1336.74804688 C48.03376696 1343.70535523 34.96539928 1348.4057952 21.62402344 1350.24023438 C20.54121094 1350.40458984 20.54121094 1350.40458984 19.43652344 1350.57226562 C-7.40550687 1353.97286068 -34.08795897 1348.90645626 -57.25097656 1334.99023438 C-59.37523927 1333.73247789 -61.50027108 1332.47601968 -63.62597656 1331.22070312 C-64.72941406 1330.56763184 -65.83285156 1329.91456055 -66.96972656 1329.24169922 C-72.69941022 1325.87501726 -78.47569441 1322.59027502 -84.25097656 1319.30273438 C-86.62111871 1317.95178596 -88.99081831 1316.60006294 -91.36035156 1315.24804688 C-91.9455658 1314.91417465 -92.53078003 1314.58030243 -93.13372803 1314.23631287 C-102.49534707 1308.89226583 -111.82482419 1303.49227605 -121.15820312 1298.09912109 C-126.56268302 1294.97698832 -131.96945068 1291.85882233 -137.37597656 1288.74023438 C-139.54265407 1287.49025316 -141.70932074 1286.24025316 -143.87597656 1284.99023438 C-144.94847656 1284.37148437 -146.02097656 1283.75273438 -147.12597656 1283.11523438 C-159.04264323 1276.24023438 -170.9593099 1269.36523438 -182.87597656 1262.49023438 C-183.9486377 1261.87140381 -185.02129883 1261.25257324 -186.12646484 1260.61499023 C-188.29154727 1259.36587919 -190.45658638 1258.11669308 -192.62158203 1256.86743164 C-198.06213362 1253.72821128 -203.50344872 1250.59032875 -208.94628906 1247.45507812 C-219.39803856 1241.43276109 -229.83897204 1235.393541 -240.25097656 1229.30273438 C-248.92859898 1224.22748314 -257.64203224 1219.21764671 -266.37597656 1214.24023438 C-276.09713273 1208.70021708 -285.78492314 1203.10648629 -295.44287109 1197.45678711 C-305.96682281 1191.30256696 -316.52977794 1185.21653441 -327.09375 1179.13134766 C-332.52257599 1176.00343289 -337.94916937 1172.8716499 -343.37597656 1169.74023438 C-345.54263239 1168.49021559 -347.70929906 1167.24021559 -349.87597656 1165.99023438 C-397.54264323 1138.49023438 -445.2093099 1110.99023438 -492.87597656 1083.49023438 C-493.94952393 1082.87092041 -495.02307129 1082.25160645 -496.12915039 1081.61352539 C-498.28537869 1080.36946646 -500.44146705 1079.12516495 -502.59741211 1077.88061523 C-508.17263161 1074.66266651 -513.75054779 1071.44951135 -519.33300781 1068.24414062 C-525.69000979 1064.59219811 -532.03794579 1060.92500272 -538.37597656 1057.24023438 C-539.47280762 1056.60432373 -539.47280762 1056.60432373 -540.59179688 1055.95556641 C-568.82221527 1039.49621141 -586.93749343 1014.15689584 -595.46582031 982.84960938 C-595.76617188 981.65851562 -596.06652344 980.46742188 -596.37597656 979.24023438 C-596.64739564 978.19739247 -596.64739564 978.19739247 -596.92429793 977.13348305 C-597.59009227 972.86870617 -597.51847822 968.64903117 -597.51299095 964.33888054 C-597.51564278 963.32915619 -597.51829461 962.31943184 -597.52102679 961.27910978 C-597.52872485 957.87420475 -597.52927916 954.46933576 -597.52987671 951.06442261 C-597.53389102 948.60701717 -597.53832919 946.14961239 -597.54315627 943.69220841 C-597.55387446 937.63272534 -597.55987873 931.57325334 -597.56386514 925.51376342 C-597.56887674 918.25634168 -597.57960481 910.99893115 -597.59034688 903.74151604 C-597.61597362 886.19666854 -597.63101326 868.65181668 -597.64385735 851.10695584 C-597.64811302 845.29392255 -597.65267878 839.48088958 -597.65744066 833.66785669 C-597.68270536 802.74705887 -597.70474931 771.82626051 -597.71716881 740.90545464 C-597.72009005 733.74149448 -597.72305759 726.57753434 -597.72607422 719.41357422 C-597.72644513 718.52355714 -597.72681604 717.63354006 -597.72719819 716.71655277 C-597.73934594 687.87866185 -597.77027682 659.04083206 -597.81199574 630.20296984 C-597.85482174 600.54563675 -597.88141481 570.88833595 -597.88664352 541.23097111 C-597.88738392 537.03833053 -597.8882946 532.84569 -597.8893013 528.65304947 C-597.88949191 527.82793902 -597.88968253 527.00282857 -597.88987892 526.15271478 C-597.89338676 512.8963567 -597.91365837 499.64007539 -597.94009794 486.38374546 C-597.96629826 473.04569469 -597.97394654 459.70773223 -597.96299665 446.36965941 C-597.95703892 438.4550719 -597.96483031 430.54078489 -597.99282748 422.62624311 C-598.01222771 416.70106861 -598.0051877 410.7761095 -597.98825832 404.85092141 C-597.98546615 402.46514393 -597.99101275 400.07933783 -598.00607125 397.69360624 C-598.18685788 367.16766114 -589.07144737 339.00324919 -567.70019531 316.57226562 C-566.93320312 315.80269531 -566.16621094 315.033125 -565.37597656 314.24023438 C-564.09787109 312.95439453 -564.09787109 312.95439453 -562.79394531 311.64257812 C-561.59705078 310.45341797 -561.59705078 310.45341797 -560.37597656 309.24023438 C-559.81136719 308.67820312 -559.24675781 308.11617188 -558.66503906 307.53710938 C-552.30222359 301.6223795 -544.85811127 297.54331562 -537.37597656 293.24023438 C-535.42916402 292.11297202 -533.48256402 290.98534255 -531.53613281 289.85742188 C-525.96376157 286.63307055 -520.38431493 283.42114059 -514.80322266 280.21191406 C-509.3244186 277.05998205 -503.85036544 273.89982641 -498.37597656 270.74023438 C-496.2093343 269.49019207 -494.0426676 268.24019214 -491.87597656 266.99023438 C-490.80347656 266.37148438 -489.73097656 265.75273437 -488.62597656 265.11523438 C-452.87597656 244.49023438 -452.87597656 244.49023438 -449.62548828 242.61499023 C-447.46040586 241.36587919 -445.29536674 240.11669308 -443.13037109 238.86743164 C-437.6898195 235.72821128 -432.24850441 232.59032875 -426.80566406 229.45507812 C-416.35391457 223.43276109 -405.91298108 217.393541 -395.50097656 211.30273438 C-386.23097879 205.8810226 -376.91765904 200.53818522 -367.58752441 195.2210083 C-358.46314816 190.01978309 -349.37464882 184.7599556 -340.30908203 179.45678711 C-329.78513032 173.30256696 -319.22217519 167.21653441 -308.65820312 161.13134766 C-303.22937714 158.00343289 -297.80278375 154.8716499 -292.37597656 151.74023438 C-290.20932074 150.49021559 -288.04265407 149.24021559 -285.87597656 147.99023438 C-284.80347656 147.37148437 -283.73097656 146.75273437 -282.62597656 146.11523438 C-218.7093099 109.24023437 -154.79264323 72.36523437 -90.87597656 35.49023438 C-89.8024292 34.87067871 -88.72888184 34.25112305 -87.62280273 33.61279297 C-85.46742023 32.36970824 -83.31133831 31.12783541 -81.15454102 29.88720703 C-76.14597736 27.00428067 -71.14452654 24.11109546 -66.16891479 21.17169189 C-64.42787247 20.14394164 -62.68451794 19.12022768 -60.94042969 18.09765625 C-58.76911111 16.82299554 -56.60205663 15.54102798 -54.44042969 14.25 C-37.28633981 4.21480198 -19.74130463 0.05460942 0 0 Z " fill="#659AD2" transform="translate(597.3759765625,-0.240234375)"/>
<path d="M0 0 C3.42657732 1.56872922 4.38823001 5.42679139 5.79223633 8.72412109 C6.11385742 9.41892578 6.43547852 10.11373047 6.7668457 10.82958984 C14.21147997 27.8333107 15.58258896 44.3730238 15.48292542 62.72868347 C15.48797958 65.20031428 15.49521509 67.67194141 15.50442356 70.14356023 C15.51933371 75.48555694 15.51895868 80.82721564 15.50459671 86.16918945 C15.48329857 94.11308392 15.4909169 102.05677466 15.50397193 110.00067763 C15.52635639 124.19314502 15.52047541 138.38549282 15.50253583 152.57796023 C15.48693666 164.99652179 15.48112336 177.41504153 15.48487663 189.83361244 C15.48523183 191.07172343 15.48523183 191.07172343 15.48559421 192.33484676 C15.48656921 195.68584643 15.48759004 199.03684609 15.48867931 202.38784573 C15.49874967 233.78623986 15.48053254 265.18456057 15.44895896 296.58293744 C15.42109301 324.45285991 15.41613963 352.32269512 15.43115234 380.19262695 C15.43497507 387.33204996 15.43876995 394.47147297 15.44232273 401.61089611 C15.44276055 402.48996125 15.44319836 403.3690264 15.44364944 404.27472988 C15.45489825 427.59473419 15.44753388 450.91473213 15.43444198 474.23473436 C15.43305348 476.74500194 15.43167277 479.25526953 15.43030356 481.76553713 C15.42939419 483.43062793 15.42847152 485.09571872 15.42753546 486.7608095 C15.42075101 499.17088782 15.42338983 511.58094089 15.43048286 523.9910183 C15.43846201 538.10517616 15.43183736 552.21924629 15.40630782 566.33338495 C15.39242266 574.22417794 15.3893615 582.11479416 15.40224253 590.00558987 C15.41062083 595.90717424 15.39795137 601.80859464 15.37726831 607.71015266 C15.37212436 610.09006413 15.37364298 612.47000177 15.38266296 614.8499017 C15.48369599 643.93670536 7.34083518 670.6765892 -12.14526367 692.84912109 C-12.81944336 693.66638672 -13.49362305 694.48365234 -14.18823242 695.32568359 C-25.93630965 709.14946846 -41.19223429 717.14899418 -56.78051758 725.94091797 C-61.93067856 728.86165939 -67.0376272 731.85484298 -72.14526367 734.84912109 C-83.6914748 741.59796951 -95.2742986 748.28252271 -106.86303711 754.95800781 C-112.2918631 758.08592258 -117.71845648 761.21770557 -123.14526367 764.34912109 C-125.3119195 765.59913988 -127.47858617 766.84913988 -129.64526367 768.09912109 C-131.25401367 769.02724609 -131.25401367 769.02724609 -132.89526367 769.97412109 C-324.64526367 880.5991211 -324.64526367 880.5991211 -327.89575195 882.47436523 C-330.06083438 883.72347627 -332.22587349 884.97266239 -334.39086914 886.22192383 C-339.83142073 889.36114419 -345.27273583 892.49902672 -350.71557617 895.63427734 C-361.16732567 901.65659438 -371.60825915 907.69581447 -382.02026367 913.78662109 C-391.29026145 919.20833287 -400.60358119 924.55117025 -409.93371582 929.86834717 C-419.05809207 935.06957238 -428.14659141 940.32939987 -437.2121582 945.63256836 C-447.73610992 951.78678851 -458.29906505 957.87282105 -468.86303711 963.95800781 C-474.29186311 967.08592259 -479.71844309 970.21772876 -485.14526367 973.34912109 C-487.29629996 974.59001583 -489.44734164 975.83090123 -491.59838867 977.07177734 C-497.2352468 980.32374561 -502.87137421 983.57697695 -508.5065918 986.83178711 C-510.74359479 988.12225418 -512.98185279 989.41054848 -515.22143555 990.6965332 C-521.77710698 994.460778 -521.77710698 994.460778 -528.25463867 998.35693359 C-539.73552015 1005.31424195 -552.80388783 1010.01468192 -566.14526367 1011.84912109 C-566.86713867 1011.95869141 -567.58901367 1012.06826172 -568.33276367 1012.18115234 C-595.17479397 1015.5817474 -621.85724608 1010.51534298 -645.02026367 996.59912109 C-647.14452638 995.34136461 -649.26955819 994.0849064 -651.39526367 992.82958984 C-652.49870117 992.17651855 -653.60213867 991.52344727 -654.73901367 990.85058594 C-660.46869733 987.48390398 -666.24498152 984.19916174 -672.02026367 980.91162109 C-674.39040582 979.56067268 -676.76010542 978.20894966 -679.12963867 976.85693359 C-679.71485291 976.52306137 -680.30006714 976.18918915 -680.90301514 975.84519958 C-690.26463417 970.50115255 -699.5941113 965.10116277 -708.92749023 959.70800781 C-714.33197013 956.58587504 -719.73873779 953.46770905 -725.14526367 950.34912109 C-727.31194118 949.09913988 -729.47860785 947.84913988 -731.64526367 946.59912109 C-732.71776367 945.98037109 -733.79026367 945.36162109 -734.89526367 944.72412109 C-746.81193034 937.84912109 -758.72859701 930.97412109 -770.64526367 924.09912109 C-771.7179248 923.48029053 -772.79058594 922.86145996 -773.89575195 922.22387695 C-776.06083438 920.97476591 -778.22587349 919.7255798 -780.39086914 918.47631836 C-785.83142073 915.337098 -791.27273583 912.19921547 -796.71557617 909.06396484 C-807.16732567 903.04164781 -817.60825915 897.00242772 -828.02026367 890.91162109 C-836.69788609 885.83636986 -845.41131935 880.82653343 -854.14526367 875.84912109 C-863.86641984 870.3091038 -873.55421025 864.71537301 -883.2121582 859.06567383 C-893.73610992 852.91145368 -904.29906505 846.82542113 -914.86303711 840.74023438 C-920.2918631 837.61231961 -925.71845648 834.48053662 -931.14526367 831.34912109 C-933.3119195 830.0991023 -935.47858617 828.84910231 -937.64526367 827.59912109 C-985.31193034 800.09912109 -1032.97859701 772.59912109 -1080.64526367 745.09912109 C-1081.71881104 744.47980713 -1082.7923584 743.86049316 -1083.8984375 743.22241211 C-1086.0546658 741.97835318 -1088.21075416 740.73405167 -1090.36669922 739.48950195 C-1095.94191872 736.27155323 -1101.5198349 733.05839807 -1107.10229492 729.85302734 C-1113.4592969 726.20108483 -1119.8072329 722.53388944 -1126.14526367 718.84912109 C-1127.24209473 718.21321045 -1127.24209473 718.21321045 -1128.36108398 717.56445312 C-1146.48438477 706.99791326 -1159.46476671 693.67632096 -1170.14526367 675.84912109 C-1167.36789021 672.86026842 -1164.70597377 670.83861201 -1161.12963867 668.88818359 C-1160.13843018 668.34170166 -1159.14722168 667.79521973 -1158.12597656 667.23217773 C-1157.05984131 666.65201904 -1155.99370605 666.07186035 -1154.89526367 665.47412109 C-1152.61692601 664.21680586 -1150.33960629 662.95764455 -1148.06323242 661.69677734 C-1147.19395363 661.21612068 -1147.19395363 661.21612068 -1146.30711365 660.72575378 C-1140.55712258 657.53937956 -1134.87727423 654.2384721 -1129.20776367 650.91162109 C-1127.21694875 649.74483413 -1125.22606267 648.57816859 -1123.23510742 647.41162109 C-1122.23850098 646.82767578 -1121.24189453 646.24373047 -1120.21508789 645.64208984 C-1114.91199118 642.54475071 -1109.59131432 639.47798252 -1104.27026367 636.41162109 C-1103.19010986 635.78908447 -1102.10995605 635.16654785 -1100.99707031 634.52514648 C-1098.80730033 633.26335283 -1096.61744012 632.00171576 -1094.42749023 630.74023438 C-1088.99866425 627.61231961 -1083.57207086 624.48053662 -1078.14526367 621.34912109 C-1075.97860785 620.0991023 -1073.81194118 618.84910231 -1071.64526367 617.59912109 C-1070.57276367 616.98037109 -1069.50026367 616.36162109 -1068.39526367 615.72412109 C-1039.14526367 598.84912109 -1009.89526367 581.97412109 -980.64526367 565.09912109 C-979.57099121 564.47924316 -978.49671875 563.85936523 -977.38989258 563.22070312 C-975.24149855 561.98145643 -973.09274042 560.74284073 -970.94360352 559.50488281 C-965.8575245 556.57414478 -960.77546138 553.63700693 -955.70611572 550.6774292 C-953.30706797 549.27733941 -950.90593957 547.88084014 -948.50463867 546.48461914 C-946.80728141 545.49568872 -945.11295465 544.50156271 -943.41870117 543.50732422 C-942.39260742 542.91113281 -941.36651367 542.31494141 -940.30932617 541.70068359 C-939.40649902 541.17297363 -938.50367188 540.64526367 -937.57348633 540.1015625 C-935.39373913 538.97728107 -933.54124354 538.30878652 -931.14526367 537.84912109 C-927.48992261 542.88429288 -924.0221932 547.99705609 -920.78759766 553.31079102 C-911.90835755 567.8720251 -901.70067885 581.47788644 -890.4753418 594.30859375 C-889.13697236 595.85872428 -887.83352106 597.43275999 -886.53588867 599.01708984 C-880.21554722 606.67185168 -873.41110261 613.76468673 -866.39526367 620.78662109 C-865.50790527 621.67478516 -864.62054687 622.56294922 -863.70629883 623.47802734 C-858.67502067 628.46691503 -853.53536974 633.25180856 -848.14526367 637.84912109 C-847.18104492 638.69474609 -846.21682617 639.54037109 -845.22338867 640.41162109 C-824.05543892 658.65582088 -800.98535826 673.98541461 -776.56616211 687.50732422 C-775.04779523 688.34888779 -773.53233597 689.19574228 -772.02124023 690.05029297 C-752.9663403 700.82410704 -732.39250744 709.33048958 -711.5793457 716.05908203 C-709.94139945 716.59071634 -708.30695631 717.13325375 -706.67602539 717.68603516 C-679.59545763 726.85722339 -650.65524981 732.72570725 -622.14526367 734.84912109 C-620.909375 734.9412085 -619.67348633 735.0332959 -618.40014648 735.12817383 C-606.77704051 735.93035293 -595.16772111 736.05230573 -583.52026367 736.03662109 C-582.0589502 736.03471771 -582.0589502 736.03471771 -580.56811523 736.03277588 C-491.1328087 735.81094757 -402.32572352 703.65345259 -333.14526367 646.84912109 C-332.60353516 646.40503906 -332.06180664 645.96095703 -331.50366211 645.50341797 C-313.86306654 630.96848742 -296.07696511 615.23499577 -281.99291992 597.18896484 C-280.23824043 594.96686544 -278.38915631 592.91760632 -276.45776367 590.84912109 C-265.05141789 578.10750865 -255.67040771 563.48682327 -246.55102539 549.0703125 C-245.59676058 547.56251444 -244.63455363 546.0597194 -243.6652832 544.56152344 C-243.20621582 543.84561035 -242.74714844 543.12969727 -242.27416992 542.39208984 C-241.86368408 541.75682373 -241.45319824 541.12155762 -241.03027344 540.46704102 C-239.98529703 538.86403916 -239.98529703 538.86403916 -240.14526367 536.84912109 C-240.80719727 536.46804199 -241.46913086 536.08696289 -242.15112305 535.69433594 C-254.16628148 528.7750766 -266.17462431 521.84522332 -278.14526367 514.84912109 C-289.69247881 508.10197336 -301.27428496 501.41572733 -312.86303711 494.74023438 C-319.37397624 490.98884085 -325.88189561 487.23221115 -332.39038086 483.4765625 C-337.83111703 480.33729863 -343.27257844 477.19930613 -348.71557617 474.06396484 C-360.34439532 467.36357883 -371.95767821 460.63788209 -383.54614258 453.86791992 C-392.73107127 448.5027185 -401.93517437 443.17098873 -411.14526367 437.84912109 C-413.90710928 441.20582575 -416.35995902 444.63053652 -418.70776367 448.28662109 C-447.64293672 491.66302805 -493.20926133 522.84105736 -544.39331055 533.31298828 C-570.12672506 538.32634689 -597.38209603 539.07062086 -623.14526367 533.84912109 C-623.99556152 533.68283203 -624.84585938 533.51654297 -625.72192383 533.34521484 C-645.25290644 529.42959182 -663.70252555 522.44399191 -681.14526367 512.84912109 C-681.765625 512.50800293 -682.38598633 512.16688477 -683.02514648 511.81542969 C-697.94109543 503.4887156 -711.36594437 493.2102881 -723.6159668 481.32714844 C-725.11648671 479.87693331 -726.63685782 478.45033693 -728.16088867 477.02490234 C-740.13931599 465.64265981 -750.05000786 452.22991485 -758.14526367 437.84912109 C-758.53278809 437.16688477 -758.9203125 436.48464844 -759.31958008 435.78173828 C-766.19158649 423.58211707 -771.64585146 411.10506163 -776.14526367 397.84912109 C-776.39646973 397.11435547 -776.64767578 396.37958984 -776.90649414 395.62255859 C-786.84107462 365.72919221 -788.68837739 330.68154962 -782.14526367 299.84912109 C-781.97365723 299.00381836 -781.80205078 298.15851563 -781.62524414 297.28759766 C-770.5953698 243.80404254 -738.48578655 198.58416359 -693.38354492 168.31152344 C-649.64655575 139.73554557 -595.4414862 130.1839443 -544.45776367 140.79833984 C-540.32185087 141.70723179 -536.23526341 142.75200914 -532.14526367 143.84912109 C-531.06631836 144.13400391 -529.98737305 144.41888672 -528.87573242 144.71240234 C-501.92708288 152.40717397 -476.19049228 166.39666465 -455.14526367 184.84912109 C-454.30866211 185.57615234 -453.47206055 186.30318359 -452.61010742 187.05224609 C-436.55958773 201.2421955 -423.00921958 217.34644618 -412.14526367 235.84912109 C-408.75523646 234.55803918 -405.62365536 233.09130568 -402.46948242 231.30224609 C-401.57205322 230.79459717 -400.67462402 230.28694824 -399.75 229.76391602 C-398.78731201 229.21453369 -397.82462402 228.66515137 -396.83276367 228.09912109 C-395.81657959 227.52202393 -394.80039551 226.94492676 -393.75341797 226.3503418 C-385.62822029 221.72386584 -377.54962208 217.01929966 -369.48193359 212.29345703 C-361.73279593 207.75926116 -353.94608498 203.29347586 -346.14526367 198.84912109 C-336.42392268 193.3094321 -326.73631275 187.71537047 -317.07836914 182.06567383 C-304.37166242 174.6350173 -291.60963774 167.30026355 -278.85424805 159.95361328 C-275.57595305 158.06513616 -272.29797882 156.17610444 -269.02026367 154.28662109 C-267.94131836 153.66464844 -266.86237305 153.04267578 -265.75073242 152.40185547 C-258.57654366 148.26223632 -251.41970805 144.0937969 -244.27026367 139.91162109 C-235.63244367 134.86074091 -226.96206727 129.86887756 -218.27026367 124.91162109 C-200.88724673 114.99710879 -183.54458652 105.01455204 -166.27026367 94.91162109 C-157.00020852 89.49000614 -147.68694717 84.14707252 -138.35681152 78.82989502 C-129.23243527 73.62866981 -120.14393593 68.36884232 -111.07836914 63.06567383 C-100.55441742 56.91145368 -89.9914623 50.82542113 -79.42749023 44.74023438 C-72.91796779 40.9896571 -66.41131587 37.2341012 -59.90454102 33.47875977 C-54.43991705 30.32526948 -48.97378465 27.17445069 -43.50463867 24.02880859 C-41.86229248 23.08328125 -41.86229248 23.08328125 -40.18676758 22.11865234 C-38.01273162 20.86731582 -35.83794058 19.61729014 -33.66235352 18.36865234 C-28.32574752 15.29727135 -23.0217402 12.18415546 -17.76245117 8.98193359 C-16.75214844 8.37043457 -15.7418457 7.75893555 -14.70092773 7.12890625 C-12.79268154 5.97003298 -10.89060395 4.80092063 -8.99584961 3.62011719 C-8.15054687 3.10787598 -7.30524414 2.59563477 -6.43432617 2.06787109 C-5.33145264 1.3862793 -5.33145264 1.3862793 -4.20629883 0.69091797 C-2.14526367 -0.15087891 -2.14526367 -0.15087891 0 0 Z " fill="#00599C" transform="translate(1185.145263671875,338.15087890625)"/>
<path d="M0 0 C1.60343262 0.32991943 1.60343262 0.32991943 3.23925781 0.66650391 C35.36571278 7.48773061 66.92732716 19.83227762 95.99707031 34.96386719 C98.13284657 36.06872268 100.28060149 37.14784561 102.4296875 38.2265625 C132.05327376 53.25780113 159.19112089 72.9850878 183.4453125 95.62890625 C185.5702842 97.60116591 187.72768168 99.49986371 189.9375 101.375 C198.59481506 108.89128818 206.60314944 117.25255676 214 126 C215.26650391 127.43279297 215.26650391 127.43279297 216.55859375 128.89453125 C231.42338065 145.77886665 244.45464481 164.10090975 256.125 183.3125 C256.51606934 183.95356689 256.90713867 184.59463379 257.31005859 185.25512695 C260 189.75774849 260 189.75774849 260 192 C227.3984375 210.80859375 227.3984375 210.80859375 224.19238281 212.65820312 C222.04845933 213.89510728 219.90457974 215.13208754 217.76074219 216.36914062 C212.31807441 219.50958117 206.87464455 222.64868634 201.4296875 225.78515625 C190.93767906 231.83055159 180.45518324 237.89110219 170 244 C156.23206784 252.04451617 142.41484404 260.00298609 128.59619141 267.95996094 C126.32490014 269.26793937 124.05382091 270.57628607 121.78295898 271.88500977 C119.57875579 273.1549641 117.37385678 274.42371161 115.16821289 275.69116211 C110.31670626 278.48406957 105.48186141 281.2961559 100.6953125 284.19921875 C99.50723999 284.91597778 99.50723999 284.91597778 98.29516602 285.6472168 C96.85268258 286.52122453 95.41524958 287.40364765 93.98413086 288.29614258 C92.36697437 289.27455679 90.68756973 290.14876684 89 291 C85.0119523 289.67065077 83.99769803 287.18094005 81.9375 283.75 C74.55799047 271.91276333 65.96938268 261.46654279 56.33398438 251.39697266 C55.19641327 250.20568754 54.07321776 249.00070236 52.953125 247.79296875 C34.99874606 228.95621649 10.92058383 215.40967802 -12.97070312 205.82373047 C-14.57994008 205.17051037 -16.17551099 204.48363853 -17.765625 203.78515625 C-60.70331538 185.09374907 -115.14816586 188.29520294 -158 205 C-207.20633343 224.81225648 -248.05979505 262.6036292 -269.14160156 311.65625 C-275.31720079 326.69812947 -280.03429803 341.99573846 -283 358 C-283.20753906 359.093125 -283.41507813 360.18625 -283.62890625 361.3125 C-291.50466091 411.54108919 -278.24703416 466.00037304 -248.47485352 507.10571289 C-231.9879197 529.29425644 -212.41004551 547.33855397 -189 562 C-188.10087891 562.56799316 -188.10087891 562.56799316 -187.18359375 563.14746094 C-171.03565183 573.20068828 -152.50360804 580.64209735 -134 585 C-132.34097656 585.40798828 -132.34097656 585.40798828 -130.6484375 585.82421875 C-103.89609731 592.0140943 -74.96102762 592.00225052 -48 587 C-47.13971191 586.8443457 -46.27942383 586.68869141 -45.39306641 586.52832031 C-15.96605906 580.97438146 12.38275545 567.26145501 36 549 C36.84884766 548.34378662 36.84884766 548.34378662 37.71484375 547.67431641 C57.90748478 531.80953459 73.55864865 512.72339613 87 491 C94.2003122 494.47715727 101.11905811 498.30657529 108 502.375 C110.12726524 503.62427522 112.25488158 504.87295275 114.3828125 506.12109375 C115.47368164 506.76159668 116.56455078 507.40209961 117.68847656 508.06201172 C123.07000918 511.21142236 128.47197683 514.32514629 133.875 517.4375 C134.95249512 518.05858643 136.02999023 518.67967285 137.14013672 519.31958008 C140.42645606 521.21357769 143.71316385 523.10689942 147 525 C160.67554314 532.87662589 174.33960958 540.77120092 187.96582031 548.73291016 C195.25622529 552.98982804 202.56144961 557.2204809 209.875 561.4375 C210.94435791 562.05431641 212.01371582 562.67113281 213.11547852 563.30664062 C218.16323471 566.21681308 223.2129692 569.12346143 228.2677002 572.02149963 C230.02480482 573.02921959 231.78129524 574.0380018 233.53759766 575.04711914 C235.72745055 576.3049558 237.91844441 577.5608092 240.11083984 578.81420898 C246.8624298 582.69509963 253.4657583 586.76348709 260 591 C258.76572211 594.26990998 257.39270076 597.19606604 255.53125 600.15234375 C255.04769043 600.92175293 254.56413086 601.69116211 254.06591797 602.48388672 C253.29078857 603.69842529 253.29078857 603.69842529 252.5 604.9375 C251.96391113 605.78070801 251.42782227 606.62391602 250.87548828 607.49267578 C246.16264548 614.8487298 241.22006628 621.9963408 236 629 C235.60103516 629.53786133 235.20207031 630.07572266 234.79101562 630.62988281 C228.2438614 639.41740784 221.24522328 647.7816104 214 656 C213.16210938 656.95132813 212.32421875 657.90265625 211.4609375 658.8828125 C205.60757498 665.38856218 199.48717757 671.61285022 193.3125 677.8125 C192.51642334 678.61324951 191.72034668 679.41399902 190.90014648 680.23901367 C186.09488128 685.03129572 181.17481529 689.6100957 176 694 C175.04589233 694.81416382 175.04589233 694.81416382 174.07250977 695.64477539 C113.3458237 747.12296679 39.5321787 778.09396353 -39 789 C-39.95777344 789.13422363 -40.91554688 789.26844727 -41.90234375 789.40673828 C-56.00068784 791.26853669 -70.18035421 791.17383024 -84.375 791.1875 C-85.3168515 791.18867828 -86.258703 791.18985657 -87.22909546 791.19107056 C-104.48043284 791.18862705 -121.4355218 790.41641457 -138.5625 788.25 C-139.24466583 788.16418671 -139.92683167 788.07837341 -140.62966919 787.98995972 C-158.06245794 785.77418213 -175.15663568 782.47043135 -191.9453125 777.23828125 C-194.71694215 776.37559303 -197.49590416 775.58822223 -200.3046875 774.85546875 C-270.58471006 756.50599942 -344.02435824 709.94755122 -389.109375 652.38671875 C-390.92387814 650.09609598 -392.83110257 647.95901388 -394.8125 645.8125 C-415.86328904 622.27049332 -431.81663548 594.03392407 -446 566 C-446.41282227 565.19046875 -446.82564453 564.3809375 -447.25097656 563.546875 C-454.37110095 549.48597445 -459.75108506 534.84423677 -465 520 C-465.33805664 519.05833984 -465.67611328 518.11667969 -466.02441406 517.14648438 C-474.97673632 492.11670953 -480.90997641 465.66210186 -483.75778198 439.22642517 C-483.91875047 437.74683132 -484.08402792 436.26769966 -484.25369263 434.78907776 C-485.79795189 421.24075837 -486.31483783 407.83913368 -486.26074219 394.20703125 C-486.25000808 391.00241186 -486.26072082 387.79835276 -486.2734375 384.59375 C-486.28287778 371.28562817 -485.57964076 358.21358957 -484 345 C-483.85401367 343.76862305 -483.70802734 342.53724609 -483.55761719 341.26855469 C-475.91711445 281.23603315 -454.86306217 222.31143542 -421 172 C-420.17048828 170.76491699 -420.17048828 170.76491699 -419.32421875 169.50488281 C-411.85911035 158.46309437 -403.96072924 147.91279232 -395.40625 137.69433594 C-393.45968459 135.34899498 -391.58094134 132.95081805 -389.6875 130.5625 C-380.20926749 118.97408586 -369.59447878 107.35826858 -358.1875 97.625 C-355.19769527 95.05251027 -352.27790107 92.42009885 -349.375 89.75 C-343.17377426 84.16322498 -336.61821727 79.07743221 -330 74 C-329.36787598 73.51096191 -328.73575195 73.02192383 -328.08447266 72.51806641 C-318.06556809 64.77882198 -307.78725842 57.62763605 -297 51 C-296.12375977 50.46117187 -295.24751953 49.92234375 -294.34472656 49.3671875 C-255.88334824 25.91284193 -214.17130828 8.978278 -170.0793457 -0.34326172 C-167.94689318 -0.79805418 -165.8179658 -1.26957603 -163.69213867 -1.75439453 C-155.53623194 -3.5888538 -147.3876976 -4.88564014 -139.09594727 -5.88037109 C-137.06615547 -6.12456024 -135.03799643 -6.37991876 -133.00976562 -6.63671875 C-88.65026717 -12.15518938 -43.66084999 -9.05163963 0 0 Z " fill="#FEFEFE" transform="translate(686,284)"/>
<path d="M0 0 C3.25551702 1.18020534 4.67690719 2.56688098 6.375 5.53515625 C6.79652344 6.25348633 7.21804688 6.97181641 7.65234375 7.71191406 C8.31943359 8.8754541 8.31943359 8.8754541 9 10.0625 C25.42426977 37.78123712 46.51167837 62.52639763 69.1875 85.3125 C69.84073242 85.97040527 70.49396484 86.62831055 71.16699219 87.30615234 C75.61473266 91.73932843 80.23628002 95.91029107 85 100 C86.44632812 101.2684375 86.44632812 101.2684375 87.921875 102.5625 C109.08982475 120.80669979 132.15990541 136.13629352 156.57910156 149.65820312 C158.09746844 150.49976669 159.6129277 151.34662118 161.12402344 152.20117188 C180.17892337 162.97498595 200.75275623 171.48136849 221.56591797 178.20996094 C223.20386422 178.74159525 224.83830736 179.28413265 226.46923828 179.83691406 C253.54980604 189.0081023 282.49001386 194.87658615 311 197 C312.23588867 197.0920874 313.47177734 197.1841748 314.74511719 197.27905273 C326.36822316 198.08123183 337.97754256 198.20318463 349.625 198.1875 C350.59920898 198.18623108 351.57341797 198.18496216 352.57714844 198.18365479 C442.01245497 197.96182648 530.81954015 165.80433149 600 109 C600.54172852 108.55591797 601.08345703 108.11183594 601.64160156 107.65429688 C619.28219713 93.11936632 637.06829856 77.38587467 651.15234375 59.33984375 C652.90702324 57.11774435 654.75610736 55.06848523 656.6875 53 C668.08113662 40.27258449 677.35737294 25.67841791 686.51171875 11.31152344 C688.95990385 7.50912572 691.47758918 3.7534278 694 0 C697.80560234 0.58066603 700.526577 1.66421734 703.82421875 3.6328125 C705.22293213 4.45930298 705.22293213 4.45930298 706.64990234 5.30249023 C707.65230957 5.90391846 708.6547168 6.50534668 709.6875 7.125 C711.86025981 8.41086159 714.03345157 9.69599352 716.20703125 10.98046875 C717.89046631 11.97892822 717.89046631 11.97892822 719.60791016 12.99755859 C725.00694148 16.18475126 730.4405284 19.31124675 735.875 22.4375 C738.05994368 23.69653156 740.24483925 24.95564661 742.4296875 26.21484375 C744.05729004 27.15239502 744.05729004 27.15239502 745.71777344 28.10888672 C751.14659942 31.23680148 756.57319281 34.36858448 762 37.5 C764.16665583 38.75001879 766.3333225 40.00001878 768.5 41.25 C798.83333333 58.75 829.16666667 76.25 859.5 93.75 C860.57266113 94.36883057 861.64532227 94.98766113 862.75048828 95.62524414 C864.91557071 96.87435518 867.08060982 98.12354129 869.24560547 99.37280273 C874.68615706 102.51202309 880.12747216 105.64990563 885.5703125 108.78515625 C890.96570337 111.89325729 896.35739721 115.00770827 901.74804688 118.12402344 C905.10451311 120.0602912 908.46617908 121.98732764 911.828125 123.9140625 C914.01056726 125.17161369 916.19286438 126.4294168 918.375 127.6875 C919.38578613 128.2637915 920.39657227 128.84008301 921.43798828 129.43383789 C922.37368652 129.97516357 923.30938477 130.51648926 924.2734375 131.07421875 C925.09247559 131.54432373 925.91151367 132.01442871 926.75537109 132.4987793 C929.15380995 134.10286898 931.0299369 135.89985969 933 138 C917.00385584 165.24257999 893.18437676 178.72600167 866.4475708 193.90118408 C860.24031985 197.42656662 854.05585292 200.99105869 847.875 204.5625 C846.81104004 205.17697998 845.74708008 205.79145996 844.65087891 206.42456055 C842.50640646 207.6632315 840.36203766 208.90208192 838.21777344 210.14111328 C832.81329355 213.26324605 827.40652588 216.38141204 822 219.5 C819.8333225 220.74998122 817.66665583 221.99998121 815.5 223.25 C776.50000001 245.75 776.50000001 245.75 773.24951172 247.62524414 C771.08442929 248.87435518 768.91939018 250.12354129 766.75439453 251.37280273 C761.31384294 254.51202309 755.87252784 257.64990563 750.4296875 260.78515625 C739.97793801 266.80747329 729.53700452 272.84669337 719.125 278.9375 C709.85500223 284.35921178 700.54168248 289.70204915 691.21154785 295.01922607 C682.0871716 300.22045129 672.99867226 305.48027878 663.93310547 310.78344727 C653.40915375 316.93766742 642.84619863 323.02369996 632.28222656 329.10888672 C626.85340058 332.23680148 621.42680719 335.36858448 616 338.5 C613.83334417 339.75001879 611.6666775 341.00001878 609.5 342.25 C608.4275 342.86875 607.355 343.4875 606.25 344.125 C523.375 391.9375 523.375 391.9375 440.5 439.75 C439.42685547 440.3694751 438.35371094 440.9889502 437.24804688 441.62719727 C435.08912556 442.87201728 432.92897455 444.11470713 430.76757812 445.35522461 C425.22020658 448.54278715 419.70148615 451.76873874 414.21875 455.06640625 C402.12868837 462.28986865 390.7047157 468.54502966 377 472 C376.0203125 472.2475 375.040625 472.495 374.03125 472.75 C371.68889555 473.27052321 369.37625779 473.67326455 367 474 C366.278125 474.10957031 365.55625 474.21914062 364.8125 474.33203125 C337.9704697 477.73262631 311.28801759 472.66622188 288.125 458.75 C286.00073729 457.49224351 283.87570548 456.2357853 281.75 454.98046875 C280.6465625 454.32739746 279.543125 453.67432617 278.40625 453.00146484 C272.67656634 449.63478289 266.90028216 446.35004065 261.125 443.0625 C258.75485785 441.71155159 256.38515826 440.35982857 254.015625 439.0078125 C253.43041077 438.67394028 252.84519653 438.34006805 252.24224854 437.99607849 C242.8806295 432.65203145 233.55115237 427.25204168 224.21777344 421.85888672 C218.81329355 418.73675395 213.40652588 415.61858796 208 412.5 C205.8333225 411.25001878 203.66665583 410.00001879 201.5 408.75 C200.4275 408.13125 199.355 407.5125 198.25 406.875 C186.33333333 400 174.41666667 393.125 162.5 386.25 C161.42733887 385.63116943 160.35467773 385.01233887 159.24951172 384.37475586 C157.08442929 383.12564482 154.91939018 381.87645871 152.75439453 380.62719727 C147.31384294 377.48797691 141.87252784 374.35009437 136.4296875 371.21484375 C125.97793801 365.19252671 115.53700452 359.15330663 105.125 353.0625 C96.44737759 347.98724877 87.73394432 342.97741233 79 338 C69.27884383 332.4599827 59.59105342 326.86625191 49.93310547 321.21655273 C39.40915375 315.06233258 28.84619863 308.97630004 18.28222656 302.89111328 C12.85340058 299.76319852 7.42680719 296.63141552 2 293.5 C-0.16665583 292.24998121 -2.3333225 290.99998122 -4.5 289.75 C-52.16666667 262.25 -99.83333333 234.75 -147.5 207.25 C-148.57354736 206.63068604 -149.64709473 206.01137207 -150.75317383 205.37329102 C-152.90940213 204.12923208 -155.06549049 202.88493058 -157.22143555 201.64038086 C-162.79665505 198.42243214 -168.37457123 195.20927698 -173.95703125 192.00390625 C-180.31403323 188.35196373 -186.66196922 184.68476834 -193 181 C-193.7312207 180.57605957 -194.46244141 180.15211914 -195.21582031 179.71533203 C-213.3391211 169.14879217 -226.31950304 155.82719987 -237 138 C-234.22262654 135.01114732 -231.56071009 132.98949092 -227.984375 131.0390625 C-226.9931665 130.49258057 -226.00195801 129.94609863 -224.98071289 129.38305664 C-223.91457764 128.80289795 -222.84844238 128.22273926 -221.75 127.625 C-219.47166234 126.36768476 -217.19434262 125.10852346 -214.91796875 123.84765625 C-214.33844955 123.52721848 -213.75893036 123.2067807 -213.16184998 122.87663269 C-207.4118589 119.69025847 -201.73201056 116.389351 -196.0625 113.0625 C-194.07168508 111.89571304 -192.080799 110.7290475 -190.08984375 109.5625 C-189.0932373 108.97855469 -188.09663086 108.39460937 -187.06982422 107.79296875 C-181.7667275 104.69562962 -176.44605065 101.62886142 -171.125 98.5625 C-170.04484619 97.93996338 -168.96469238 97.31742676 -167.85180664 96.67602539 C-165.66203666 95.41423174 -163.47217645 94.15259466 -161.28222656 92.89111328 C-155.85340058 89.76319852 -150.42680719 86.63141552 -145 83.5 C-142.83334417 82.24998121 -140.6666775 80.99998122 -138.5 79.75 C-137.4275 79.13125 -136.355 78.5125 -135.25 77.875 C-106 61 -76.75 44.125 -47.5 27.25 C-46.42556641 26.63012207 -45.35113281 26.01024414 -44.24414062 25.37158203 C-42.09704864 24.13289998 -39.94991386 22.8942921 -37.80273438 21.65576172 C-32.70411191 18.7146665 -27.60594704 15.77278587 -22.50927734 12.82830811 C-20.08952335 11.43041399 -17.66952737 10.03293911 -15.24951172 8.63549805 C-13.53198948 7.64347676 -11.81481948 6.65084571 -10.09765625 5.65820312 C-8.54884766 4.76391602 -8.54884766 4.76391602 -6.96875 3.8515625 C-5.59879883 3.05999756 -5.59879883 3.05999756 -4.20117188 2.25244141 C-2.82011309 1.46663489 -1.42121505 0.71060752 0 0 Z " fill="#004482" transform="translate(252,876)"/>
<path d="M0 0 C1.61841797 0.42732422 1.61841797 0.42732422 3.26953125 0.86328125 C30.21818079 8.55805288 55.95477139 22.54754356 77 41 C77.83660156 41.72703125 78.67320312 42.4540625 79.53515625 43.203125 C95.35164053 57.18616829 109.70079006 73.42923707 120 92 C120 92.66 120 93.32 120 94 C119.2879541 94.40613525 118.5759082 94.81227051 117.84228516 95.23071289 C96.55168255 107.37755837 75.28411855 119.56253657 54.125 131.9375 C44.85494485 137.35911495 35.5416835 142.70204857 26.21154785 148.01922607 C17.0871716 153.22045129 7.99867226 158.48027878 -1.06689453 163.78344727 C-11.59084625 169.93766742 -22.15380137 176.02369996 -32.71777344 182.10888672 C-38.14659942 185.23680148 -43.57319281 188.36858448 -49 191.5 C-51.16665583 192.75001879 -53.3333225 194.00001878 -55.5 195.25 C-56.5725 195.86875 -57.645 196.4875 -58.75 197.125 C-96.66666667 219 -134.58333333 240.875 -172.5 262.75 C-174.11092529 263.67945435 -174.11092529 263.67945435 -175.75439453 264.62768555 C-177.90623914 265.86903475 -180.05825548 267.11008629 -182.21044922 268.35083008 C-187.25552062 271.25980003 -192.29888421 274.17160523 -197.33599854 277.09432983 C-199.11680001 278.1274294 -200.89815858 279.15956171 -202.6796875 280.19140625 C-204.91257083 281.48506088 -207.1444091 282.78052164 -209.375 284.078125 C-214.83882404 287.24102569 -220.31511068 290.25298514 -226 293 C-250.87811755 256.46026484 -259.14154542 203.75923812 -250.97265625 160.6484375 C-250.65298467 159.09801383 -250.32862612 157.54855041 -250 156 C-249.74259033 154.7320459 -249.74259033 154.7320459 -249.47998047 153.43847656 C-238.45010613 99.95492145 -206.34052287 54.7350425 -161.23828125 24.46240234 C-113.57494482 -6.67889185 -54.64677888 -14.65859125 0 0 Z " fill="#659AD2" transform="translate(653,482)"/>
<path d="M0 0 C2.09087947 1.1935375 4.18607748 2.37953606 6.28515625 3.55859375 C8.54499912 4.85028918 10.80408292 6.14331331 13.0625 7.4375 C14.2921337 8.1412318 15.52178909 8.84492568 16.75146484 9.54858398 C28.11088594 16.05195756 39.44893155 22.59233639 50.78222656 29.14111328 C56.18670645 32.26324605 61.59347412 35.38141204 67 38.5 C69.1666775 39.74998122 71.33334417 40.99998121 73.5 42.25 C75.10875 43.178125 75.10875 43.178125 76.75 44.125 C88.66666667 51 100.58333333 57.875 112.5 64.75 C113.57427246 65.36963623 114.64854492 65.98927246 115.75537109 66.62768555 C117.90461202 67.86790591 120.05338156 69.10894354 122.20166016 70.35083008 C127.27218969 73.28070058 132.34709468 76.20204561 137.43914795 79.09432983 C139.84149946 80.45953665 142.24115891 81.82943671 144.640625 83.19970703 C146.33333218 84.16376858 148.02990354 85.12103533 149.7265625 86.078125 C150.75265625 86.66464844 151.77875 87.25117187 152.8359375 87.85546875 C153.73876465 88.36746826 154.6415918 88.87946777 155.57177734 89.40698242 C158.06021571 91.03950407 159.97793069 92.8257604 162 95 C135.40310618 140.14867754 91.603914 174.74484735 40.58081055 188.03710938 C11.52025675 195.18750333 -19.55860111 196.96697811 -49 191 C-49.85029785 190.83371094 -50.7005957 190.66742187 -51.57666016 190.49609375 C-71.10764277 186.58047073 -89.55726188 179.59487082 -107 170 C-107.62036133 169.65888184 -108.24072266 169.31776367 -108.87988281 168.96630859 C-123.79583176 160.63959451 -137.2206807 150.361167 -149.47070312 138.47802734 C-150.97122304 137.02781222 -152.49159414 135.60121583 -154.015625 134.17578125 C-166.03856066 122.75124562 -175.7434521 109.34294575 -184 95 C-181.60030318 92.34434213 -179.03555811 90.72001447 -175.93359375 88.953125 C-174.90427734 88.36337891 -173.87496094 87.77363281 -172.81445312 87.16601562 C-171.70005859 86.53373047 -170.58566406 85.90144531 -169.4375 85.25 C-168.26598539 84.58058653 -167.09476624 83.91065574 -165.92382812 83.24023438 C-163.49056166 81.84760003 -161.05603768 80.45720253 -158.62060547 79.06835938 C-153.06842407 75.89970234 -147.53519338 72.69820559 -142 69.5 C-139.83342291 68.24984475 -137.66675593 66.99984527 -135.5 65.75 C-134.4275 65.13125 -133.355 64.5125 -132.25 63.875 C-111.66666667 52 -91.08333333 40.125 -70.5 28.25 C-69.4265332 27.63068604 -68.35306641 27.01137207 -67.24707031 26.37329102 C-65.09019097 25.12895002 -62.93329008 23.88464636 -60.77636719 22.64038086 C-56.36951054 20.09814295 -51.96273298 17.55576942 -47.55664062 15.01220703 C-46.98264023 14.68087265 -46.40863983 14.34953827 -45.81724548 14.00816345 C-44.09013825 13.01084332 -42.36354868 12.0126269 -40.63696289 11.0144043 C-38.40789736 9.72979542 -36.17538767 8.45114139 -33.93920898 7.17895508 C-29.41274175 4.59801668 -24.94009575 2.02306361 -20.64453125 -0.9296875 C-20.02223633 -1.340979 -19.39994141 -1.75227051 -18.75878906 -2.17602539 C-17.22353065 -3.20461317 -15.72082545 -4.28138465 -14.22265625 -5.36328125 C-8.63220233 -6.46781942 -4.6458213 -2.88478201 0 0 Z " fill="#004482" transform="translate(611,681)"/>
<path d="M0 0 C14.52 0 29.04 0 44 0 C44 14.52 44 29.04 44 44 C58.85 44 73.7 44 89 44 C89 58.85 89 73.7 89 89 C74.15 89 59.3 89 44 89 C44 103.52 44 118.04 44 133 C29.48 133 14.96 133 0 133 C0 118.48 0 103.96 0 89 C-14.85 89 -29.7 89 -45 89 C-45 74.15 -45 59.3 -45 44 C-30.15 44 -15.3 44 0 44 C0 29.48 0 14.96 0 0 Z " fill="#FCFDFE" transform="translate(1078,609)"/>
<path d="M0 0 C14.85 0 29.7 0 45 0 C45 14.85 45 29.7 45 45 C59.52 45 74.04 45 89 45 C89 59.52 89 74.04 89 89 C74.15 89 59.3 89 44 89 C44 103.85 44 118.7 44 134 C29.48 134 14.96 134 0 134 C0 119.15 0 104.3 0 89 C-14.52 89 -29.04 89 -44 89 C-44 74.48 -44 59.96 -44 45 C-29.48 45 -14.96 45 0 45 C0 30.15 0 15.3 0 0 Z " fill="#FDFEFE" transform="translate(911,608)"/>
</svg>
