<?xml version="1.0" encoding="UTF-8"?>
<svg version="1.1" xmlns="http://www.w3.org/2000/svg" width="1200" height="1350">
<path d="M0 0 C0.64582031 0.19835449 1.29164063 0.39670898 1.95703125 0.60107422 C21.91382829 6.88506567 39.96911077 18.60022664 57.86572266 29.15869141 C63.18400933 32.28305019 68.52969481 35.35966918 73.875 38.4375 C74.95483154 39.05979492 76.03466309 39.68208984 77.1472168 40.32324219 C79.33728778 41.58532251 81.52747353 42.84720372 83.71777344 44.10888672 C89.14659946 47.23680151 94.57316556 50.36863163 100 53.5 C101.07378906 54.11939453 102.14757812 54.73878906 103.25390625 55.37695312 C108.64687516 58.48778333 114.03906364 61.59995149 119.4296875 64.71484375 C131.23629484 71.53502637 143.06027 78.3232326 154.90472412 85.07736206 C163.94471708 90.23416608 172.94525321 95.45543769 181.92675781 100.71337891 C189.54905778 105.16916344 197.20531311 109.56397146 204.875 113.9375 C217.20025196 120.96603507 229.49722067 128.04240434 241.78222656 135.14111328 C247.18670645 138.26324605 252.59347412 141.38141204 258 144.5 C260.1666775 145.74998122 262.33334417 146.99998121 264.5 148.25 C266.10875 149.178125 266.10875 149.178125 267.75 150.125 C277.5 155.75 277.5 155.75 280.74951172 157.62475586 C282.91776264 158.8756448 285.08605697 160.12645852 287.25439453 161.37719727 C292.64717915 164.48798335 298.03922093 167.60004238 303.4296875 170.71484375 C315.23629484 177.53502637 327.06027 184.3232326 338.90472412 191.07736206 C347.94471708 196.23416608 356.94525321 201.45543769 365.92675781 206.71337891 C373.54905778 211.16916344 381.20531311 215.56397146 388.875 219.9375 C401.20025196 226.96603507 413.49722067 234.04240434 425.78222656 241.14111328 C431.18670641 244.26324603 436.59344718 247.38145881 442 250.5 C448.47766885 254.23636915 454.95489983 257.97348347 461.4296875 261.71484375 C462.49268066 262.32875977 463.55567383 262.94267578 464.65087891 263.57519531 C466.79680013 264.81471425 468.94230953 266.05494643 471.08740234 267.29589844 C476.80663081 270.59972877 482.54010817 273.87548288 488.296875 277.11328125 C521.28161185 295.6867095 550.52956035 315.89978999 561.91916943 353.99221325 C565.57472743 367.12083219 566.44632213 380.01603955 566.43237305 393.5690918 C566.44143201 395.39136139 566.45176215 397.21362502 566.46323109 399.03588104 C566.49086078 404.02948366 566.50009729 409.02297218 566.506073 414.01664138 C566.51579867 419.49911627 566.54242615 424.98151644 566.56652832 430.46394348 C566.6115417 441.36611461 566.63979276 452.26827098 566.66219127 463.17050964 C566.68090545 472.14657142 566.70575167 481.12259785 566.73452759 490.09863281 C566.85793515 528.857125 566.93224616 567.61561428 566.98874806 606.37425684 C566.99761422 612.43499349 567.00689343 618.49572941 567.01635742 624.55646515 C567.0943819 674.60268184 567.14929756 724.64887667 567.17572152 774.69514785 C567.18271262 787.90290549 567.19317989 801.11065581 567.2060921 814.31840891 C567.2228244 831.49866577 567.23230459 848.67890399 567.22995079 865.85916954 C567.22895086 874.23628768 567.23093709 882.61337612 567.24183655 890.99048805 C567.25094098 898.00161513 567.25313314 905.01270207 567.24644699 912.02383262 C567.24326528 915.56029007 567.24305033 919.09667033 567.251881 922.63311994 C567.27781492 935.36399 567.19490588 948.02882582 566.12153625 960.72131348 C566.00759593 962.07264885 566.00759593 962.07264885 565.89135379 963.45128393 C563.50198994 988.26363101 553.20259644 1010.05591233 536 1028 C535.31421875 1028.74894531 534.6284375 1029.49789063 533.921875 1030.26953125 C521.24986056 1043.66901319 504.64681265 1052.01970484 488.77441406 1060.99493408 C484.05604032 1063.66752146 479.35020367 1066.36220611 474.64215088 1069.05291748 C472.86977081 1070.06548746 471.09679252 1071.07700368 469.32373047 1072.08837891 C461.85741309 1076.34982999 454.41902087 1080.65676606 447 1085 C438.40477328 1090.0318069 429.7768787 1095.00389072 421.125 1099.9375 C412.02920013 1105.12442426 402.94287737 1110.32681506 393.875 1115.5625 C392.80894531 1116.17802734 391.74289062 1116.79355469 390.64453125 1117.42773438 C387.42942477 1119.28470194 384.21464622 1121.14223579 381 1123 C367.05155632 1131.06089304 353.08996112 1139.09709426 339.09527588 1147.07736206 C331.03736788 1151.67394223 323.00582214 1156.3132416 315 1161 C306.40477328 1166.0318069 297.7768787 1171.00389072 289.125 1175.9375 C276.79974804 1182.96603507 264.50277933 1190.04240434 252.21777344 1197.14111328 C246.81329355 1200.26324605 241.40652588 1203.38141204 236 1206.5 C233.8333225 1207.74998122 231.66665583 1208.99998121 229.5 1210.25 C225.16666667 1212.75 220.83333333 1215.25 216.5 1217.75 C215.42766113 1218.36866943 214.35532227 1218.98733887 213.25048828 1219.62475586 C211.08223736 1220.8756448 208.91394303 1222.12645852 206.74560547 1223.37719727 C201.35282085 1226.48798335 195.96077907 1229.60004238 190.5703125 1232.71484375 C178.76370516 1239.53502637 166.93973 1246.3232326 155.09527588 1253.07736206 C147.03736788 1257.67394223 139.00582214 1262.3132416 131 1267 C122.40477328 1272.0318069 113.7768787 1277.00389072 105.125 1281.9375 C96.02919951 1287.12442461 86.94294489 1292.32693116 77.875 1297.5625 C76.28679443 1298.47926514 76.28679443 1298.47926514 74.66650391 1299.41455078 C69.18449878 1302.58016867 63.70477514 1305.74969907 58.2265625 1308.921875 C51.8248582 1312.62707863 45.41486251 1316.31763253 39 1320 C37.7001416 1320.74902588 37.7001416 1320.74902588 36.37402344 1321.51318359 C4.27861883 1339.95874473 -27.98541367 1348.37736291 -64.6484375 1339.07421875 C-80.53344164 1334.25261153 -95.78474117 1326.31332185 -109.8359375 1317.55859375 C-115.28768553 1314.17015227 -120.87134269 1311.00798418 -126.4375 1307.8125 C-134.97433392 1302.90202421 -143.4979252 1297.97042202 -152 1293 C-163.54994558 1286.25103287 -175.13486053 1279.56364922 -186.7265625 1272.88671875 C-189.9647516 1271.0203162 -193.20139438 1269.15126237 -196.4375 1267.28125 C-208.24117161 1260.46178895 -220.06279326 1253.67532854 -231.90472412 1246.92263794 C-240.94471708 1241.76583392 -249.94525321 1236.54456231 -258.92675781 1231.28662109 C-267.13915175 1226.48588404 -275.39261375 1221.75859742 -283.65625 1217.046875 C-293.19053205 1211.61066155 -302.70382204 1206.13904894 -312.20605469 1200.64697266 C-319.57221837 1196.3926282 -326.95412189 1192.16650945 -334.34375 1187.953125 C-343.5896173 1182.68135856 -352.81481392 1177.3770493 -362 1172 C-370.55549411 1166.99254896 -379.14024245 1162.03845141 -387.75 1157.125 C-388.62489075 1156.62567963 -388.62489075 1156.62567963 -389.51745605 1156.11627197 C-393.67741229 1153.74261615 -397.83857123 1151.371073 -402 1149 C-406.75082192 1146.29310624 -411.50111834 1143.58529654 -416.25 1140.875 C-417.12537415 1140.37543793 -417.12537415 1140.37543793 -418.01843262 1139.86578369 C-427.01978768 1134.72647333 -435.9821319 1129.52288709 -444.92724609 1124.28637695 C-453.13943329 1119.48564601 -461.39277179 1114.75850731 -469.65625 1110.046875 C-479.19053205 1104.61066155 -488.70382204 1099.13904894 -498.20605469 1093.64697266 C-505.57303491 1089.3921566 -512.9557676 1085.16559059 -520.34622192 1080.95175171 C-530.77231775 1075.00683612 -541.17169072 1069.01874191 -551.52661133 1062.95043945 C-556.11300825 1060.2629555 -560.70556523 1057.58973596 -565.328125 1054.96484375 C-578.01217153 1047.75256209 -589.34517565 1040.04746466 -600 1030 C-600.75023437 1029.32582031 -601.50046875 1028.65164063 -602.2734375 1027.95703125 C-619.67539256 1011.68467678 -631.08784949 985.57451258 -632.0940337 961.77588115 C-632.13162491 959.18210156 -632.13840046 956.58995264 -632.13422108 953.99590015 C-632.13657331 952.99936307 -632.13892554 952.00282599 -632.14134905 950.97609082 C-632.14801986 947.62807729 -632.1475814 944.28010274 -632.14717102 940.93208313 C-632.15047085 938.51078758 -632.15419667 936.08949258 -632.1583125 933.66819829 C-632.16727685 927.70576022 -632.17155802 921.74333467 -632.17383147 915.78089163 C-632.17679751 908.63796406 -632.18549738 901.49504631 -632.19424575 894.3521239 C-632.21507649 877.08632816 -632.22555845 859.82053072 -632.23437535 842.55472535 C-632.23858449 834.38242737 -632.24380618 826.21013012 -632.24905988 818.03783276 C-632.26695039 790.04960104 -632.28194459 762.0613691 -632.28938007 734.07313251 C-632.28985483 732.31641945 -632.29033072 730.55970638 -632.29080774 728.80299331 C-632.2911623 727.49626521 -632.2911623 727.49626521 -632.29152403 726.16313857 C-632.29272519 721.74962819 -632.29394065 717.3361178 -632.29516602 712.92260742 C-632.29540617 712.04674046 -632.29564632 711.1708735 -632.29589374 710.26846512 C-632.30378207 681.88745626 -632.32720413 653.50648926 -632.35972196 625.12549867 C-632.39405778 595.10282699 -632.41373476 565.08017978 -632.41702431 535.05748814 C-632.41744183 531.7583845 -632.41792139 528.45928086 -632.41844749 525.16017723 C-632.41857069 524.34787556 -632.41869388 523.53557389 -632.4188208 522.69865702 C-632.42114832 509.65276157 -632.43678336 496.6069149 -632.45728934 483.56103681 C-632.4775949 470.43381875 -632.48300237 457.30665899 -632.47351871 444.17942814 C-632.46832186 436.3917235 -632.47409469 428.60421358 -632.49605338 420.81653716 C-632.51124834 414.98410107 -632.50525532 409.1518335 -632.49138286 403.31940117 C-632.48901337 400.9726988 -632.49329576 398.62597737 -632.50521151 396.27930406 C-632.64180318 367.58271249 -627.26610746 339.39684992 -608 317 C-607.29875 316.17757813 -606.5975 315.35515625 -605.875 314.5078125 C-591.88625385 298.5276129 -574.91405867 288.8035179 -556.53125 278.63671875 C-550.32383707 275.1974516 -544.18378807 271.65237882 -538.0625 268.0625 C-526.49642186 261.28421818 -514.89003513 254.57798935 -503.2734375 247.88671875 C-500.0352484 246.0203162 -496.79860562 244.15126237 -493.5625 242.28125 C-481.75882839 235.46178895 -469.93720674 228.67532854 -458.09527588 221.92263794 C-450.03736697 217.32605725 -442.00587227 212.68667368 -434 208 C-425.44450589 202.99254896 -416.85975755 198.03845141 -408.25 193.125 C-407.6667395 192.79211975 -407.083479 192.4592395 -406.48254395 192.11627197 C-401.72563102 189.40199484 -396.96709282 186.69057169 -392.20849609 183.97924805 C-388.05491026 181.61248568 -383.90195739 179.24461806 -379.75 176.875 C-379.16641724 176.54195862 -378.58283447 176.20891724 -377.98156738 175.86578369 C-368.98021232 170.72647333 -360.0178681 165.52288709 -351.07275391 160.28637695 C-342.2704834 155.14069148 -333.41972696 150.08142327 -324.5625 145.03125 C-316.69462595 140.54444263 -308.84174598 136.03235242 -301 131.5 C-291.97469154 126.28357514 -282.93072197 121.10085025 -273.875 115.9375 C-265.22304141 111.00403266 -256.59522495 106.03180587 -248 101 C-239.40477328 95.9681931 -230.7768787 90.99610928 -222.125 86.0625 C-209.79974804 79.03396493 -197.50277933 71.95759566 -185.21777344 64.85888672 C-180.89777709 62.36325301 -176.57628677 59.87021344 -172.25463867 57.37744141 C-170.08536803 56.12609558 -167.91625985 54.87446808 -165.74731445 53.62255859 C-160.34606454 50.5051893 -154.94278115 47.39145551 -149.53515625 44.28515625 C-147.37745469 43.04453077 -145.21990271 41.80364511 -143.0625 40.5625 C-141.99475342 39.94850342 -140.92700684 39.33450684 -139.8269043 38.7019043 C-134.24906531 35.48480696 -128.69364984 32.23428278 -123.171875 28.921875 C-85.08655958 6.07684563 -45.51261555 -14.55634598 0 0 Z " fill="#390091" transform="translate(632,4)"/>
<path d="M0 0 C3.38066425 -0.00217515 6.76099517 -0.02036147 10.14160156 -0.03930664 C29.00556982 -0.088759 47.6370499 1.10241337 66.29003906 3.99780273 C67.41176514 4.16957031 68.53349121 4.34133789 69.68920898 4.51831055 C116.89190841 11.9234348 162.37062878 26.02400938 204.81738281 48.10180664 C207.13263075 49.29769471 209.46092233 50.46588807 211.79003906 51.63452148 C243.82084388 67.86394489 273.20571649 89.26073056 299.91503906 113.18530273 C300.71554687 113.89904053 300.71554687 113.89904053 301.53222656 114.62719727 C308.66517381 121.01269326 315.50664584 127.68091904 322.29003906 134.43530273 C323.03938721 135.17997803 323.78873535 135.92465332 324.56079102 136.69189453 C329.21708358 141.36168209 333.62082246 146.18261269 337.91503906 151.18530273 C338.84065838 152.2334724 339.76765947 153.2804241 340.69628906 154.32592773 C356.33105064 172.12006069 369.88354254 191.61029683 382.60253906 211.56030273 C383.13258545 212.38796143 383.66263184 213.21562012 384.20874023 214.06835938 C384.93540894 215.2206604 384.93540894 215.2206604 385.67675781 216.39624023 C386.10947998 217.07992676 386.54220215 217.76361328 386.98803711 218.46801758 C387.91503906 220.18530273 387.91503906 220.18530273 387.91503906 222.18530273 C387.28339844 222.53608887 386.65175781 222.886875 386.00097656 223.24829102 C373.30786814 230.30586049 360.67539844 237.4467451 348.14697266 244.79345703 C340.47406338 249.28851446 332.7654298 253.71877667 325.04003906 258.12280273 C315.94406553 263.30941971 306.85791392 268.51211925 297.79003906 273.74780273 C296.19095703 274.67109375 296.19095703 274.67109375 294.55957031 275.61303711 C291.34446383 277.47000467 288.12968529 279.32753853 284.91503906 281.18530273 C272.14747049 288.56376065 259.37409429 295.93097432 246.56433105 303.2359314 C236.94885149 308.71959937 227.35155478 314.23287669 217.79003906 319.81030273 C216.36087158 320.64380249 216.36087158 320.64380249 214.90283203 321.49414062 C213.99678223 322.02386475 213.09073242 322.55358887 212.15722656 323.09936523 C211.28807617 323.60628906 210.41892578 324.11321289 209.5234375 324.63549805 C207.72149265 325.70614068 205.93374543 326.80091415 204.15820312 327.91479492 C202.8351416 328.74092285 202.8351416 328.74092285 201.48535156 329.58374023 C200.7017627 330.08309082 199.91817383 330.58244141 199.11083984 331.09692383 C196.91503906 332.18530273 196.91503906 332.18530273 192.91503906 332.18530273 C191.24566459 329.87338819 189.86573642 327.65943325 188.47753906 325.18530273 C160.32417128 277.71568507 109.92298205 244.56113853 57.22753906 230.62280273 C52.3375015 229.45149793 47.42232158 228.46687395 42.47753906 227.56030273 C41.82245361 227.4371167 41.16736816 227.31393066 40.49243164 227.18701172 C28.11368143 225.01242734 15.56338746 224.97189376 3.03369141 224.94506836 C0.31544011 224.93539315 -2.402043 224.90427673 -5.12011719 224.87280273 C-20.93739541 224.77650176 -36.11240207 226.74131532 -51.39746094 230.87280273 C-52.34983643 231.12771484 -53.30221191 231.38262695 -54.28344727 231.64526367 C-88.8215392 241.16477728 -120.38481061 258.08133144 -146.47949219 282.73217773 C-148.69227165 284.81557429 -150.9474441 286.79277875 -153.27246094 288.74780273 C-181.75487743 313.58916804 -201.01892393 352.40432488 -210.89746094 388.24780273 C-211.17565674 389.25109619 -211.45385254 390.25438965 -211.74047852 391.28808594 C-216.13712362 408.05908401 -217.60072061 424.41248783 -217.53100586 441.7175293 C-217.52250587 444.91838262 -217.55137377 448.11743684 -217.58300781 451.31811523 C-217.76989723 506.8479663 -193.24108728 561.33257524 -154.56396484 600.67993164 C-153.30160477 601.96479664 -152.05664363 603.26671732 -150.81542969 604.57202148 C-127.92859472 628.29788503 -96.35453505 646.22232387 -65.08496094 656.18530273 C-63.58835937 656.68610352 -63.58835937 656.68610352 -62.06152344 657.19702148 C-41.82942727 663.5164293 -20.47244515 666.42615323 0.66503906 666.49780273 C1.77720291 666.50173035 1.77720291 666.50173035 2.91183472 666.5057373 C18.16205458 666.51145198 32.89311451 664.89332839 47.91503906 662.18530273 C49.13151123 661.97695801 49.13151123 661.97695801 50.37255859 661.7644043 C84.93842401 655.65494394 119.7597704 637.34636556 145.91503906 614.18530273 C146.70136719 613.50725586 147.48769531 612.82920898 148.29785156 612.13061523 C165.65874505 596.89098847 179.19977064 580.27123065 191.76098633 560.95605469 C192.80187619 559.35893723 193.85757681 557.77149612 194.91503906 556.18530273 C199.1232253 557.4595963 202.66542998 559.04290087 206.42285156 561.31811523 C207.47754639 561.95120605 208.53224121 562.58429687 209.61889648 563.23657227 C210.17515717 563.57384338 210.73141785 563.9111145 211.30453491 564.25860596 C214.3113327 566.08069295 217.33030886 567.8823952 220.34863281 569.68530273 C220.97314835 570.05881866 221.59766388 570.43233459 222.24110413 570.81716919 C228.81089571 574.73744364 235.450859 578.5311968 242.10253906 582.31030273 C250.73566782 587.21981569 259.3453654 592.16559566 267.91503906 597.18530273 C276.69475803 602.32720399 285.51264884 607.39791412 294.35253906 612.43530273 C302.42745093 617.03719963 310.48537649 621.66278513 318.48291016 626.39819336 C324.78676593 630.12536926 331.13125935 633.78093498 337.47753906 637.43530273 C346.2225675 642.470938 354.95267123 647.53086326 363.66503906 652.62280273 C372.05442919 657.52577286 380.46180166 662.39315054 388.91503906 667.18530273 C387.21701336 672.15104068 384.46790693 676.35050255 381.66503906 680.74780273 C381.1385376 681.57626709 380.61203613 682.40473145 380.06958008 683.25830078 C364.94210498 706.85272898 347.84986104 728.55081958 328.91503906 749.18530273 C328.38088379 749.76989258 327.84672852 750.35448242 327.29638672 750.95678711 C314.89916124 764.5009528 314.89916124 764.5009528 308.69238281 769.65795898 C306.71150558 771.36020733 304.91966799 773.18467469 303.10253906 775.06030273 C298.85826015 779.35383827 294.26302768 783.10438218 289.54882812 786.86791992 C287.76860156 788.30338055 286.00906111 789.76187975 284.25097656 791.22436523 C275.43511147 798.53029422 266.37877922 805.3377843 256.93066406 811.80493164 C255.0647645 813.08276548 253.20830311 814.37329007 251.35253906 815.66577148 C212.61765195 842.35849953 169.70771991 860.50568709 124.91503906 874.18530273 C123.88572266 874.50370117 122.85640625 874.82209961 121.79589844 875.15014648 C88.47856104 885.34022713 52.4295142 890.26656457 17.65332031 890.38842773 C16.34260056 890.39412781 15.0318808 890.39982788 13.68144226 890.40570068 C10.92263415 890.41609585 8.16385412 890.42201099 5.4050293 890.42553711 C2.64317367 890.42988776 -0.11836357 890.44366974 -2.88012695 890.46655273 C-27.60106507 890.66708092 -51.78206036 888.92918834 -76.08496094 884.18530273 C-77.23738281 883.99581055 -78.38980469 883.80631836 -79.57714844 883.61108398 C-154.92953621 870.89030454 -229.09024891 834.74634873 -286.08496094 784.18530273 C-287.50111645 782.95554718 -288.91769963 781.72628371 -290.33496094 780.49780273 C-291.5858287 779.39461922 -292.83569294 778.29029753 -294.08496094 777.18530273 C-294.79209229 776.56300781 -295.49922363 775.94071289 -296.2277832 775.29956055 C-302.44887108 769.76999055 -308.41087781 764.01487396 -314.28149414 758.11914062 C-315.77801019 756.61723349 -317.27984393 755.12079211 -318.78222656 753.62475586 C-324.0932974 748.31767646 -329.22964236 742.91686521 -334.08496094 737.18530273 C-334.97354909 736.16382976 -335.86282885 735.14295784 -336.75292969 734.12280273 C-343.92803809 725.75740503 -350.60126527 717.09516831 -357.08496094 708.18530273 C-357.62491699 707.44989258 -358.16487305 706.71448242 -358.72119141 705.95678711 C-384.97900792 670.04682724 -404.56328705 630.25155684 -419.00463867 588.27612305 C-420.03392066 585.33132983 -421.1159119 582.41121132 -422.20996094 579.48999023 C-424.04941928 574.45851722 -425.41930587 569.39565757 -426.64746094 564.18530273 C-427.04331868 562.53916163 -427.44046287 560.89332937 -427.83886719 559.24780273 C-428.13784912 558.00667725 -428.13784912 558.00667725 -428.44287109 556.74047852 C-429.10647698 554.09968032 -429.83923832 551.48481074 -430.58105469 548.86499023 C-432.26585314 542.74060008 -433.45516755 536.55782076 -434.58496094 530.31030273 C-434.79999268 529.12774902 -435.01502441 527.94519531 -435.23657227 526.72680664 C-440.13635124 499.4067152 -442.49154368 472.32708466 -442.39746094 444.56030273 C-442.39563812 443.4312149 -442.39381531 442.30212708 -442.39193726 441.13882446 C-442.34280991 422.97466843 -441.62688257 405.19202762 -439.08496094 387.18530273 C-438.91335449 385.92637207 -438.74174805 384.66744141 -438.56494141 383.37036133 C-430.84798412 327.95860819 -412.70342737 274.80843845 -385.08496094 226.18530273 C-384.65183594 225.41847168 -384.21871094 224.65164063 -383.77246094 223.86157227 C-371.21341902 201.72135501 -356.57086607 180.58552732 -340.08496094 161.18530273 C-339.17732518 160.10334168 -338.26977839 159.02130597 -337.36230469 157.93920898 C-324.61309691 142.82216941 -311.15244331 127.72776707 -296.06933594 114.88842773 C-293.7387497 112.8881608 -291.4780202 110.81863945 -289.20996094 108.74780273 C-240.77294991 65.19826119 -178.96343293 32.3299845 -116.0625 15.98266602 C-112.76858277 15.10057896 -109.50132979 14.14201528 -106.22949219 13.18139648 C-99.27989089 11.18786456 -92.29879623 9.59749598 -85.20996094 8.18530273 C-83.93564209 7.93111572 -82.66132324 7.67692871 -81.34838867 7.41503906 C-71.66145289 5.52817036 -61.93999777 4.08684755 -52.14746094 2.87280273 C-50.86436035 2.71360352 -49.58125977 2.5544043 -48.25927734 2.39038086 C-32.13882388 0.49164279 -16.21514217 -0.00116254 0 0 Z " fill="#FEFEFE" transform="translate(599.0849609375,227.814697265625)"/>
<path d="M0 0 C0.64582031 0.19835449 1.29164063 0.39670898 1.95703125 0.60107422 C21.91382829 6.88506567 39.96911077 18.60022664 57.86572266 29.15869141 C63.18400933 32.28305019 68.52969481 35.35966918 73.875 38.4375 C74.95483154 39.05979492 76.03466309 39.68208984 77.1472168 40.32324219 C79.33728778 41.58532251 81.52747353 42.84720372 83.71777344 44.10888672 C89.14659946 47.23680151 94.57316556 50.36863163 100 53.5 C101.07378906 54.11939453 102.14757812 54.73878906 103.25390625 55.37695312 C108.64687516 58.48778333 114.03906364 61.59995149 119.4296875 64.71484375 C131.23629484 71.53502637 143.06027 78.3232326 154.90472412 85.07736206 C163.94471708 90.23416608 172.94525321 95.45543769 181.92675781 100.71337891 C189.54905778 105.16916344 197.20531311 109.56397146 204.875 113.9375 C217.20025196 120.96603507 229.49722067 128.04240434 241.78222656 135.14111328 C247.18670645 138.26324605 252.59347412 141.38141204 258 144.5 C260.1666775 145.74998122 262.33334417 146.99998121 264.5 148.25 C266.10875 149.178125 266.10875 149.178125 267.75 150.125 C277.5 155.75 277.5 155.75 280.74951172 157.62475586 C282.91776264 158.8756448 285.08605697 160.12645852 287.25439453 161.37719727 C292.64717915 164.48798335 298.03922093 167.60004238 303.4296875 170.71484375 C315.23629484 177.53502637 327.06027 184.3232326 338.90472412 191.07736206 C347.94471708 196.23416608 356.94525321 201.45543769 365.92675781 206.71337891 C373.54905778 211.16916344 381.20531311 215.56397146 388.875 219.9375 C401.20025196 226.96603507 413.49722067 234.04240434 425.78222656 241.14111328 C431.18670641 244.26324603 436.59344718 247.38145881 442 250.5 C448.47766885 254.23636915 454.95489983 257.97348347 461.4296875 261.71484375 C462.49268066 262.32875977 463.55567383 262.94267578 464.65087891 263.57519531 C466.79680013 264.81471425 468.94230953 266.05494643 471.08740234 267.29589844 C476.80663081 270.59972877 482.54010817 273.87548288 488.296875 277.11328125 C540.11726559 306.29290791 540.11726559 306.29290791 552 332 C530.09825383 344.80837051 508.13605397 357.50848627 486.0958252 370.0770874 C478.03773079 374.67375438 470.00599909 379.313138 462 384 C453.40477328 389.0318069 444.7768787 394.00389072 436.125 398.9375 C423.81742812 405.95595292 411.53794474 413.02191786 399.27050781 420.11035156 C393.59802013 423.38782653 387.92419528 426.66298241 382.25 429.9375 C381.16525391 430.56350098 380.08050781 431.18950195 378.96289062 431.83447266 C371.32004847 436.2431684 363.66843646 440.63596253 356 445 C353.13975173 442.29904104 350.96545932 439.63146665 348.8984375 436.2890625 C348.33092773 435.3808374 347.76341797 434.4726123 347.17871094 433.53686523 C346.58348633 432.57594971 345.98826172 431.61503418 345.375 430.625 C339.86386249 421.85136632 334.19604 413.30248809 328 405 C327.59861816 404.46117187 327.19723633 403.92234375 326.78369141 403.3671875 C320.50486621 394.97221171 313.84460539 386.93761989 307 379 C306.38511719 378.28328125 305.77023437 377.5665625 305.13671875 376.828125 C303.44133265 374.86973151 301.72590996 372.9315503 300 371 C299.24976563 370.15695312 298.49953125 369.31390625 297.7265625 368.4453125 C292.08495703 362.19380374 286.25621593 356.1525962 280.3125 350.1875 C279.61205566 349.48246338 278.91161133 348.77742676 278.18994141 348.05102539 C273.62228285 343.49679165 268.89284607 339.20063498 264 335 C262.90534931 334.03878518 261.81155284 333.07659638 260.71875 332.11328125 C252.1368518 324.61651141 243.21972895 317.69258207 234 311 C233.32066406 310.505 232.64132812 310.01 231.94140625 309.5 C209.29400169 293.06029612 185.26208404 279.03674652 160 267 C159.2776416 266.65404785 158.5552832 266.3080957 157.81103516 265.95166016 C144.20669022 259.49010361 130.230207 254.1940062 116.06152344 249.10717773 C114.117148 248.40400847 112.17707191 247.68874195 110.24316406 246.95727539 C102.90311122 244.1956913 95.45373311 242.06781004 87.875 240.0625 C87.22880707 239.89047058 86.58261414 239.71844116 85.9168396 239.54119873 C73.05270721 236.12846289 60.09206797 233.39395148 47 231 C46.04561035 230.82178711 45.0912207 230.64357422 44.10791016 230.45996094 C21.04032301 226.18570746 -2.31308213 224.64944012 -25.7434082 224.73925781 C-29.06414991 224.75000534 -32.38435229 224.7392678 -35.70507812 224.7265625 C-49.58153315 224.71720021 -63.20998254 225.48909715 -77 227 C-78.34665058 227.13780281 -79.69340357 227.27461054 -81.0402832 227.41015625 C-110.27583698 230.46705711 -139.13323989 236.61273721 -167 246 C-167.84868652 246.28198242 -168.69737305 246.56396484 -169.57177734 246.85449219 C-175.41763125 248.80644874 -181.21927332 250.86323746 -187 253 C-187.77279297 253.28391602 -188.54558594 253.56783203 -189.34179688 253.86035156 C-226.5822161 267.70454764 -262.90878313 287.31039131 -294.27294922 311.66992188 C-296.87930598 313.67719239 -299.53727626 315.61370445 -302.1875 317.5625 C-312.27342414 325.13036438 -321.69417602 333.50212353 -331 342 C-331.94488281 342.85207031 -332.88976562 343.70414062 -333.86328125 344.58203125 C-343.00408932 352.84965632 -352.07411879 361.31444359 -360.05859375 370.72265625 C-361.61231955 372.54523601 -363.18829953 374.33674539 -364.78515625 376.12109375 C-373.82731105 386.28753764 -381.97828599 397.01812928 -390 408 C-390.5244873 408.70850098 -391.04897461 409.41700195 -391.58935547 410.14697266 C-400.99456288 422.8637435 -409.04184415 436.34369455 -417 450 C-417.47179687 450.80018555 -417.94359375 451.60037109 -418.4296875 452.42480469 C-441.95478673 492.43529542 -459.1752312 539.05376102 -466.64208984 584.86425781 C-467.05336899 587.3184665 -467.50519172 589.76387665 -467.95703125 592.2109375 C-472.56427561 617.63658356 -474.2783772 642.57908693 -474.3125 668.375 C-474.31608521 669.45922241 -474.31967041 670.54344482 -474.32336426 671.66052246 C-474.3633088 694.11530685 -472.81701368 716.22262817 -469.125 738.375 C-468.85599409 740.02690314 -468.58719797 741.67884046 -468.31860352 743.33081055 C-465.68039894 759.41344175 -462.56928161 775.11246539 -457.71826172 790.68798828 C-457.1724235 792.44498623 -456.63364834 794.20418024 -456.09814453 795.96435547 C-446.09341741 828.79221314 -432.38337004 859.38309794 -417 890 C-427.8671875 896.26953125 -438.734375 902.5390625 -449.6015625 908.80859375 C-451.18807617 909.72390869 -451.18807617 909.72390869 -452.80664062 910.65771484 C-454.95373278 911.8963966 -457.10086893 913.13500212 -459.24804688 914.37353516 C-464.64294709 917.48554245 -470.03710588 920.59882023 -475.4296875 923.71484375 C-487.23629484 930.53502637 -499.06027 937.3232326 -510.90472412 944.07736206 C-518.96263212 948.67394223 -526.99417786 953.3132416 -535 958 C-543.5952284 963.03180788 -552.2231965 968.00375695 -560.875 972.9375 C-579.98686619 983.83757339 -599.06619838 994.79266617 -618 1006 C-628.97252371 992.84599531 -632.16067392 970.41461142 -632.13422108 953.99590015 C-632.13657331 952.99936307 -632.13892554 952.00282599 -632.14134905 950.97609082 C-632.14801986 947.62807729 -632.1475814 944.28010274 -632.14717102 940.93208313 C-632.15047085 938.51078758 -632.15419667 936.08949258 -632.1583125 933.66819829 C-632.16727685 927.70576022 -632.17155802 921.74333467 -632.17383147 915.78089163 C-632.17679751 908.63796406 -632.18549738 901.49504631 -632.19424575 894.3521239 C-632.21507649 877.08632816 -632.22555845 859.82053072 -632.23437535 842.55472535 C-632.23858449 834.38242737 -632.24380618 826.21013012 -632.24905988 818.03783276 C-632.26695039 790.04960104 -632.28194459 762.0613691 -632.28938007 734.07313251 C-632.28985483 732.31641945 -632.29033072 730.55970638 -632.29080774 728.80299331 C-632.2911623 727.49626521 -632.2911623 727.49626521 -632.29152403 726.16313857 C-632.29272519 721.74962819 -632.29394065 717.3361178 -632.29516602 712.92260742 C-632.29540617 712.04674046 -632.29564632 711.1708735 -632.29589374 710.26846512 C-632.30378207 681.88745626 -632.32720413 653.50648926 -632.35972196 625.12549867 C-632.39405778 595.10282699 -632.41373476 565.08017978 -632.41702431 535.05748814 C-632.41744183 531.7583845 -632.41792139 528.45928086 -632.41844749 525.16017723 C-632.41857069 524.34787556 -632.41869388 523.53557389 -632.4188208 522.69865702 C-632.42114832 509.65276157 -632.43678336 496.6069149 -632.45728934 483.56103681 C-632.4775949 470.43381875 -632.48300237 457.30665899 -632.47351871 444.17942814 C-632.46832186 436.3917235 -632.47409469 428.60421358 -632.49605338 420.81653716 C-632.51124834 414.98410107 -632.50525532 409.1518335 -632.49138286 403.31940117 C-632.48901337 400.9726988 -632.49329576 398.62597737 -632.50521151 396.27930406 C-632.64180318 367.58271249 -627.26610746 339.39684992 -608 317 C-607.29875 316.17757813 -606.5975 315.35515625 -605.875 314.5078125 C-591.88625385 298.5276129 -574.91405867 288.8035179 -556.53125 278.63671875 C-550.32383707 275.1974516 -544.18378807 271.65237882 -538.0625 268.0625 C-526.49642186 261.28421818 -514.89003513 254.57798935 -503.2734375 247.88671875 C-500.0352484 246.0203162 -496.79860562 244.15126237 -493.5625 242.28125 C-481.75882839 235.46178895 -469.93720674 228.67532854 -458.09527588 221.92263794 C-450.03736697 217.32605725 -442.00587227 212.68667368 -434 208 C-425.44450589 202.99254896 -416.85975755 198.03845141 -408.25 193.125 C-407.6667395 192.79211975 -407.083479 192.4592395 -406.48254395 192.11627197 C-401.72563102 189.40199484 -396.96709282 186.69057169 -392.20849609 183.97924805 C-388.05491026 181.61248568 -383.90195739 179.24461806 -379.75 176.875 C-379.16641724 176.54195862 -378.58283447 176.20891724 -377.98156738 175.86578369 C-368.98021232 170.72647333 -360.0178681 165.52288709 -351.07275391 160.28637695 C-342.2704834 155.14069148 -333.41972696 150.08142327 -324.5625 145.03125 C-316.69462595 140.54444263 -308.84174598 136.03235242 -301 131.5 C-291.97469154 126.28357514 -282.93072197 121.10085025 -273.875 115.9375 C-265.22304141 111.00403266 -256.59522495 106.03180587 -248 101 C-239.40477328 95.9681931 -230.7768787 90.99610928 -222.125 86.0625 C-209.79974804 79.03396493 -197.50277933 71.95759566 -185.21777344 64.85888672 C-180.89777709 62.36325301 -176.57628677 59.87021344 -172.25463867 57.37744141 C-170.08536803 56.12609558 -167.91625985 54.87446808 -165.74731445 53.62255859 C-160.34606454 50.5051893 -154.94278115 47.39145551 -149.53515625 44.28515625 C-147.37745469 43.04453077 -145.21990271 41.80364511 -143.0625 40.5625 C-141.99475342 39.94850342 -140.92700684 39.33450684 -139.8269043 38.7019043 C-134.24906531 35.48480696 -128.69364984 32.23428278 -123.171875 28.921875 C-85.08655958 6.07684563 -45.51261555 -14.55634598 0 0 Z " fill="#A179DC" transform="translate(632,4)"/>
<path d="M0 0 C1.66336636 2.49352351 3.12397294 4.94253598 4.5625 7.5625 C5.46016371 9.13994789 6.36127761 10.71543682 7.265625 12.2890625 C7.72259766 13.08473633 8.17957031 13.88041016 8.65039062 14.70019531 C18.21997177 31.00726015 29.78668421 46.60497105 42 61 C42.85885807 62.0318991 43.71689233 63.06448427 44.57421875 64.09765625 C54.41586456 75.91296063 64.89856336 86.98396646 75.75 97.875 C76.6373584 98.76703125 77.5247168 99.6590625 78.43896484 100.578125 C83.46573326 105.59265825 88.59523245 110.39687519 94 115 C95.44632812 116.2684375 95.44632812 116.2684375 96.921875 117.5625 C117.33278134 135.15422038 139.6560402 150.56511271 163 164 C163.63276855 164.3697998 164.26553711 164.73959961 164.91748047 165.12060547 C188.22715967 178.7050163 212.71153421 189.68612005 238 199 C238.75909668 199.28166016 239.51819336 199.56332031 240.30029297 199.85351562 C251.08448451 203.80603236 262.24322384 206.49530495 273.36181641 209.31982422 C275.61662906 209.90115941 277.86252372 210.50369312 280.10546875 211.12890625 C307.83915983 218.84111042 337.30188759 223.14239319 366.08203125 223.16796875 C367.42608167 223.17119696 368.77013176 223.17456208 370.11418152 223.17805481 C372.92207652 223.18400393 375.72994096 223.18589942 378.5378418 223.18530273 C381.36798567 223.185222 384.19796588 223.19208651 387.02807617 223.20581055 C403.77897039 223.28574495 420.34595426 222.99797254 437 221 C438.269646 220.85393311 439.53929199 220.70786621 440.84741211 220.55737305 C468.17868272 217.21368503 494.80560409 211.46548839 521 203 C522.18625977 202.61827637 523.37251953 202.23655273 524.59472656 201.84326172 C564.8953676 188.74098719 603.14962832 170.14362242 638 146 C638.58442871 145.59571777 639.16885742 145.19143555 639.77099609 144.77490234 C659.05432302 131.36850008 677.84199495 116.47032206 694.2890625 99.67578125 C696.12390068 97.87864522 698.04201275 96.22416351 700 94.5625 C703.43623197 91.60297074 706.36541449 88.41326348 709.29296875 84.95703125 C710.91260807 83.10019075 712.60123291 81.39602508 714.375 79.6875 C718.10772535 76.01296859 721.35386926 72.00513992 724.6328125 67.92578125 C726.93897396 65.07542658 729.30794096 62.28915527 731.6875 59.5 C744.53061225 44.07236052 755.84719404 27.44349311 766.26171875 10.296875 C767.18404297 8.78867187 767.18404297 8.78867187 768.125 7.25 C768.87136719 5.98929688 768.87136719 5.98929688 769.6328125 4.703125 C770.08398438 4.14109375 770.53515625 3.5790625 771 3 C774.59761961 3 776.0490109 3.94713669 779.1640625 5.7109375 C780.71009155 6.58105469 780.71009155 6.58105469 782.28735352 7.46875 C783.38877686 8.0978125 784.4902002 8.726875 785.625 9.375 C786.75929443 10.01695312 787.89358887 10.65890625 789.06225586 11.3203125 C797.32927721 16.01181926 805.53788282 20.79588748 813.71191406 25.64697266 C831.05889516 35.90486523 848.53683971 45.94184151 866 56 C879.6741218 63.87580724 893.33736974 71.76855846 906.96142578 79.73071289 C913.20241852 83.37547313 919.45445036 87.00038195 925.71704102 90.60791016 C927.89064705 91.86063915 930.06302982 93.11549322 932.23413086 94.37255859 C937.78159481 97.58290235 943.34487216 100.75869022 948.94140625 103.8828125 C950.05322266 104.51123047 951.16503906 105.13964844 952.31054688 105.78710938 C954.43320671 106.98676277 956.56317705 108.17359768 958.70117188 109.34570312 C959.64669922 109.88388672 960.59222656 110.42207031 961.56640625 110.9765625 C962.81852905 111.67386475 962.81852905 111.67386475 964.09594727 112.38525391 C966 114 966 114 966.86108398 116.51367188 C967.21245478 122.80252976 960.32610765 129.35832723 956.32275391 133.90478516 C941.41525055 150.11859495 923.79932709 160.23707951 904.77441406 170.99493408 C900.05604032 173.66752146 895.35020367 176.36220611 890.64215088 179.05291748 C888.86977081 180.06548746 887.09679252 181.07700368 885.32373047 182.08837891 C877.85741309 186.34982999 870.41902087 190.65676606 863 195 C854.40477328 200.0318069 845.7768787 205.00389072 837.125 209.9375 C828.02920013 215.12442426 818.94287737 220.32681506 809.875 225.5625 C808.80894531 226.17802734 807.74289062 226.79355469 806.64453125 227.42773438 C803.42942477 229.28470194 800.21464622 231.14223579 797 233 C783.05155632 241.06089304 769.08996112 249.09709426 755.09527588 257.07736206 C747.03736788 261.67394223 739.00582214 266.3132416 731 271 C722.40477328 276.0318069 713.7768787 281.00389072 705.125 285.9375 C692.79974804 292.96603507 680.50277933 300.04240434 668.21777344 307.14111328 C662.81329355 310.26324605 657.40652588 313.38141204 652 316.5 C649.8333225 317.74998122 647.66665583 318.99998121 645.5 320.25 C641.16666667 322.75 636.83333333 325.25 632.5 327.75 C631.42766113 328.36866943 630.35532227 328.98733887 629.25048828 329.62475586 C627.08223736 330.8756448 624.91394303 332.12645852 622.74560547 333.37719727 C617.35282085 336.48798335 611.96077907 339.60004238 606.5703125 342.71484375 C594.76370516 349.53502637 582.93973 356.3232326 571.09527588 363.07736206 C563.03736788 367.67394223 555.00582214 372.3132416 547 377 C538.40477328 382.0318069 529.7768787 387.00389072 521.125 391.9375 C512.02919951 397.12442461 502.94294489 402.32693116 493.875 407.5625 C492.28679443 408.47926514 492.28679443 408.47926514 490.66650391 409.41455078 C485.18449878 412.58016867 479.70477514 415.74969907 474.2265625 418.921875 C467.8248582 422.62707863 461.41486251 426.31763253 455 430 C454.13342773 430.49935059 453.26685547 430.99870117 452.37402344 431.51318359 C420.27861883 449.95874473 388.01458633 458.37736291 351.3515625 449.07421875 C335.46655836 444.25261153 320.21525883 436.31332185 306.1640625 427.55859375 C300.71231447 424.17015227 295.12865731 421.00798418 289.5625 417.8125 C281.02566608 412.90202421 272.5020748 407.97042202 264 403 C252.45005442 396.25103287 240.86513947 389.56364922 229.2734375 382.88671875 C226.0352484 381.0203162 222.79860562 379.15126237 219.5625 377.28125 C207.75882839 370.46178895 195.93720674 363.67532854 184.09527588 356.92263794 C175.05528292 351.76583392 166.05474679 346.54456231 157.07324219 341.28662109 C148.86084825 336.48588404 140.60738625 331.75859742 132.34375 327.046875 C122.80946795 321.61066155 113.29617796 316.13904894 103.79394531 310.64697266 C96.42778163 306.3926282 89.04587811 302.16650945 81.65625 297.953125 C72.4103827 292.68135856 63.18518608 287.3770493 54 282 C45.44450589 276.99254896 36.85975755 272.03845141 28.25 267.125 C27.37510925 266.62567963 27.37510925 266.62567963 26.48254395 266.11627197 C22.32258771 263.74261615 18.16142877 261.371073 14 259 C9.24917808 256.29310624 4.49888166 253.58529654 -0.25 250.875 C-0.83358276 250.54195862 -1.41716553 250.20891724 -2.01843262 249.86578369 C-11.01978768 244.72647333 -19.9821319 239.52288709 -28.92724609 234.28637695 C-37.13943329 229.48564601 -45.39277179 224.75850731 -53.65625 220.046875 C-63.19053205 214.61066155 -72.70382204 209.13904894 -82.20605469 203.64697266 C-89.57303491 199.3921566 -96.9557676 195.16559059 -104.34622192 190.95175171 C-114.77231775 185.00683612 -125.17169072 179.01874191 -135.52661133 172.95043945 C-140.11300825 170.2629555 -144.70556523 167.58973596 -149.328125 164.96484375 C-162.0119801 157.75267094 -173.34578286 150.04787958 -184 140 C-184.76183594 139.31421875 -185.52367187 138.6284375 -186.30859375 137.921875 C-190.95771644 133.57087629 -194.64760444 128.92930543 -198.125 123.625 C-198.5279126 123.01760986 -198.9308252 122.41021973 -199.34594727 121.78442383 C-200.4453125 120.0390625 -200.4453125 120.0390625 -202 117 C-200.68287581 113.04862744 -199.21535213 112.73120842 -195.59375 110.77734375 C-194.46638428 110.16181641 -193.33901855 109.54628906 -192.17749023 108.91210938 C-191.57766327 108.59008545 -190.9778363 108.26806152 -190.35983276 107.9362793 C-187.23105905 106.25604521 -184.11900279 104.54525642 -181.00390625 102.83984375 C-180.08038109 102.33606705 -180.08038109 102.33606705 -179.13819885 101.82211304 C-174.51898907 99.29899664 -169.9576886 96.69569503 -165.4375 94 C-158.55061001 89.90599768 -151.62815071 85.87726554 -144.6875 81.875 C-143.03633179 80.92282593 -143.03633179 80.92282593 -141.35180664 79.95141602 C-132.61392699 74.91857329 -123.8572115 69.91914816 -115.0977478 64.92401123 C-107.03901259 60.32697775 -99.00663618 55.68723496 -91 51 C-82.40476978 45.96819105 -73.77671875 40.99639342 -65.125 36.0625 C-55.94911112 30.82844174 -46.77818717 25.58622229 -37.625 20.3125 C-36.56676025 19.70341797 -35.50852051 19.09433594 -34.41821289 18.46679688 C-29.11784954 15.40787258 -23.83926493 12.31751132 -18.58984375 9.171875 C-17.57390137 8.56432373 -16.55795898 7.95677246 -15.51123047 7.33081055 C-13.59126861 6.17943749 -11.67473005 5.0223303 -9.76220703 3.85864258 C-8.48966064 3.0952356 -8.48966064 3.0952356 -7.19140625 2.31640625 C-6.08067749 1.64266968 -6.08067749 1.64266968 -4.94750977 0.95532227 C-3 0 -3 0 0 0 Z " fill="#280068" transform="translate(216,894)"/>
<path d="M0 0 C2.67600616 0.0237031 5.35101381 0.02051157 8.02709961 0.01391602 C44.59435951 0.07362228 79.40032735 8.92264343 111.61108398 26.33618164 C112.20969238 26.65554688 112.80830078 26.97491211 113.42504883 27.30395508 C146.11014008 44.85359524 177.74253225 73.49328022 195.61108398 106.33618164 C195.61108398 106.99618164 195.61108398 107.65618164 195.61108398 108.33618164 C196.27108398 108.66618164 196.93108398 108.99618164 197.61108398 109.33618164 C196.97944336 109.68696777 196.34780273 110.03775391 195.69702148 110.39916992 C183.00391306 117.45673939 170.37144336 124.59762401 157.84301758 131.94433594 C150.1701083 136.43939337 142.46147472 140.86965558 134.73608398 145.27368164 C122.41059616 152.30180065 110.11386043 159.37858765 97.82885742 166.47729492 C91.33983302 170.22596198 84.84771449 173.96926831 78.35620117 177.71362305 C72.96360084 180.82436503 67.57170576 183.93631491 62.18139648 187.05102539 C48.53852128 194.93217405 34.87297528 202.77242185 21.18920898 210.58227539 C20.1133252 211.19635254 19.03744141 211.81042969 17.92895508 212.44311523 C15.64058731 213.74878144 13.35184951 215.05378319 11.06274414 216.3581543 C3.84453635 220.4736418 -3.34585467 224.63386798 -10.51391602 228.83618164 C-19.44115031 234.05798663 -28.40305878 239.21622149 -37.38891602 244.33618164 C-46.08294602 249.28994677 -54.75388859 254.2799655 -63.38891602 259.33618164 C-71.98408892 264.36807954 -80.61203824 269.34007288 -89.26391602 274.27368164 C-98.35971589 279.4606059 -107.44603865 284.6629967 -116.51391602 289.89868164 C-118.11299805 290.82197266 -118.11299805 290.82197266 -119.74438477 291.76391602 C-122.95949125 293.62088358 -126.17426979 295.47841743 -129.38891602 297.33618164 C-135.81498746 301.04984861 -142.24199535 304.76182997 -148.67407227 308.46508789 C-152.82748177 310.85640738 -156.9755132 313.25661306 -161.11846924 315.66596985 C-163.68688631 317.15790207 -166.25867044 318.64396317 -168.83111572 320.12893677 C-170.06674573 320.84393117 -171.3009493 321.56139704 -172.53363037 322.28146362 C-174.24853334 323.28277788 -175.96901112 324.27452579 -177.68969727 325.26586914 C-178.67107666 325.83547363 -179.65245605 326.40507813 -180.66357422 326.99194336 C-183.29067104 328.28772362 -185.50320103 328.92144843 -188.38891602 329.33618164 C-196.61869171 313.6645875 -203.74647452 297.45649757 -208.38891602 280.33618164 C-208.89358398 278.49733398 -208.89358398 278.49733398 -209.40844727 276.62133789 C-214.01813169 259.34513523 -215.90668665 242.75263049 -215.83496094 224.87939453 C-215.82647153 221.66967042 -215.85530182 218.46174632 -215.88696289 215.25219727 C-216.08651645 156.51740158 -188.95127046 102.6597599 -148.38891602 61.33618164 C-145.81533654 58.87289843 -143.13993303 56.59707493 -140.38891602 54.33618164 C-139.59227539 53.62848633 -138.79563477 52.92079102 -137.97485352 52.19165039 C-109.77018429 27.60194581 -74.10736222 10.41315827 -37.38891602 3.33618164 C-36.43077499 3.14936325 -36.43077499 3.14936325 -35.45327759 2.95877075 C-23.58692636 0.70202956 -12.06927418 -0.11374648 0 0 Z " fill="#A179DB" transform="translate(596.388916015625,451.663818359375)"/>
<path d="M0 0 C2.3581543 1.16064453 2.3581543 1.16064453 4.82421875 2.6328125 C5.75685547 3.18388672 6.68949219 3.73496094 7.65039062 4.30273438 C8.65263672 4.90408203 9.65488281 5.50542969 10.6875 6.125 C12.85764035 7.40958522 15.02822863 8.69341395 17.19921875 9.9765625 C18.32118652 10.64204102 19.4431543 11.30751953 20.59912109 11.99316406 C26.04157255 15.20471833 31.52110113 18.35116962 37 21.5 C45.34849263 26.30762947 53.68243786 31.13906035 62 36 C74.63743454 43.38414893 87.31675298 50.69490135 100 58 C113.6667247 65.87154678 127.32207971 73.76086634 140.93945312 81.7175293 C157.2401656 91.23569285 173.59439728 100.66372063 190 110 C188.49232679 116.03069286 185.17626282 120.51366374 181.625 125.5 C180.67898926 126.83393799 180.67898926 126.83393799 179.71386719 128.19482422 C165.92320259 147.40944674 149.32071902 165.26116469 130 179 C129.01990967 179.70600342 129.01990967 179.70600342 128.02001953 180.42626953 C109.50983301 193.64037732 89.48972757 203.63101646 68 211 C66.82308594 211.40734375 65.64617187 211.8146875 64.43359375 212.234375 C28.91152116 223.79349749 -9.50424854 225.40541039 -46 218 C-47.19399414 217.76772705 -47.19399414 217.76772705 -48.41210938 217.53076172 C-53.33678443 216.55640116 -58.17071407 215.3690188 -63 214 C-63.7645752 213.78569336 -64.52915039 213.57138672 -65.31689453 213.35058594 C-87.68286346 206.90653398 -109.06772174 196.52988573 -128 183 C-129.05703125 182.25363281 -130.1140625 181.50726562 -131.203125 180.73828125 C-149.37490361 167.4900081 -165.66053922 152.11964279 -179 134 C-179.44359863 133.40123047 -179.88719727 132.80246094 -180.34423828 132.18554688 C-195 112.31872961 -195 112.31872961 -195 108 C-194.45923828 107.7097998 -193.91847656 107.41959961 -193.36132812 107.12060547 C-181.57997495 100.78306699 -169.92330165 94.27191756 -158.38867188 87.49560547 C-150.62584962 82.93749278 -142.8224286 78.45459825 -135 74 C-126.30565348 69.04679962 -117.63501876 64.05621107 -109 59 C-100.4048271 53.9681021 -91.77687778 48.99610876 -83.125 44.0625 C-70.82026426 37.0456644 -58.54378083 29.9810612 -46.27929688 22.89404297 C-42.85903194 20.91858024 -39.43754365 18.94525228 -36.015625 16.97265625 C-34.85042131 16.30086587 -33.68521947 15.62907228 -32.52001953 14.95727539 C-30.33880563 13.69977562 -28.15749843 12.44243765 -25.97607422 11.18530273 C-24.97592285 10.60852783 -23.97577148 10.03175293 -22.9453125 9.4375 C-21.96981445 8.87933594 -20.99431641 8.32117188 -19.98925781 7.74609375 C-17.89126259 6.52060683 -15.81389595 5.25944301 -13.75292969 3.97265625 C-12.69750977 3.32167969 -11.64208984 2.67070313 -10.5546875 2 C-9.60835449 1.401875 -8.66202148 0.80375 -7.68701172 0.1875 C-4.48348578 -1.22826869 -3.27191248 -1.13587731 0 0 Z " fill="#280068" transform="translate(604,673)"/>
<path d="M0 0 C10.56 0 21.12 0 32 0 C32 20.79 32 41.58 32 63 C52.46 63 72.92 63 94 63 C94 42.21 94 21.42 94 0 C104.56 0 115.12 0 126 0 C126 20.79 126 41.58 126 63 C146.79 63 167.58 63 189 63 C189 73.56 189 84.12 189 95 C168.21 95 147.42 95 126 95 C126 115.79 126 136.58 126 158 C146.79 158 167.58 158 189 158 C189 168.56 189 179.12 189 190 C168.21 190 147.42 190 126 190 C126 210.79 126 231.58 126 253 C115.77 253 105.54 253 95 253 C95 231.88 95 210.76 95 189 C73.88 189 52.76 189 31 189 C31 210.12 31 231.24 31 253 C20.77 253 10.54 253 0 253 C0 232.21 0 211.42 0 190 C-21.12 190 -42.24 190 -64 190 C-64 179.44 -64 168.88 -64 158 C-42.88 158 -21.76 158 0 158 C0 137.21 0 116.42 0 95 C-21.12 95 -42.24 95 -64 95 C-64 84.44 -64 73.88 -64 63 C-42.88 63 -21.76 63 0 63 C0 42.21 0 21.42 0 0 Z " fill="#FCFCFD" transform="translate(915,545)"/>
<path d="M0 0 C20.79 0 41.58 0 63 0 C63 20.79 63 41.58 63 63 C42.21 63 21.42 63 0 63 C0 42.21 0 21.42 0 0 Z " fill="#3A0191" transform="translate(946,640)"/>
</svg>
