<?xml version="1.0" encoding="UTF-8"?>
<svg version="1.1" xmlns="http://www.w3.org/2000/svg" width="2048" height="2048">
<path d="M0 0 C6.72130736 5.54714728 12.79600544 11.77448174 18.93666472 17.94588252 C20.41568898 19.4211629 21.89536739 20.89578771 23.37563329 22.36982226 C27.42547291 26.40638057 31.46600321 30.45214411 35.5050127 34.49953516 C39.90691265 38.90725839 44.31750227 43.30627241 48.72696587 47.70642664 C56.44874868 55.41431192 64.16499342 63.12770038 71.87747302 70.84489318 C80.14860228 79.12103131 88.42298305 87.3938983 96.70130458 95.66284247 C97.22515011 96.18609952 97.74899563 96.70935657 98.28871527 97.2484699 C100.42244474 99.37978269 102.55619591 101.51107375 104.68997495 103.64233692 C126.32573084 125.25261578 147.9517478 146.8726211 169.57381852 168.49659163 C172.55922511 171.48225786 175.54464218 174.46791361 178.53007021 177.45355841 C179.12308002 178.04661226 179.71608983 178.63966611 180.32706964 179.25069129 C193.47963053 192.40411626 206.63502005 205.55471064 219.79095474 218.70476103 C222.79653397 221.70899929 225.80209267 224.71325809 228.80765381 227.71751445 C230.0139405 228.92327661 231.22022721 230.12903874 232.42651396 231.33480083 C233.02445581 231.9324829 233.62239765 232.53016496 234.23845895 233.14595861 C235.44794897 234.35492244 236.65743973 235.56388553 237.86693124 236.77284788 C272.17691537 271.06783936 306.48379001 305.3659388 340.78391661 339.67078944 C341.73624241 340.62324403 341.73624241 340.62324403 342.7078071 341.59494013 C349.7871617 348.67525409 356.86647688 355.75560748 363.9457805 362.83597241 C365.8833252 364.77380663 367.82086992 366.71164083 369.75841468 368.64947499 C371.05117469 369.94242901 372.34393396 371.23538378 373.63669248 372.52833929 C414.52159123 413.41945467 455.41701609 454.30001433 496.32135119 495.17168685 C506.62948884 505.47160107 516.93758981 515.77155198 527.24547973 526.07171413 C527.88020312 526.70596133 528.51492652 527.34020853 529.16888396 527.99367535 C548.73468901 547.54489181 568.29742015 567.09917973 587.8569776 586.65664645 C588.47115199 587.27075452 589.08532637 587.88486259 589.7181121 588.51757999 C603.20123428 601.99930805 616.68360362 615.48178878 630.16528233 628.96496031 C634.9893062 633.78950628 639.81338254 638.61399978 644.63748301 643.43846916 C645.83755767 644.63863704 647.03762937 645.83880788 648.2376981 647.0389817 C667.34825976 666.15116748 686.46602908 685.25612353 705.58738426 704.35751007 C724.84666931 723.59680048 744.09779108 742.84422127 763.33791903 762.10267059 C765.99869354 764.76597876 768.65955367 767.42920138 771.32046428 770.09237357 C771.84204929 770.61440897 772.3636343 771.13644436 772.90102492 771.67429901 C781.14722979 779.92717224 789.40177085 788.1716545 797.65984812 796.41264603 C805.78737598 804.52371135 813.90566026 812.64391028 822.01498457 820.77318085 C826.34986897 825.11821686 830.68856823 829.45924182 835.03842132 833.78929691 C839.00103118 837.73403373 842.95180733 841.69024378 846.89373803 845.65564201 C848.30755256 847.0738805 849.72550139 848.48801372 851.14822209 849.89731772 C868.35436064 866.95223112 880.54111176 886.00018312 887.81378283 909.20611068 C888.11026721 910.11876693 888.40675158 911.03142318 888.71222033 911.97173568 C897.73215777 943.22894463 892.04476866 977.220836 876.81036486 1005.40484115 C868.58866855 1020.2651242 857.33351339 1031.98166542 845.41101756 1043.86614486 C843.9482091 1045.33165005 842.48583748 1046.7975914 841.02386066 1048.26392623 C837.00981577 1052.28740128 832.98959664 1056.30465661 828.96832462 1060.32090672 C824.59271396 1064.69324506 820.22289074 1069.07136124 815.85231664 1073.44873305 C808.19291294 1081.11843751 800.52982344 1088.78443952 792.8642055 1096.44793197 C784.64161274 1104.66827354 776.4211893 1112.89077538 768.20338168 1121.11590072 C767.68374118 1121.63600052 767.16410068 1122.15610033 766.6287135 1122.69196074 C764.51219226 1124.81036531 762.39568506 1126.9287839 760.27919599 1129.04722062 C738.21575058 1151.13093969 716.14523974 1173.20758827 694.07224185 1195.28175899 C691.6974135 1197.65671683 689.32258835 1200.03167787 686.94776597 1202.40664168 C686.35843234 1202.99600932 685.76909872 1203.58537695 685.1619065 1204.19260421 C672.09560604 1217.25972199 659.03108796 1230.3286212 645.96688419 1243.39783515 C640.58557832 1248.78119776 635.2042341 1254.16452206 629.8228977 1259.54785415 C629.22828823 1260.14268479 628.63367876 1260.73751544 628.02105083 1261.35037125 C593.95318082 1295.43088707 559.88311456 1329.509206 525.80846324 1363.58294173 C524.53362457 1364.85774885 523.25878594 1366.132556 521.98394736 1367.4073632 C516.22829293 1373.16287086 510.47262371 1378.91836374 504.71695033 1384.67385245 C502.15040455 1387.24031599 499.58385974 1389.80678051 497.01731503 1392.37324513 C495.732714 1393.65780537 494.44811234 1394.94236499 493.16351006 1396.22692398 C452.54119393 1436.84787956 411.92688513 1477.47682505 371.31915393 1518.11236068 C361.08710352 1528.35141325 350.8550215 1538.59043423 340.62276378 1548.82927962 C339.99270471 1549.45974444 339.36264565 1550.09020925 338.71349388 1550.73977906 C319.29168717 1570.17401745 299.86743021 1589.60580416 280.4406692 1609.03509017 C279.83066896 1609.64517031 279.22066873 1610.25525045 278.59218363 1610.88381787 C265.20063606 1624.27707205 251.80849638 1637.66973404 238.41581064 1651.0618501 C233.62359711 1655.85387067 228.83142802 1660.64593567 224.03928078 1665.43802251 C222.84714142 1666.63014604 221.65499978 1667.82226727 220.46285583 1669.01438621 C201.47631451 1688.00057505 182.49565137 1706.99262715 163.51792401 1725.98762567 C144.40219628 1745.12066167 125.28000816 1764.24721661 106.14902629 1783.36500074 C103.50348809 1786.00871444 100.85801882 1788.65249712 98.21259036 1791.29632064 C97.69403066 1791.81456016 97.17547097 1792.33279968 96.64119734 1792.86674343 C88.44203709 1801.06120407 80.24959153 1809.26234357 72.05994359 1817.46630978 C64.00006949 1825.53999318 55.93288313 1833.60629794 47.85844649 1841.66542261 C43.54234874 1845.9737446 39.22945136 1850.28514021 34.92534203 1854.60544177 C31.00472496 1858.54067886 27.07490955 1862.46648599 23.13775778 1866.38517829 C21.72876418 1867.79074749 20.32306283 1869.19962734 18.921215 1870.61232349 C-6.63851678 1896.35645343 -37.84409876 1913.11146404 -74.88152967 1913.24517318 C-115.97956496 1912.54859631 -146.37240864 1895.36733517 -174.81970105 1866.8298957 C-176.29457552 1865.35771713 -177.76988632 1863.88597558 -179.2455915 1862.41462972 C-183.29974263 1858.36991996 -187.3476612 1854.31902272 -191.39458362 1850.26708206 C-195.79841764 1845.85997861 -200.20802541 1841.4586585 -204.61689267 1837.05659135 C-212.34341648 1829.34037298 -220.06623356 1821.62046288 -227.7865437 1813.8980281 C-236.06858198 1805.61373932 -244.35277868 1797.33161795 -252.63960157 1789.05211516 C-253.16343281 1788.52874323 -253.68726405 1788.0053713 -254.22696896 1787.46613961 C-256.36054128 1785.33445061 -258.49412762 1783.20277565 -260.62773211 1781.07111884 C-282.8744828 1758.84464651 -305.11415839 1736.61110413 -327.35135827 1714.3750769 C-329.74418925 1711.98237542 -332.13702341 1709.58967714 -334.52986035 1707.19698163 C-335.12365762 1706.60321837 -335.71745489 1706.00945511 -336.32924601 1705.39769903 C-349.49226878 1692.23549345 -362.65707282 1679.0750701 -375.82219211 1665.91496156 C-381.24439775 1660.49481265 -386.66656508 1655.0746254 -392.08874021 1649.65444597 C-392.68785622 1649.05555113 -393.28697224 1648.45665629 -393.90424329 1647.83961313 C-428.23236744 1613.52413558 -462.55829387 1579.20646094 -496.87963758 1544.88420173 C-498.16382691 1543.59998084 -499.44801628 1542.31575999 -500.7322057 1541.03153919 C-506.53012235 1535.23347578 -512.32802421 1529.43539757 -518.12592191 1523.63731521 C-520.71131649 1521.05183839 -523.29671204 1518.46636254 -525.88210769 1515.8808868 C-527.17614361 1514.5868101 -528.4701789 1513.29273277 -529.76421356 1511.99865481 C-570.6851185 1471.07638931 -611.61401334 1430.16213103 -652.54949842 1389.25445052 C-662.86401076 1378.94694029 -673.17849153 1368.63939847 -683.49279676 1358.33168098 C-684.12790049 1357.69698299 -684.76300423 1357.062285 -685.41735353 1356.40835374 C-704.99334944 1336.84478874 -724.56689438 1317.27877418 -744.13793836 1297.71025535 C-745.05968295 1296.78863061 -745.05968295 1296.78863061 -746.00004865 1295.84838718 C-759.49000621 1282.36013621 -772.9793716 1268.87129316 -786.46819104 1255.38190403 C-791.29477528 1250.55512683 -796.12140396 1245.72839407 -800.94805447 1240.90168315 C-802.14878602 1239.70093578 -803.34951527 1238.50018611 -804.55024222 1237.29943415 C-823.6769525 1218.17237133 -842.80952743 1199.05118798 -861.94504615 1179.93293786 C-881.21884084 1160.67644819 -900.4861592 1141.41350271 -919.74470222 1122.14175914 C-922.4073528 1119.47728404 -925.07007236 1116.8128779 -927.73283277 1114.14851256 C-928.51576742 1113.36509765 -928.51576742 1113.36509765 -929.31451894 1112.56585616 C-937.57083407 1104.30483972 -945.83383187 1096.05054149 -954.09965149 1087.79903621 C-962.23239558 1079.68009467 -970.35776982 1071.55385302 -978.47595405 1063.42034938 C-982.81662356 1059.07189915 -987.16037921 1054.72666091 -991.51302371 1050.39019442 C-995.47644746 1046.44137329 -999.43046949 1042.48338063 -1003.37734703 1038.51802337 C-1004.7942444 1037.09769699 -1006.2144646 1035.6806752 -1007.63848368 1034.26748914 C-1018.36180362 1023.62026967 -1027.96038471 1012.47986398 -1034.93621717 998.95611068 C-1035.30053846 998.25558578 -1035.66485974 997.55506087 -1036.04022107 996.83330794 C-1050.93998217 967.20138341 -1052.97873248 932.01818872 -1042.98406873 900.53960677 C-1035.4460424 878.49295572 -1022.36562032 861.04510517 -1005.9426249 844.71642276 C-1004.93403581 843.70635034 -1003.92588603 842.69583912 -1002.91813035 841.6849352 C-1000.16533783 838.92605627 -997.40641193 836.17338553 -994.64638526 833.42174638 C-991.63818704 830.42045897 -988.63584377 827.41332367 -985.63273708 824.40694322 C-980.37468501 819.14475552 -975.11294875 813.8862747 -969.84875188 808.63023444 C-962.02116199 800.81473924 -954.19933925 792.99349113 -946.37867144 785.17107002 C-933.22144101 772.01121462 -920.05956851 758.85601136 -906.89503179 745.70346519 C-893.8630015 732.68327431 -880.83304622 719.6610126 -867.80584798 706.63598701 C-866.99545377 705.82573028 -866.18505956 705.01547355 -865.35010795 704.18066358 C-861.23443293 700.06566523 -857.11879486 695.95062993 -853.00317101 691.83558039 C-823.86221287 662.69882159 -794.71662183 633.56670114 -765.56829724 604.43731185 C-737.25344702 576.14083425 -708.94070116 547.84225378 -680.63079724 519.54082748 C-679.75795827 518.66825155 -678.8851193 517.79567563 -677.98583066 516.89665802 C-669.22031937 508.1337838 -660.4548508 499.37086686 -651.68941353 490.60791861 C-633.83366091 472.75723823 -615.97762321 454.90684304 -598.12141309 437.05662032 C-596.88994997 435.82556908 -596.88994997 435.82556908 -595.63360882 434.56964811 C-540.82258756 379.77702406 -486.00492147 324.99104789 -431.18621717 270.20611068 C-427.33678124 273.45892333 -423.54779133 276.71939776 -419.98276506 280.28651496 C-418.84368907 281.42260438 -418.84368907 281.42260438 -417.68160144 282.58164509 C-416.8693284 283.39683098 -416.05705535 284.21201687 -415.22016797 285.05190536 C-414.34030679 285.93091211 -413.46044561 286.80991886 -412.55392198 287.71556219 C-410.1279851 290.14014257 -407.70429841 292.5669323 -405.28155801 294.99470421 C-402.66247947 297.61811826 -400.04049394 300.23862416 -397.41886792 302.85949203 C-392.88233559 307.39550108 -388.34763163 311.93333129 -383.81417928 316.47241851 C-377.25963865 323.03510079 -370.70232459 329.59500615 -364.14433953 336.15424625 C-353.50342707 346.79734504 -342.86474774 357.44267311 -332.22747693 368.08941146 C-321.89694581 378.42912753 -311.5653605 388.76778838 -301.23235974 399.10503646 C-300.27629276 400.06149753 -300.27629276 400.06149753 -299.30091129 401.03728104 C-296.10323171 404.2362657 -292.90553143 407.43522968 -289.70782087 410.63418337 C-263.1974108 437.15495301 -236.69062659 463.67934415 -210.18621717 490.20611068 C-210.3875073 490.87586928 -210.58879743 491.54562789 -210.79618726 492.23568221 C-211.19602574 493.56706725 -211.19602574 493.56706725 -211.60394178 494.92534896 C-211.86710691 495.80135757 -212.13027204 496.67736617 -212.40141187 497.57992049 C-215.61782582 508.34299098 -218.80089246 519.02686245 -220.18621717 530.20611068 C-220.29707654 531.08009505 -220.40793592 531.95407943 -220.52215467 532.85454818 C-223.30833107 558.53255233 -219.2587937 585.80998339 -208.18621717 609.20611068 C-207.83962049 609.94039291 -207.49302381 610.67467513 -207.1359242 611.43120833 C-197.0135397 632.48280247 -182.91817301 651.0749861 -164.18621717 665.20611068 C-163.38699842 665.80939193 -162.58777967 666.41267318 -161.76434217 667.03423568 C-151.55018518 674.44450643 -140.66784583 679.98718856 -129.18621717 685.20611068 C-129.18621717 861.42611068 -129.18621717 1037.64611068 -129.18621717 1219.20611068 C-139.08621717 1224.15611068 -139.08621717 1224.15611068 -149.18621717 1229.20611068 C-159.79983857 1236.20815257 -169.13326298 1243.3653351 -178.18621717 1252.20611068 C-178.82559217 1252.79521224 -179.46496717 1253.3843138 -180.12371717 1253.99126693 C-206.17360246 1278.53363572 -220.1025959 1316.71336766 -221.31121717 1351.83892318 C-221.93281478 1391.54347084 -207.77847986 1429.45728608 -180.18621717 1458.20611068 C-178.53927231 1459.8922685 -176.87495595 1461.56181239 -175.18621717 1463.20611068 C-174.45048474 1463.97362655 -174.45048474 1463.97362655 -173.69988904 1464.75664779 C-169.54690271 1469.05110281 -165.2080096 1472.66789863 -160.31121717 1476.08111068 C-159.57653211 1476.59431869 -158.84184705 1477.10752669 -158.08489881 1477.63628646 C-133.21213444 1494.66299517 -104.674523 1503.65266493 -74.49871717 1503.51861068 C-72.52306775 1503.51123885 -72.52306775 1503.51123885 -70.50750623 1503.5037181 C-60.43896337 1503.38308859 -50.96804602 1502.55477583 -41.18621717 1500.20611068 C-40.11452283 1499.96465316 -40.11452283 1499.96465316 -39.0211781 1499.71831771 C-14.62247879 1494.12627764 7.49143188 1482.17417637 25.81378283 1465.20611068 C26.35631701 1464.70740462 26.89885119 1464.20869857 27.4578258 1463.69488021 C56.14007246 1437.03191757 71.80918224 1400.00570054 73.68829455 1361.13018294 C75.00854909 1321.17570037 60.01233409 1283.59284432 32.9812633 1254.5181224 C20.61898251 1241.49951374 7.53352855 1232.78051743 -8.18621717 1224.20611068 C-8.18621717 1049.63611068 -8.18621717 875.06611068 -8.18621717 695.20611068 C-4.80092017 696.89875918 -3.18499137 697.95428376 -0.61461053 700.50927516 C0.4276042 701.53811636 0.4276042 701.53811636 1.49087378 702.58774223 C2.62419513 703.72161667 2.62419513 703.72161667 3.78041186 704.87839767 C4.58899494 705.67962737 5.39757802 706.48085707 6.23066362 707.30636647 C8.94784104 710.00145842 11.65777622 712.70371584 14.36773791 715.40606185 C16.30991036 717.33677004 18.25351062 719.2660389 20.19696154 721.19546004 C26.03234429 726.99135414 31.85806587 732.7969128 37.68263143 738.60367434 C40.42517194 741.33744639 43.16869256 744.07023446 45.91208567 746.80315086 C55.02912725 755.88617944 64.14365744 764.97171702 73.25095191 774.06451961 C75.61326679 776.4230147 77.9755921 778.78149933 80.33795276 781.13994857 C80.92510417 781.7261325 81.51225558 782.31231644 82.11719947 782.91626352 C91.63884431 792.42129134 101.17740846 801.90914905 110.72314304 811.3899775 C120.52073142 821.12148743 130.3032566 830.86793289 140.0710605 840.62933972 C145.556859 846.11080323 151.04909062 851.58546733 156.55817714 857.043534 C161.24742727 861.68945626 165.92290065 866.34869997 170.58078587 871.0260763 C172.95861883 873.4130234 175.34429727 875.79041996 177.74386515 878.1556327 C180.3420851 880.71871046 182.91464432 883.3050382 185.48207202 885.89890548 C186.63212378 887.01604951 186.63212378 887.01604951 187.80540892 888.1557621 C192.80743471 893.28370067 192.80743471 893.28370067 192.83988585 897.99899264 C192.50127186 899.0573416 192.16265786 900.11569055 191.81378283 901.20611068 C191.45542346 902.40107162 191.09706408 903.59603255 190.72784533 904.82720443 C190.30059224 906.10015952 189.87080681 907.37226684 189.43878283 908.64361068 C177.51020953 945.24264241 181.52457515 985.7662585 198.69122424 1020.06841537 C204.24437325 1030.64331156 210.91425907 1040.24624815 218.81378283 1049.20611068 C219.64393908 1050.18064193 220.47409533 1051.15517318 221.32940783 1052.15923568 C228.04391242 1059.89994743 235.49429885 1066.24434742 243.81378283 1072.20611068 C244.36904651 1072.60426986 244.92431018 1073.00242904 245.49640002 1073.41265365 C261.10775429 1084.40883791 278.36258614 1091.54867777 296.81378283 1096.20611068 C297.47926135 1096.3840013 298.14473986 1096.56189193 298.8303844 1096.74517318 C318.80157918 1101.92555515 343.85173731 1101.21511 363.81378283 1096.20611068 C364.5035924 1096.03982162 365.19340197 1095.87353255 365.90411486 1095.70220443 C403.59246329 1086.38152289 435.76972231 1062.25246102 456.20831408 1029.40923568 C475.15271325 997.86980229 483.319394 956.38108775 474.34405627 920.23980208 C474.08157092 919.23312484 474.08157092 919.23312484 473.81378283 918.20611068 C473.63105822 917.47956283 473.44833361 916.75301498 473.2600719 916.00445052 C468.21988939 896.62581778 459.48896275 877.75962266 446.81378283 862.20611068 C446.35439319 861.63682845 445.89500354 861.06754623 445.42169299 860.48101302 C427.60776144 838.54916617 405.60667151 822.5278032 378.81378283 813.20611068 C378.17182971 812.98084701 377.52987658 812.75558333 376.86847033 812.52349349 C348.15087288 802.65533868 316.77833709 802.54145192 287.84503283 811.53423568 C284.57363114 812.25934018 282.99500158 812.14372032 279.81378283 811.20611068 C277.81371208 809.73850461 277.81371208 809.73850461 275.83966651 807.81077834 C274.70101337 806.712748 274.70101337 806.712748 273.53935715 805.59253522 C272.7171657 804.77983812 271.89497426 803.96714102 271.04786792 803.12981673 C269.72428933 801.84417351 269.72428933 801.84417351 268.37397178 800.53255769 C265.92634441 798.15048183 263.48795843 795.75961073 261.05330064 793.36432143 C258.96354006 791.3115118 256.8665646 789.26615104 254.76953208 787.22077455 C247.25852988 779.89432385 239.77700521 772.53807664 232.30206408 765.17486068 C231.71181413 764.59350836 231.12156417 764.01215604 230.51342785 763.41318699 C218.78777553 751.86306766 207.07522663 740.29971017 195.38584723 728.71287795 C192.81619598 726.16616232 190.24636275 723.6196305 187.67633166 721.07329818 C187.03759375 720.44042988 186.39885583 719.80756158 185.74076222 719.15551545 C175.39943228 708.91261769 164.99908047 698.73183451 154.5738312 688.57443776 C143.86429934 678.13781204 133.2144876 667.64306154 122.61895259 657.09070512 C116.67069025 651.16979147 110.69898569 645.27765997 104.65850367 639.45072433 C99.51173732 634.48577696 94.42113257 629.47082353 89.39487326 624.3837966 C86.82986707 621.79107882 84.24690181 619.22945715 81.58959689 616.73112746 C66.11885595 602.13993934 66.11885595 602.13993934 65.61151209 593.93486472 C66.31569586 587.19082987 68.37288572 581.10613426 70.86510899 574.83409663 C80.65490385 547.7147199 70.75766233 509.72424052 59.49737658 484.60064193 C41.54306241 448.4004122 10.92505179 421.85906381 -27.12371717 408.51861068 C-55.9721237 398.92107504 -87.24398739 398.52739673 -116.28777967 407.53423568 C-119.31831427 408.23673157 -120.34161478 408.26115001 -123.18621717 407.20611068 C-125.10648165 405.65844169 -125.10648165 405.65844169 -127.14546476 403.61600658 C-127.92674277 402.84070171 -128.70802078 402.06539684 -129.51297388 401.26659789 C-130.36511304 400.40572021 -131.21725219 399.54484253 -132.09521375 398.65787765 C-133.00518007 397.7504746 -133.9151464 396.84307155 -134.85268746 395.90817144 C-137.38158455 393.38599505 -139.90101108 390.85453828 -142.41902337 388.32150134 C-145.13476047 385.592831 -147.85913886 382.87281302 -150.58248792 380.15174361 C-155.30078848 375.43501751 -160.01355715 370.71282166 -164.72263227 365.98688575 C-171.53120094 359.15395494 -178.34802048 352.32930511 -185.16689415 345.5066599 C-196.22934076 334.43764442 -207.28506876 323.36194347 -218.33660779 312.28203841 C-229.07333057 301.51778632 -239.81319396 290.75668383 -250.55731092 279.99981185 C-251.21937304 279.33696156 -251.88143517 278.67411126 -252.56355978 277.99117459 C-255.88488945 274.66592986 -259.20628112 271.34074706 -262.52770362 268.01559504 C-290.09016016 240.42202907 -317.6417291 212.8176125 -345.18621717 185.20611068 C-340.94391656 180.14447361 -336.51522895 175.38664911 -331.84602246 170.71874496 C-331.12869063 169.99773644 -330.41135881 169.27672792 -329.67228965 168.53387066 C-327.28224163 166.13286209 -324.88867776 163.73539112 -322.49505506 161.33794662 C-320.77450372 159.61112483 -319.05414115 157.88411495 -317.33395276 156.1569316 C-312.18262189 150.98643675 -307.02703717 145.82019759 -301.87057281 140.65482386 C-299.92397132 138.70470819 -297.97768619 136.75427696 -296.03141763 134.80382902 C-287.43546203 126.18941547 -278.83815097 117.57635735 -270.23680864 108.96732207 C-268.136195 106.86479894 -266.03558681 104.76227036 -263.93499646 102.65972396 C-263.41298531 102.13722907 -262.89097417 101.61473418 -262.3531445 101.07640611 C-253.90825148 92.6232231 -245.47191103 84.16155853 -237.03913884 75.69628566 C-228.35775533 66.98171977 -219.66875348 58.27480818 -210.97235564 49.57522484 C-206.09936667 44.70008128 -201.22964896 39.82177009 -196.36845479 34.93486281 C-191.79020251 30.33244812 -187.20158691 25.7405319 -182.6061276 21.155297 C-180.93024227 19.47990408 -179.2577144 17.80114417 -177.5889977 16.11861106 C-159.20321391 -2.41073065 -140.40973387 -16.30064 -115.18621717 -23.79388932 C-114.49705213 -24.00561784 -113.80788709 -24.21734635 -113.09783826 -24.43549088 C-74.10578594 -35.94612715 -31.13847369 -24.99387818 0 0 Z " fill="#F05132" transform="translate(1102.1862171664834,81.79388932138681)"/>
</svg>
