<?xml version="1.0" encoding="UTF-8"?>
<svg version="1.1" xmlns="http://www.w3.org/2000/svg" width="960" height="960">
<path d="M0 0 C1.38637281 0.00222245 2.7727457 0.00439896 4.15911865 0.00653076 C23.75008054 0.04827298 43.08870953 0.36286013 62.5 3.3125 C63.93665168 3.52416023 65.3733398 3.73557315 66.81005859 3.94677734 C148.35079803 16.07325653 226.03055194 46.58922341 291.5 97.3125 C292.03898926 97.72677246 292.57797852 98.14104492 293.13330078 98.56787109 C311.50870114 112.70400221 328.46675242 128.20186633 344.875 144.5625 C345.39737244 145.0821936 345.91974487 145.60188721 346.45794678 146.1373291 C352.35767463 152.01410622 358.12240112 157.9469979 363.5 164.3125 C364.41239423 165.36880599 365.32513624 166.42481171 366.23828125 167.48046875 C423.57792235 234.73925869 461.69343084 317.04042431 480.703125 463.0546875 C480.71018463 464.32886536 480.71724426 465.60304321 480.72451782 466.91583252 C480.74404696 471.00639419 480.74920984 475.09689608 480.75 479.1875 C480.75044186 480.23313236 480.75044186 480.23313236 480.75089264 481.29988861 C480.75229161 501.78288857 480.58468411 522.01249659 477.5 542.3125 C477.28833977 543.74915168 477.07692685 545.1858398 476.86572266 546.62255859 C464.7445369 628.12973486 434.20875963 705.86178924 383.5 771.3125 C383.08572754 771.85148926 382.67145508 772.39047852 382.24462891 772.94580078 C375.28721735 781.98966305 368.04728084 790.75487367 360.5 799.3125 C359.65953125 800.26640625 358.8190625 801.2203125 357.953125 802.203125 C350.80609444 810.11137775 343.27498399 817.64154784 335.75 825.1875 C335.20638824 825.73379059 334.66277649 826.28008118 334.10269165 826.84292603 C328.08305368 832.88502999 322.0172314 838.80179804 315.5 844.3125 C314.53578125 845.158125 313.5715625 846.00375 312.578125 846.875 C302.92946281 855.19097405 292.77345829 862.78893591 282.5 870.3125 C281.7673291 870.85052246 281.0346582 871.38854492 280.27978516 871.94287109 C257.20362171 888.80683923 232.28627811 903.02189875 206.5 915.3125 C205.29537109 915.88798584 205.29537109 915.88798584 204.06640625 916.47509766 C190.6079351 922.8577523 176.92997545 928.36167849 162.92163086 933.41796875 C161.22390146 934.04509654 159.53781948 934.70424556 157.86157227 935.38671875 C150.18966486 938.39425239 141.38246713 938.28113485 133.70703125 935.41796875 C128.0306516 932.57475558 123.58019352 928.63116522 121.13273621 922.6919899 C119.66922794 917.18826955 120.08907783 911.37107703 120.11523438 905.71435547 C120.11112465 904.23016951 120.10566141 902.74598679 120.09895325 901.2618103 C120.08725355 898.0725178 120.08473526 894.88339824 120.08930969 891.69408798 C120.0961528 886.63012734 120.08018887 881.56639119 120.06091309 876.50247192 C120.02309599 865.73082674 120.01029317 854.95920132 120 844.1875 C119.98889393 832.60318854 119.97315548 821.01898204 119.92928743 809.43474114 C119.91409001 805.23612567 119.90495317 801.03768958 119.91069031 796.83904648 C119.9559077 761.69608167 118.3169385 724.30316853 92.59765625 697.31640625 C91.23453702 695.97894573 89.8677725 694.64520141 88.5 693.3125 C88.5 692.6525 88.5 691.9925 88.5 691.3125 C89.51497559 691.16216309 90.52995117 691.01182617 91.57568359 690.85693359 C155.97217231 681.26120379 222.42592424 664.69612916 263.76953125 610.078125 C294.01451003 569.00602442 305.2465807 517.54327864 306.5 467.3125 C306.52191406 466.48476074 306.54382813 465.65702148 306.56640625 464.80419922 C307.65360651 416.75900787 294.89574493 370.49745216 263.33984375 333.4765625 C262.73269531 332.76242187 262.12554688 332.04828125 261.5 331.3125 C260.90316406 330.70148438 260.30632813 330.09046875 259.69140625 329.4609375 C257.45409301 325.42643822 259.24057227 321.28827547 260.3671875 317.05078125 C260.69976563 315.92027344 261.03234375 314.78976562 261.375 313.625 C271.30102318 277.31761063 267.61694568 238.4817416 254.26733398 203.53173828 C253.5 201.3125 253.5 201.3125 253.5 199.3125 C210.05321318 197.6485805 171.64944363 217.90387638 135.546875 240.11328125 C134.67095703 240.65162598 133.79503906 241.1899707 132.89257812 241.74462891 C130.75123142 243.14786651 128.85419903 244.65797212 126.890625 246.29296875 C122.23690198 249.06482912 119.62806253 248.48955809 114.5 247.3125 C113.49098633 247.08884766 112.48197266 246.86519531 111.44238281 246.63476562 C109.11387897 246.09933787 106.78857724 245.5498589 104.46606445 244.98901367 C35.27203584 228.29853261 -42.60462454 227.06860556 -111.21557617 247.41430664 C-115.79077419 248.66548879 -119.21705398 248.48305513 -123.49316406 246.29052734 C-125.74984708 244.92177958 -127.93742499 243.47662463 -130.125 242 C-131.81540553 240.89880071 -133.50820103 239.80126316 -135.203125 238.70703125 C-136.07517578 238.14322754 -136.94722656 237.57942383 -137.84570312 236.99853516 C-169.46335277 216.914697 -208.02915338 197.26262837 -246.5 199.3125 C-247.49 199.6425 -248.48 199.9725 -249.5 200.3125 C-250.62356777 202.75917626 -251.52794742 205.08158043 -252.375 207.625 C-252.6318457 208.3768457 -252.88869141 209.12869141 -253.15332031 209.90332031 C-257.51479225 223.02000348 -260.91779349 236.56938062 -262.5 250.3125 C-262.61085938 251.24449219 -262.72171875 252.17648438 -262.8359375 253.13671875 C-265.06473884 275.21389962 -263.12672812 297.51929232 -256.5859375 318.73046875 C-256.22757813 319.91253906 -255.86921875 321.09460938 -255.5 322.3125 C-255.20867187 323.2096875 -254.91734375 324.106875 -254.6171875 325.03125 C-254.5 327.3125 -254.5 327.3125 -255.984375 329.42578125 C-256.73203125 330.15152344 -257.4796875 330.87726563 -258.25 331.625 C-286.53806748 361.27476017 -302.48745041 406.25136236 -302.703125 446.83203125 C-302.71013931 447.72018021 -302.71715363 448.60832916 -302.72438049 449.52339172 C-302.74184482 452.3906464 -302.74823762 455.257694 -302.75 458.125 C-302.75067474 459.10780945 -302.75134949 460.0906189 -302.75204468 461.10321045 C-302.68451193 523.14371791 -287.3919684 585.1292072 -242.64453125 630.234375 C-223.26703543 648.72986067 -199.46051174 661.94141447 -174.5 671.3125 C-173.31349854 671.75819336 -173.31349854 671.75819336 -172.10302734 672.21289062 C-144.05917808 682.53743589 -114.94972553 687.16202221 -85.5 691.3125 C-86.90796381 694.26635214 -88.16249017 696.09100882 -90.625 698.25 C-104.00615961 711.29732611 -112.36750234 733.06334569 -114.1875 751.5625 C-114.69650701 754.42242923 -115.01723145 755.8403288 -117.1015625 757.87890625 C-119.84252889 759.42372653 -122.49604101 760.35364702 -125.5 761.3125 C-126.26441406 761.55838867 -127.02882813 761.80427734 -127.81640625 762.05761719 C-156.19401389 771.03663884 -185.94342879 773.54049007 -213.5 760.3125 C-222.48232927 755.54208001 -230.21648513 749.39156533 -237.5 742.3125 C-238.17289063 741.70148437 -238.84578125 741.09046875 -239.5390625 740.4609375 C-247.63441173 732.88162647 -253.52717907 723.35196181 -259.5625 714.125 C-271.88945323 695.51080557 -287.50821293 680.4565608 -308.5 672.3125 C-309.33144531 671.97347656 -310.16289062 671.63445313 -311.01953125 671.28515625 C-317.31125897 669.13506977 -323.60122835 669.00928808 -330.1875 668.9375 C-331.07888672 668.92348145 -331.97027344 668.90946289 -332.88867188 668.89501953 C-339.32736398 668.94176357 -345.721189 669.533689 -350.5 674.3125 C-350.70106314 679.23854704 -349.42162976 681.88597303 -346.3125 685.6875 C-341.77791822 690.48259635 -336.5355485 693.69980787 -330.96484375 697.1328125 C-305.04139474 713.195852 -288.82074605 743.83389263 -277.53051758 771.21704102 C-272.97058702 782.19277379 -266.83042269 790.84064399 -258.5 799.3125 C-257.46939453 800.36244141 -257.46939453 800.36244141 -256.41796875 801.43359375 C-231.64729971 825.00938821 -195.08105072 828.15476913 -162.70761108 827.5380249 C-152.65055849 827.27101702 -142.67808121 826.0803273 -132.71948242 824.70141602 C-127.98964306 824.13004769 -123.24581103 823.72713523 -118.5 823.3125 C-118.36732004 831.7467967 -118.23681787 840.18112347 -118.10884857 848.61549282 C-118.04931817 852.53493804 -117.98912876 856.45437046 -117.92724609 860.3737793 C-117.79765422 868.60705387 -117.67744018 876.84030401 -117.57980347 885.07402611 C-117.52471589 889.64887609 -117.44747646 894.22293613 -117.36328125 898.79736328 C-117.33498904 901.02244908 -117.30758129 903.24754638 -117.28125 905.47265625 C-117.25800659 906.45270126 -117.23476318 907.43274628 -117.21081543 908.44248962 C-117.13954141 917.69309424 -119.17048727 924.88855228 -125.625 931.65234375 C-131.15750713 936.55091777 -138.32855504 937.50004713 -145.5 937.3125 C-153.4964633 936.27812705 -160.86592485 933.58631996 -168.375 930.75 C-169.56029297 930.30599854 -170.74558594 929.86199707 -171.96679688 929.40454102 C-181.54734758 925.76917959 -190.90732057 921.77391829 -200.17333984 917.40380859 C-202.48833965 916.31796923 -204.81446457 915.26009398 -207.14453125 914.20703125 C-238.67058349 899.81843793 -268.39149015 880.85235733 -295.5 859.3125 C-296.13824707 858.8057373 -296.77649414 858.29897461 -297.43408203 857.77685547 C-305.12596704 851.64729824 -312.67375411 845.4303539 -319.875 838.7265625 C-321.89559508 836.86833667 -323.94090342 835.08199463 -326.02734375 833.30078125 C-331.38794126 828.62550526 -336.38292212 823.57922603 -341.40014648 818.54272461 C-343.0592732 816.87823723 -344.72368051 815.21916553 -346.38867188 813.56054688 C-351.96874615 807.98427573 -357.4118885 802.34691562 -362.5 796.3125 C-363.37675089 795.30264397 -364.25430811 794.29348722 -365.1328125 793.28515625 C-425.88202345 722.34759801 -463.33239362 635.47375231 -476.5 543.3125 C-476.66661133 542.17603027 -476.83322266 541.03956055 -477.00488281 539.86865234 C-482.48360864 500.51370567 -482.3876786 456.6001308 -476.5 417.3125 C-476.3981842 416.62657776 -476.29636841 415.94065552 -476.19146729 415.23394775 C-463.94327159 333.2373609 -433.53516146 255.1845035 -382.5 189.3125 C-382.08572754 188.77351074 -381.67145508 188.23452148 -381.24462891 187.67919922 C-367.10849779 169.30379886 -351.61063367 152.34574758 -335.25 135.9375 C-334.7303064 135.41512756 -334.21061279 134.89275513 -333.6751709 134.35455322 C-327.79839378 128.45482537 -321.8655021 122.69009888 -315.5 117.3125 C-314.44369401 116.40010577 -313.38768829 115.48736376 -312.33203125 114.57421875 C-246.42260243 58.38493856 -166.64343152 21.3388797 -53.5 2.3125 C-52.73049011 2.22636444 -51.96098022 2.14022888 -51.16815186 2.05148315 C-34.11624473 0.19899342 -17.13972311 -0.04859384 0 0 Z " fill="#1A1E22" transform="translate(479.5,-0.3125)"/>
</svg>
