<?xml version="1.0" encoding="UTF-8"?>
<svg version="1.1" xmlns="http://www.w3.org/2000/svg" width="512" height="512">
<path d="M0 0 C2.62630165 2.55126446 4.94191902 4.92141986 7.125 7.875 C12.87828575 14.85469149 22.1255859 19.66943189 31 21 C44.80837888 22.09265115 57.27985307 20.66057274 68.69921875 12.08203125 C72.6739668 8.48518794 75.87476713 4.33866127 79 0 C79.88558594 1.11761719 79.88558594 1.11761719 80.7890625 2.2578125 C88.22994884 11.486615 97.76653137 19.40433018 110 21 C123.14117733 21.93536968 133.96861725 20.01312369 144.73046875 12.015625 C148.38890719 8.76647829 151.24358356 5.02509817 154 1 C157.37446174 2.12482058 158.01954686 2.98399549 160.1875 5.6875 C168.68165688 15.5767471 179.22555303 20.78607279 192.3125 21.8125 C194.20754746 21.89547841 196.10344406 21.96585578 198 22 C198.90982375 26.82317499 199.30593088 31.61072908 199.54980469 36.50488281 C199.59177349 37.33245716 199.63374229 38.16003151 199.67698288 39.01268387 C200.14315348 48.97958495 200.18389025 58.94583828 200.203125 68.921875 C200.20595238 69.93696388 200.20877975 70.95205276 200.21169281 71.99790192 C200.22656424 77.38564803 200.23586568 82.77336827 200.24023438 88.16113281 C200.24458672 92.51799034 200.25836973 96.87464623 200.28125 101.23144531 C200.75018577 192.41909672 200.75018577 192.41909672 188 226 C187.76023437 226.93199219 187.52046875 227.86398437 187.2734375 228.82421875 C186.25920174 231.76739822 185.44249545 233.04870751 183 235 C176.52008929 237.42812144 169.84136089 238.16864715 163 239 C162.3463446 239.08187561 161.69268921 239.16375122 161.01922607 239.24810791 C155.68404804 239.91603544 150.34415512 240.53343052 145 241.125 C144.27982697 241.20585846 143.55965393 241.28671692 142.81765747 241.37002563 C110.82405307 244.88627969 78.72007201 245.35354715 46.56860352 245.31567383 C42.33411991 245.31106092 38.09992489 245.31791983 33.86547852 245.33618164 C-5.14795143 245.50270169 -44.31730939 244.49574123 -83 239 C-83.86222168 238.88688477 -84.72444336 238.77376953 -85.61279297 238.65722656 C-88.01716968 238.33824561 -90.41457922 237.98903048 -92.8125 237.625 C-94.74029297 237.33496094 -94.74029297 237.33496094 -96.70703125 237.0390625 C-100.84878369 235.73217502 -102.36608256 234.461209 -105 231 C-108.37694888 224.37225263 -110.09920683 217.31425619 -111.5625 210.0625 C-111.77302002 209.02746338 -111.98354004 207.99242676 -112.20043945 206.92602539 C-116.55692208 184.56453314 -117.83123462 161.71203329 -119 139 C-119.05929688 137.86481934 -119.11859375 136.72963867 -119.1796875 135.56005859 C-123.44322216 49.03314535 -123.44322216 49.03314535 -118 22 C-117.21238281 21.98582031 -116.42476563 21.97164062 -115.61328125 21.95703125 C-102.1633978 21.36810144 -91.09951561 16.99620718 -81 8 C-79.03834755 5.73491111 -77.55556635 3.57473052 -76 1 C-72.44012665 2.18662445 -72.05243876 3.09765283 -70 6.125 C-63.94454961 14.13094283 -54.93899431 19.45917826 -45 21 C-30.71310145 22.09780281 -18.99595501 19.66008951 -7.921875 10.23046875 C-4.68699956 7.11112457 -2.0745615 4.02708998 0 0 Z M-60.1875 48.5625 C-79.28817046 69.14444694 -85.75292992 100.29276639 -92.8269043 126.53344727 C-93.82203934 130.2228667 -94.82734674 133.90940729 -95.83398438 137.59570312 C-96.4797579 139.97379786 -97.12496118 142.35204754 -97.76953125 144.73046875 C-98.06535599 145.81603561 -98.36118073 146.90160248 -98.66596985 148.02006531 C-101.23322878 157.57080134 -103.35873533 166.7035543 -103.375 176.625 C-103.41173828 177.81609375 -103.41173828 177.81609375 -103.44921875 179.03125 C-103.4777192 184.82634247 -102.2975458 189.18845057 -99 194 C-97.15254239 195.87887404 -97.15254239 195.87887404 -95.0625 196.9375 C-94.08990234 197.50791016 -94.08990234 197.50791016 -93.09765625 198.08984375 C-80.86014604 203.39960144 -62.96143718 200.62470841 -51 196 C-47.41954234 194.28215239 -44.20865628 192.33463473 -41 190 C-40.36707031 189.54882812 -39.73414063 189.09765625 -39.08203125 188.6328125 C-30.12295067 181.63167668 -24.3445347 171.03354507 -22 160 C-21.93451508 158.41788427 -21.91421619 156.83329919 -21.9375 155.25 C-21.94652344 154.45078125 -21.95554687 153.6515625 -21.96484375 152.828125 C-21.97644531 152.22484375 -21.98804688 151.6215625 -22 151 C-21.39639648 151.08564209 -20.79279297 151.17128418 -20.17089844 151.25952148 C-17.36441269 151.65567145 -14.55722135 152.04659806 -11.75 152.4375 C-10.326875 152.63956055 -10.326875 152.63956055 -8.875 152.84570312 C-7.44414062 153.04389648 -7.44414062 153.04389648 -5.984375 153.24609375 C-5.12553711 153.36654053 -4.26669922 153.4869873 -3.38183594 153.61108398 C5.63976411 154.64858102 14.59681895 155.16336239 23.67578125 155.203125 C25.29095139 155.21337456 25.29095139 155.21337456 26.93875122 155.22383118 C30.39669981 155.240797 33.85451227 155.24715293 37.3125 155.25 C39.0778862 155.25300613 39.0778862 155.25300613 40.87893677 155.256073 C61.45264525 155.26465654 81.68062845 154.46469659 102 151 C101.9175 152.2375 101.835 153.475 101.75 154.75 C101.7813271 164.71201627 106.08229952 173.23398887 112 181 C112.7425 182.03125 113.485 183.0625 114.25 184.125 C123.89624761 194.20971341 137.04074774 199.77495819 150.9375 200.30078125 C152.62494336 200.31514803 154.31250796 200.31899035 156 200.3125 C156.83789062 200.32861328 157.67578125 200.34472656 158.5390625 200.36132812 C165.6473006 200.36682986 171.77098315 198.96548851 177.875 195.25 C183.33912873 189.46445193 183.60392268 182.69040208 183.54199219 175.1171875 C183.19823483 164.43305076 180.40885456 154.38224767 177.58312988 144.1270752 C176.93693584 141.76996168 176.30137515 139.41012389 175.66699219 137.04980469 C164.08456048 82.99024723 164.08456048 82.99024723 130.85546875 41.71484375 C120.30923979 36.25584954 106.92478522 36.56384897 95.421875 38.6484375 C88.76359956 40.87420386 82.132487 45.04989714 77.73071289 50.60058594 C75.24860633 52.60755939 73.58404871 52.25554172 70.43359375 52.07421875 C68.76006836 51.99179932 68.76006836 51.99179932 67.05273438 51.90771484 C65.85970703 51.83504395 64.66667969 51.76237305 63.4375 51.6875 C60.95714089 51.56673711 58.47667006 51.44824723 55.99609375 51.33203125 C54.78808105 51.27225098 53.58006836 51.2124707 52.33544922 51.15087891 C48.22130332 50.96477569 44.11796788 50.87302732 40 50.875 C39.32469238 50.87145508 38.64938477 50.86791016 37.95361328 50.86425781 C33.33177207 50.87909518 28.75456815 51.14170823 24.14453125 51.47265625 C22.93474609 51.54822754 21.72496094 51.62379883 20.47851562 51.70166016 C18.0830311 51.85576498 15.68926148 52.04036467 13.29882812 52.25927734 C5.1396421 52.76117935 5.1396421 52.76117935 1.84155273 50.55834961 C0.11359222 48.77961512 -1.42818647 46.91582113 -3 45 C-20.36434075 33.12674065 -44.69921326 34.28187694 -60.1875 48.5625 Z " fill="#000000" transform="translate(216,187)"/>
<path d="M0 0 C5.52528378 0.00258319 11.05056614 0.0001698 16.57585001 -0.00138617 C25.84594384 -0.00319116 35.11602963 -0.00084624 44.38612223 0.00395441 C55.00387193 0.00939053 65.6216024 0.00763226 76.23935163 0.00212801 C85.45998654 -0.00245515 94.68061576 -0.00302848 103.90125144 -0.00043333 C109.36244767 0.00110161 114.82363496 0.00140202 120.28483057 -0.00196981 C158.87744222 -0.02227605 158.87744222 -0.02227605 177.9568069 0.46167254 C179.4070498 0.49833245 180.85736175 0.53237559 182.30773377 0.56351113 C199.77914654 0.95505144 199.77914654 0.95505144 205.15418863 5.64604425 C205.73660318 6.14877863 206.31901773 6.651513 206.91908121 7.16948175 C207.5213151 7.71475519 208.12354898 8.26002863 208.74403238 8.8218255 C209.3881608 9.39416925 210.03228922 9.966513 210.69593668 10.5562005 C221.82014768 20.60965361 232.16289486 31.769954 240.68153238 44.1343255 C241.46814249 45.18523371 241.46814249 45.18523371 242.27064371 46.25737238 C247.18311214 53.39590533 247.56608487 59.49482485 247.36903238 68.0093255 C247.39126871 69.79403254 247.39126871 69.79403254 247.41395426 71.61479425 C247.3002853 83.8509229 243.57817029 93.14791323 235.08387613 101.939013 C226.13814596 110.11381033 217.91116234 112.85376568 205.79090738 112.501513 C196.32467471 111.88415 188.71431254 107.33853034 181.95106363 100.892138 C177.81261246 95.86331437 175.23812799 90.08560602 172.68153238 84.1343255 C172.47399332 84.75178644 172.26645426 85.36924738 172.05262613 86.00541925 C167.88262025 97.46857351 161.57832625 104.5386746 150.68153238 110.1343255 C142.12462396 113.71266903 129.93964409 113.75100777 121.18153238 110.6968255 C109.85412307 105.1602852 103.17684595 95.49090716 98.68153238 84.1343255 C98.49719645 84.74018488 98.31286051 85.34604425 98.12293863 85.970263 C94.48795983 96.47131288 87.71311059 103.51597906 78.13856363 108.9780755 C69.03723003 113.26105602 58.36419832 113.60819669 48.56434488 111.4468255 C39.0377642 107.88548693 29.8347351 100.64536356 25.35731363 91.3999505 C24.38978451 88.99640448 23.49315905 86.5944113 22.68153238 84.1343255 C22.26903238 85.052138 21.85653238 85.9699505 21.43153238 86.9155755 C15.95965526 98.70622527 10.00994002 106.03216036 -2.31846762 111.1343255 C-10.76730893 113.95060594 -23.15721573 113.40419757 -31.15440512 109.4468255 C-41.33071298 103.27491315 -47.80990171 95.67699885 -51.31846762 84.1343255 C-51.74256918 85.06373957 -52.16667074 85.99315363 -52.60362387 86.95073175 C-58.49463555 99.52456689 -64.31078615 105.46723621 -77.31846762 111.1343255 C-85.32642212 113.80364367 -96.40693089 113.22439525 -104.01378012 109.5874505 C-114.07798565 103.24188362 -122.33751991 93.82845755 -125.31846762 82.1343255 C-126.74112175 70.82118375 -128.36346917 56.00181122 -121.50596762 46.1968255 C-119.8419566 44.12201177 -118.11117611 42.09900894 -116.31846762 40.1343255 C-115.4361106 39.05435728 -114.56119322 37.96827192 -113.69346762 36.876513 C-111.00356107 33.53495602 -108.1764923 30.33210861 -105.31846762 27.1343255 C-104.8400643 26.58889093 -104.36166098 26.04345636 -103.86876059 25.48149347 C-98.38110938 19.23059823 -92.70570974 13.35901573 -86.38096762 7.9468255 C-85.84939047 7.48904718 -85.31781332 7.03126886 -84.77012777 6.55961847 C-79.843977 2.46671589 -75.83987603 0.91632014 -69.4668746 0.72493219 C-68.28116432 0.68686394 -67.09545404 0.64879568 -65.87381315 0.60957384 C-63.91451526 0.5640598 -63.91451526 0.5640598 -61.91563559 0.51762629 C-60.50091019 0.47968665 -59.08618588 0.44170688 -57.67146254 0.40369081 C-38.45232601 -0.07606004 -19.22364789 -0.01185435 0 0 Z " fill="#000000" transform="translate(195.3184676170349,79.86567449569702)"/>
<path d="M0 0 C3.20470792 1.61586306 5.24976874 3.54247421 7.78295898 6.08447266 C8.24996719 6.55098236 8.7169754 7.01749207 9.19813538 7.49813843 C10.18241556 8.48475091 11.16302438 9.4750382 12.14013672 10.46875 C13.61404164 11.96607323 15.10062192 13.44981055 16.58959961 14.93212891 C30.69311523 29.07620505 30.69311523 29.07620505 30.69311523 33.35791016 C25.08311523 33.35791016 19.47311523 33.35791016 13.69311523 33.35791016 C13.69311523 38.30791016 13.69311523 43.25791016 13.69311523 48.35791016 C3.79311523 48.35791016 -6.10688477 48.35791016 -16.30688477 48.35791016 C-16.30688477 43.40791016 -16.30688477 38.45791016 -16.30688477 33.35791016 C-21.91688477 33.35791016 -27.52688477 33.35791016 -33.30688477 33.35791016 C-31.43489193 28.67792807 -29.49272815 26.00834395 -26.11938477 22.48291016 C-25.6019873 21.93280273 -25.08458984 21.38269531 -24.55151367 20.81591797 C-20.16201277 16.18162047 -15.68138889 11.63517219 -11.18188477 7.10791016 C-10.5306665 6.45193848 -9.87944824 5.7959668 -9.20849609 5.12011719 C-8.59901123 4.51280762 -7.98952637 3.90549805 -7.36157227 3.27978516 C-6.82000488 2.7393457 -6.2784375 2.19890625 -5.72045898 1.64208984 C-3.56897394 -0.31245443 -2.87365619 -0.79984292 0 0 Z " fill="#000000" transform="translate(257.306884765625,270.64208984375)"/>
</svg>
