<?xml version="1.0" encoding="UTF-8"?>
<svg version="1.1" xmlns="http://www.w3.org/2000/svg" width="1200" height="1166">
<path d="M0 0 C0.73421677 0.30553802 1.46843353 0.61107605 2.22489929 0.9258728 C9.51595049 4.00182225 16.62299168 7.42578926 23.71350098 10.93475342 C27.52818123 12.82177425 31.35201947 14.69006067 35.17578125 16.55859375 C36.32184341 17.11907913 36.32184341 17.11907913 37.49105835 17.69088745 C44.22707246 20.97693564 51.01580181 24.13668862 57.828125 27.26171875 C70.02197052 32.86461059 82.07626991 38.73316213 94.12731934 44.63519287 C104.3965094 49.66218476 114.68631226 54.61711148 125.078125 59.38671875 C137.19021331 64.94589365 149.1604857 70.77436544 161.12841797 76.63574219 C171.39724162 81.66254954 181.68668515 86.61728262 192.078125 91.38671875 C204.19021331 96.94589365 216.1604857 102.77436544 228.12841797 108.63574219 C238.39724162 113.66254954 248.68668515 118.61728262 259.078125 123.38671875 C270.32994185 128.55104848 281.46015233 133.94164007 292.578125 139.38671875 C304.8268833 145.3855328 317.10870893 151.27332119 329.50390625 156.96484375 C340.06811925 161.83591525 350.51497143 166.93837951 360.96231079 172.05419922 C371.380144 177.15403102 381.84408363 182.12173418 392.390625 186.94921875 C417.06902028 198.34421014 437.25199837 210.48704465 448.078125 236.88671875 C448.97959755 239.65374818 449.75458488 242.44850358 450.51269531 245.2578125 C450.72845341 246.04728271 450.9442115 246.83675293 451.16650772 247.65014648 C453.29180155 255.51774907 455.14458512 263.43802514 456.9375 271.38671875 C457.30934905 273.01926068 457.68163644 274.65170281 458.05430603 276.28405762 C458.87474774 279.88083986 459.6927269 283.4781701 460.50888062 287.07592773 C462.64970637 296.51074329 464.80580766 305.94207811 466.96010399 315.37382507 C467.50563402 317.76247307 468.05101173 320.15115586 468.59624672 322.53987122 C476.38922595 356.68086613 484.26050766 390.80384993 492.12509155 424.92840576 C494.55120858 435.45541948 496.9761204 445.98271059 499.40075934 456.51006484 C507.34703538 491.01099212 515.29648539 525.51117801 523.26313001 560.00740838 C523.47456905 560.92295739 523.68600809 561.8385064 523.90385437 562.78179932 C524.11442937 563.69360262 524.32500436 564.60540592 524.54196042 565.54483962 C527.20362601 577.07059731 529.86288759 588.5969098 532.52190113 600.12327957 C534.63777878 609.2946232 536.75598371 618.4654233 538.87721431 627.63553035 C540.31151852 633.83686278 541.74322074 640.03879221 543.17287743 646.24119771 C543.990898 649.78967345 544.81009613 653.33786608 545.63257599 656.88531113 C546.52193965 660.72129906 547.40562649 664.55858222 548.28881836 668.39599609 C548.54458995 669.49494957 548.80036154 670.59390305 549.06388378 671.72615814 C554.58674531 695.81884509 555.29525168 719.24701083 542.078125 741.19921875 C537.40046465 748.2003559 531.93442829 754.61812172 526.56298828 761.09033203 C524.7078181 763.33471582 522.88914063 765.60660778 521.078125 767.88671875 C518.22589948 771.4655112 515.34460024 775.01934593 512.453125 778.56640625 C507.32085048 784.86294675 502.24227033 791.19414718 497.24291992 797.59667969 C493.19947516 802.76212744 489.05990973 807.8463961 484.91186523 812.92797852 C481.43919018 817.18982784 478.01986194 821.48802976 474.640625 825.82421875 C469.96099184 831.82516009 465.13453821 837.69635512 460.28076172 843.55688477 C456.07551413 848.64559258 451.96674544 853.80021109 447.90576172 859.00439453 C444.50297039 863.3611222 441.02691557 867.65189487 437.515625 871.921875 C429.99408001 881.07067732 422.53210896 890.26191845 415.24267578 899.59692383 C411.19939991 904.76235842 407.05983671 909.84648555 402.91186523 914.92797852 C399.43919018 919.18982784 396.01986194 923.48802976 392.640625 927.82421875 C387.96099184 933.82516009 383.13453821 939.69635512 378.28076172 945.55688477 C374.07551413 950.64559258 369.96674544 955.80021109 365.90576172 961.00439453 C362.50297039 965.3611222 359.02691557 969.65189487 355.515625 973.921875 C347.99639168 983.06786553 340.5373776 992.25672953 333.24926758 1001.58813477 C328.5996372 1007.52722218 323.83200643 1013.36873756 319.06640625 1019.21484375 C316.72090967 1022.09284329 314.39210953 1024.98327711 312.078125 1027.88671875 C309.22589948 1031.4655112 306.34460024 1035.01934593 303.453125 1038.56640625 C298.32085048 1044.86294675 293.24227033 1051.19414718 288.24291992 1057.59667969 C284.20173563 1062.75923972 280.06506029 1067.84115589 275.91845703 1072.91918945 C272.84318807 1076.6923044 269.80441566 1080.4891697 266.81298828 1084.32910156 C265.02253635 1086.62679463 263.21953925 1088.91437658 261.41210938 1091.19873047 C260.51961587 1092.32806797 259.63030851 1093.45993042 258.74414062 1094.59423828 C244.65953412 1112.51869919 226.95853514 1123.63026861 204.078125 1126.88671875 C201.38599034 1126.97926327 198.72029218 1127.0263705 196.02874947 1127.02093983 C194.83271917 1127.02446817 194.83271917 1127.02446817 193.61252666 1127.0280678 C190.93609818 1127.03473386 188.25971853 1127.0343003 185.58328247 1127.03388977 C183.6467255 1127.03718989 181.71016922 1127.04091577 179.77361381 1127.04503125 C174.44791743 1127.05504262 169.12223232 1127.05876666 163.79652786 1127.06142056 C158.0539375 1127.0653262 152.31135604 1127.0749044 146.56877136 1127.08363342 C132.69788206 1127.10339101 118.82699203 1127.11346338 104.95609218 1127.12236121 C98.42211186 1127.12674547 91.88813236 1127.13211195 85.35415268 1127.13735008 C63.63010625 1127.15436204 41.90606076 1127.16888051 20.18200874 1127.17609882 C18.77745402 1127.17657358 17.37289929 1127.17704947 15.96834456 1127.17752649 C14.92357157 1127.17788105 14.92357157 1127.17788105 13.85769206 1127.17824278 C10.32895616 1127.17944394 6.80022027 1127.1806594 3.27148438 1127.18188477 C2.57120293 1127.18212492 1.87092148 1127.18236507 1.14941939 1127.18261249 C-21.54302314 1127.19050117 -44.23541334 1127.21392424 -66.92783303 1127.24644071 C-90.93387736 1127.28077651 -114.93988976 1127.30045236 -138.94595921 1127.30374306 C-152.02610808 1127.3059068 -165.10618004 1127.31463549 -178.186306 1127.34020424 C-189.32719754 1127.36193204 -200.46799348 1127.36995139 -211.60890381 1127.36023746 C-217.28984994 1127.35569878 -222.9705989 1127.35755408 -228.65151787 1127.3769989 C-233.86055161 1127.39467398 -239.06924496 1127.39359752 -244.27828254 1127.37810161 C-246.15455727 1127.37573214 -248.03085584 1127.38001446 -249.90709423 1127.39193026 C-264.42443264 1127.47835677 -278.32422647 1126.1183316 -291.359375 1119.07421875 C-292.34901245 1118.56036621 -292.34901245 1118.56036621 -293.35864258 1118.03613281 C-298.67704725 1115.19738281 -303.36515388 1111.83274529 -307.921875 1107.88671875 C-308.74300781 1107.25765625 -309.56414062 1106.62859375 -310.41015625 1105.98046875 C-312.94886553 1103.86421965 -314.86757574 1101.72064203 -316.921875 1099.13671875 C-317.70046875 1098.16605469 -318.4790625 1097.19539063 -319.28125 1096.1953125 C-319.91450195 1095.40036377 -319.91450195 1095.40036377 -320.56054688 1094.58935547 C-322.536628 1092.1178365 -324.53576099 1089.6652926 -326.53369141 1087.21142578 C-328.19892495 1085.16599286 -329.86141707 1083.11835679 -331.5234375 1081.0703125 C-333.76470103 1078.30960621 -336.00961704 1075.55193875 -338.2578125 1072.796875 C-343.82431789 1065.97057288 -349.33912966 1059.1113244 -354.76269531 1052.17089844 C-360.38236885 1044.99538161 -366.15873378 1037.94707347 -371.921875 1030.88671875 C-378.60418182 1022.70030536 -385.25578777 1014.49765484 -391.76269531 1006.17089844 C-397.38236885 998.99538161 -403.15873378 991.94707347 -408.921875 984.88671875 C-415.60418182 976.70030536 -422.25578777 968.49765484 -428.76269531 960.17089844 C-434.38236885 952.99538161 -440.15873378 945.94707347 -445.921875 938.88671875 C-452.60284511 930.70194294 -459.2555726 922.50268145 -465.75830078 914.17529297 C-469.80121601 909.01023863 -473.94049351 903.92654741 -478.08813477 898.84545898 C-481.56080982 894.58360966 -484.98013806 890.28540774 -488.359375 885.94921875 C-493.04252604 879.94376624 -497.87269155 874.06821566 -502.73022461 868.20336914 C-506.81439234 863.2613754 -510.80079021 858.25446271 -514.73828125 853.1953125 C-518.38672731 848.52572702 -522.14206442 843.95035396 -525.921875 839.38671875 C-530.63491348 833.69527412 -535.26640501 827.95347228 -539.80859375 822.125 C-543.29041369 817.6658271 -546.84429856 813.2693285 -550.421875 808.88671875 C-554.45398329 803.94729749 -558.43998353 798.97852639 -562.359375 793.94921875 C-566.46125871 788.68915611 -570.66782877 783.52436404 -574.921875 778.38671875 C-580.60446074 771.51997188 -586.1712125 764.57835541 -591.62939453 757.53222656 C-592.91191417 755.89940028 -594.22272619 754.29381927 -595.54296875 752.69140625 C-609.71406714 735.28173451 -616.70005851 715.50676543 -614.921875 692.88671875 C-614.43884053 689.45668248 -613.76195754 686.07855948 -613.05859375 682.6875 C-612.84292252 681.6307457 -612.62725128 680.57399139 -612.40504456 679.48521423 C-608.63165675 661.34592659 -604.32675833 643.31764296 -600.13144302 625.27263641 C-598.80680678 619.57065245 -597.48677836 613.8676025 -596.16674805 608.16455078 C-595.89584886 606.99416008 -595.62494967 605.82376938 -595.34584141 604.61791229 C-594.79060839 602.21896196 -594.23540137 599.8200056 -593.68021965 597.4210434 C-592.82867687 593.74206893 -591.97669032 590.06319743 -591.12464905 586.38433838 C-585.08101864 560.28360081 -579.09127168 534.17054742 -573.10446548 508.05672836 C-570.46255174 496.53368768 -567.81927975 485.01095847 -565.17578125 473.48828125 C-564.88125502 472.20442976 -564.58672878 470.92057827 -564.28327751 469.59782219 C-559.77778736 449.95903163 -555.26330272 430.32232086 -550.74273157 410.68699646 C-550.26263129 408.60161998 -549.78256884 406.51623479 -549.30251694 404.43084717 C-546.16929184 390.81999712 -543.03494108 377.20940836 -539.89632607 363.59980011 C-538.40802138 357.14612807 -536.92057376 350.69225864 -535.43359375 344.23828125 C-535.14804752 342.99892822 -534.8625013 341.7595752 -534.56830215 340.48266602 C-531.12409894 325.52769497 -527.70675412 310.56714376 -524.34304428 295.59385681 C-523.7659122 293.02607328 -523.18743297 290.45859738 -522.60842896 287.89123535 C-522.24382786 286.27417163 -521.87923417 284.65710624 -521.51464844 283.04003906 C-521.34070242 282.26869629 -521.1667564 281.49735352 -520.98753929 280.70263672 C-520.16842044 277.06603945 -519.35380807 273.42855827 -518.55041504 269.78845215 C-513.38282799 246.37716842 -508.1749391 226.47273672 -490.921875 208.88671875 C-490.33148438 208.27183594 -489.74109375 207.65695313 -489.1328125 207.0234375 C-478.60820705 196.93928911 -463.85548339 191.35484948 -450.80957031 185.38818359 C-440.26234276 180.55798815 -429.83771116 175.49319409 -419.421875 170.38671875 C-407.2207372 164.40946241 -394.9852999 158.54662602 -382.63671875 152.87890625 C-372.49030254 148.1995625 -362.45606501 143.30103199 -352.421875 138.38671875 C-340.22005782 132.41079527 -327.98534472 126.54664659 -315.63671875 120.87890625 C-304.63020324 115.80290026 -293.75423913 110.46761847 -282.86956787 105.13668823 C-272.64318082 100.13055415 -262.39656306 95.19644094 -252.046875 90.44921875 C-240.4131838 85.11189806 -228.91381146 79.52122098 -217.421875 73.88671875 C-204.8539348 67.72465135 -192.25847867 61.66409205 -179.53515625 55.828125 C-169.42166461 51.16763879 -159.4220924 46.28445247 -149.421875 41.38671875 C-137.18383994 35.39312936 -124.91629348 29.50196638 -112.52685547 23.82617188 C-105.79498909 20.72748561 -99.11902343 17.5351916 -92.46875 14.265625 C-91.64807037 13.86282822 -90.82739075 13.46003143 -89.98184204 13.04502869 C-85.94351716 11.06160626 -81.90969233 9.06978346 -77.88232422 7.06420898 C-52.47615449 -5.50183413 -27.07621975 -11.36007892 0 0 Z " fill="#326CE5" transform="translate(630.921875,22.11328125)"/>
<path d="M0 0 C7.32282061 3.2180364 12.70382907 10.07597892 15.625 17.37890625 C18.50143308 29.37644432 15.93885813 42.00488235 14.1875 54.00390625 C13.72651505 57.22470574 13.27019925 60.44614849 12.81640625 63.66796875 C12.70793869 64.43725204 12.59947113 65.20653534 12.48771667 65.99913025 C11.68329486 71.7804392 11.01977004 77.55354022 10.625 83.37890625 C10.56916748 84.20003906 10.51333496 85.02117187 10.45581055 85.8671875 C9.43974773 97.23877586 9.43974773 97.23877586 13.5 107.44140625 C15.05227421 109.08780482 15.05227421 109.08780482 16.625 110.37890625 C18.625 112.37890625 18.625 112.37890625 18.8203125 114.98046875 C18.78550781 116.47707031 18.78550781 116.47707031 18.75 118.00390625 C18.73195313 119.00679688 18.71390625 120.0096875 18.6953125 121.04296875 C18.66050781 122.19925781 18.66050781 122.19925781 18.625 123.37890625 C19.8728125 123.34539062 21.120625 123.311875 22.40625 123.27734375 C28.07966351 123.28398191 33.53602272 124.08410615 39.125 125.00390625 C40.21159912 125.18211914 41.29819824 125.36033203 42.41772461 125.54394531 C110.16546099 137.07505978 171.6972559 170.36189524 219.625 219.37890625 C220.12386719 218.95738281 220.62273438 218.53585937 221.13671875 218.1015625 C225.85031787 214.50501021 229.14943521 213.040408 235.125 212.87890625 C241.9304869 212.62597294 245.51737705 210.75554693 250.625 206.37890625 C251.3778125 205.73824219 252.130625 205.09757813 252.90625 204.4375 C255.52397046 202.12999641 258.07393322 199.75990191 260.625 197.37890625 C261.79066334 196.3153056 262.95739019 195.25286972 264.125 194.19140625 C270.33067086 188.52693721 276.25864946 182.86000594 281.625 176.37890625 C289.21096198 167.27575188 298.86776406 156.25555263 311.33203125 155.0078125 C324.63466312 154.60992559 324.63466312 154.60992559 330.015625 158.82421875 C335.91040529 164.51869097 339.52415218 169.15286696 340 177.62890625 C339.76990441 185.68225182 336.3309883 192.60575084 330.8359375 198.390625 C322.98568417 205.45030512 313.87082898 210.43070589 304.64916992 215.43261719 C292.92712952 221.85991655 281.65807684 229.27665561 271.47265625 237.953125 C269.625 239.37890625 269.625 239.37890625 266.625 240.37890625 C265.30807373 242.78036003 264.67479041 245.01458615 264.3046875 247.72265625 C263.59693268 252.72211586 262.95075912 255.65728735 259 259.00390625 C257.89356255 259.82131514 256.77430003 260.62294954 255.625 261.37890625 C256.27540632 264.73214416 257.54748972 267.16771584 259.328125 270.0703125 C259.88983398 271.00069336 260.45154297 271.93107422 261.03027344 272.88964844 C261.94341309 274.40026855 261.94341309 274.40026855 262.875 275.94140625 C300.11949231 338.92193849 312.30625814 408.08449472 305.625 480.37890625 C306.23843262 480.5490625 306.85186523 480.71921875 307.48388672 480.89453125 C315.40077533 483.27165253 315.40077533 483.27165253 317.75 487.37890625 C320.44085161 491.37862318 322.98440559 493.10344986 327.625 494.37890625 C328.4696582 494.61488525 329.31431641 494.85086426 330.18457031 495.09399414 C337.51141667 497.01225302 344.72456869 498.20089112 352.25 499.00390625 C353.38228027 499.13087891 354.51456055 499.25785156 355.68115234 499.38867188 C362.20262246 500.09509512 368.69721422 500.60641994 375.25 500.87890625 C388.86690068 501.48115067 403.7664205 502.74649318 413.5625 513.25390625 C418.12482723 519.02137653 420.29335183 524.38239973 420.03515625 531.7578125 C418.92997511 538.82044624 415.23463843 544.88008649 409.5625 549.1953125 C401.47512124 554.13578783 392.94985647 554.5683261 383.84765625 552.53515625 C375.19828539 550.22651685 366.98927426 546.97145715 358.73217773 543.54858398 C351.52306772 540.61563157 344.18861181 538.22306486 336.75 535.94140625 C335.08239624 535.42839966 335.08239624 535.42839966 333.38110352 534.9050293 C325.6802297 532.5851477 317.74384066 530.22750703 309.625 531.37890625 C308.67625 532.05953125 307.7275 532.74015625 306.75 533.44140625 C303.12175305 535.69091936 302.04404648 535.48172539 297.9296875 535 C296.93694824 534.88970459 295.94420898 534.77940918 294.92138672 534.66577148 C293.78467529 534.52377319 293.78467529 534.52377319 292.625 534.37890625 C292.39014893 535.05542236 292.15529785 535.73193848 291.91333008 536.42895508 C283.4673865 560.52812838 273.3372751 583.75875173 259.625 605.37890625 C258.97402344 606.41273438 258.32304688 607.4465625 257.65234375 608.51171875 C239.85425429 635.92150745 217.44704409 662.23915041 191.625 682.37890625 C190.52082655 683.2924262 189.41942578 684.20930431 188.3203125 685.12890625 C180.33383838 691.75500488 172.02012425 697.56961948 163.23852539 703.10253906 C162.42246826 703.6178418 161.60641113 704.13314453 160.765625 704.6640625 C160.03891602 705.116604 159.31220703 705.56914551 158.56347656 706.03540039 C156.6874977 707.33559078 155.17880846 708.71354388 153.625 710.37890625 C154.140625 711.41015625 154.65625 712.44140625 155.1875 713.50390625 C156.78210065 717.2445115 156.47397037 719.36559175 155.625 723.37890625 C153.9522018 733.88844276 158.53913051 741.60688317 163.625 750.37890625 C164.42091553 751.75175781 164.42091553 751.75175781 165.23291016 753.15234375 C173.26074624 766.88873944 173.26074624 766.88873944 182.5 779.81640625 C185.97672936 784.24370206 188.61192551 788.80212739 191.125 793.81640625 C191.4638623 794.49179443 191.80272461 795.16718262 192.15185547 795.86303711 C195.69123463 803.18857951 196.81673605 809.97500343 194.4375 817.87890625 C191.78930005 825.05467387 188.23406633 830.00803859 181.27734375 833.4921875 C174.19504695 835.85990676 166.95822748 835.38566675 160.1875 832.31640625 C153.20445189 828.7095101 148.95200221 822.016675 145.75 815.06640625 C145.24919922 813.99374512 145.24919922 813.99374512 144.73828125 812.89941406 C141.32544696 805.2524923 139.00627727 797.29271237 136.63208008 789.27636719 C134.47431247 782.02135655 132.12481526 774.8930031 129.4375 767.81640625 C129.12876953 766.99108398 128.82003906 766.16576172 128.50195312 765.31542969 C126.5820778 760.35269464 124.29271942 755.79290069 121.5847168 751.21118164 C120.625 749.37890625 120.625 749.37890625 120.625 747.37890625 C118.69195569 746.33184058 116.8328315 745.43938181 114.71875 744.82421875 C110.63865359 743.59105528 108.31682855 742.58948253 106.125 738.81640625 C104.625 735.37890625 104.625 735.37890625 104.625 733.37890625 C103.89023437 733.64703125 103.15546875 733.91515625 102.3984375 734.19140625 C30.4662718 759.32632392 -44.78275776 759.26077842 -116.58520508 733.92626953 C-118.38182273 733.28142164 -118.38182273 733.28142164 -120.375 733.37890625 C-120.643125 733.99378906 -120.91125 734.60867188 -121.1875 735.2421875 C-124.38695219 741.84105764 -124.38695219 741.84105764 -127.3125 743.43359375 C-128.69248109 743.85699704 -130.07537663 744.27101066 -131.4609375 744.67578125 C-137.248165 746.80170156 -140.14364454 754.15534661 -142.640625 759.3359375 C-148.29395568 772.10270849 -152.64008284 785.52202157 -156.4375 798.94140625 C-160.37865682 812.59026897 -165.37088479 826.22083409 -178.40625 833.515625 C-184.15968844 836.03846209 -190.03908415 836.54398731 -195.9921875 834.46484375 C-203.83395098 830.85809794 -207.9280348 826.34882302 -211.375 818.37890625 C-214.26960166 800.61747293 -204.84751786 788.01652458 -195.0390625 774.1796875 C-186.7797181 762.50096278 -179.71124747 749.81604666 -173.1328125 737.1171875 C-172.8042627 736.48466064 -172.47571289 735.85213379 -172.13720703 735.20043945 C-170.2951848 730.79834853 -171.22711048 726.74621787 -172.5625 722.37890625 C-173.85209307 717.82116636 -172.37817698 715.54551437 -170.375 711.37890625 C-170.49490425 709.28438031 -170.49490425 709.28438031 -171.375 707.37890625 C-173.68512579 705.74557512 -175.92806855 704.33822133 -178.375 702.94140625 C-187.59659578 697.4347753 -195.96929376 691.04451471 -204.375 684.37890625 C-205.85419922 683.22261719 -205.85419922 683.22261719 -207.36328125 682.04296875 C-215.44077734 675.6049052 -222.92523245 668.5235026 -230.375 661.37890625 C-230.93429199 660.84297852 -231.49358398 660.30705078 -232.06982422 659.75488281 C-238.18767088 653.85731566 -243.91053119 647.78342209 -249.19140625 641.109375 C-250.61602686 639.3279621 -252.08121073 637.57803589 -253.58984375 635.8671875 C-273.13353511 613.59193195 -308.375 565.70650092 -308.375 534.37890625 C-309.055625 534.54390625 -309.73625 534.70890625 -310.4375 534.87890625 C-315.06436676 535.66645804 -318.86021317 536.22436867 -323.0625 533.87890625 C-339.24542166 526.55079078 -364.06743515 539.76813542 -379.375 545.37890625 C-382.26446327 546.49071413 -385.13568334 547.64153194 -388 548.81640625 C-398.47759157 553.06153594 -409.73839302 555.74597631 -421.01171875 552.65625 C-427.50568944 549.60099141 -431.69477918 544.4249833 -435.375 538.37890625 C-437.33755228 532.4912494 -437.12682596 526.45744058 -434.8125 520.69140625 C-431.03753109 513.19445045 -425.17922381 508.27374511 -417.375 505.37890625 C-408.85180006 502.98460837 -400.56666775 501.89220216 -391.75 501.44140625 C-382.03516688 500.82941065 -372.44347395 499.86063041 -362.8125 498.44140625 C-361.16483643 498.20466187 -361.16483643 498.20466187 -359.48388672 497.96313477 C-345.68112408 495.90797727 -345.68112408 495.90797727 -334.375 488.37890625 C-333.776875 487.49203125 -333.17875 486.60515625 -332.5625 485.69140625 C-330.10460248 483.09305744 -329.14060839 482.90143824 -325.73828125 482.234375 C-324.92270752 482.0696167 -324.10713379 481.9048584 -323.2668457 481.73510742 C-322.33038208 481.55878784 -322.33038208 481.55878784 -321.375 481.37890625 C-321.51131836 480.28896362 -321.51131836 480.28896362 -321.65039062 479.17700195 C-330.79481275 404.21032595 -315.5400471 326.27343194 -272.375 263.37890625 C-272.78492188 262.93160156 -273.19484375 262.48429687 -273.6171875 262.0234375 C-277.23519224 257.96400156 -279.54177889 254.69935454 -280.88208008 249.3581543 C-282.5789862 243.28867659 -284.83153346 240.24743223 -289.875 236.56640625 C-290.53008545 236.06705566 -291.1851709 235.56770508 -291.86010742 235.05322266 C-302.87815054 226.82027096 -314.66503132 219.78635656 -326.75 213.25390625 C-339.07945419 206.54273432 -349.52925555 199.51091737 -355.75 186.50390625 C-357.15804712 179.46367064 -357.46425811 172.59124469 -353.7734375 166.23046875 C-349.8442789 161.02817496 -344.9234789 156.51229683 -338.375 155.37890625 C-328.96978597 154.24185799 -322.22394002 156.11212405 -314.375 161.37890625 C-306.82924602 167.3551434 -300.38569915 174.41680864 -293.86767578 181.46728516 C-275.83076468 203.28532915 -275.83076468 203.28532915 -251.375 214.25390625 C-250.31410156 214.24875 -249.25320313 214.24359375 -248.16015625 214.23828125 C-244.16679307 214.43990969 -242.47285054 215.9959443 -239.375 218.37890625 C-235.87838165 218.05745933 -234.23894327 216.58174147 -231.87109375 214.09765625 C-231.21842529 213.42484619 -230.56575684 212.75203613 -229.89331055 212.05883789 C-228.86330933 210.97977173 -228.86330933 210.97977173 -227.8125 209.87890625 C-221.62424771 203.54103404 -215.35927417 197.8323806 -208.375 192.37890625 C-206.58185732 190.88067103 -204.79022106 189.38063126 -203 187.87890625 C-156.5642403 150.05202335 -95.13321633 125.90124014 -35.375 122.37890625 C-35.44460938 121.73824219 -35.51421875 121.09757812 -35.5859375 120.4375 C-36.0235675 113.44583982 -36.0235675 113.44583982 -34.109375 110.296875 C-32.5 108.50390625 -32.5 108.50390625 -30.8828125 106.94921875 C-26.54518895 102.43179733 -27.02822323 97.43488995 -27.0625 91.5390625 C-27.06769653 90.08005272 -27.06769653 90.08005272 -27.07299805 88.59156799 C-27.2289412 77.86245298 -28.73527591 67.40216414 -30.375 56.81640625 C-35.97229422 20.06146695 -35.97229422 20.06146695 -28.3828125 9.64453125 C-20.44280292 0.39455375 -12.21628489 -3.19471924 0 0 Z " fill="#FDFEFE" transform="translate(608.375,165.62109375)"/>
<path d="M0 0 C1.21104904 0.20482498 2.42209808 0.40964996 3.66984558 0.62068176 C6.9554063 1.17817457 10.23940405 1.74360853 13.52294898 2.31277657 C16.96777999 2.9079064 20.41437863 3.49262012 23.86079407 4.07849121 C30.37114273 5.18681538 36.87987352 6.30435391 43.38805944 7.42530012 C50.80411309 8.70214514 58.22193378 9.96857325 65.63991296 11.23417568 C80.88472512 13.83537391 96.12729174 16.44949447 111.3684082 19.07226562 C110.8944054 20.51108785 110.41895095 21.94943189 109.94288635 23.38757324 C109.54596761 24.58911671 109.54596761 24.58911671 109.14103031 25.81493378 C99.24342189 54.73228739 81.06809714 81.19423688 60.62231445 103.59570312 C59.09418861 105.27478768 57.58154962 106.96807385 56.08325195 108.67382812 C51.46677427 113.91586625 46.72080271 118.59655642 41.3684082 123.07226562 C40.43512695 123.89339844 39.5018457 124.71453125 38.5402832 125.56054688 C32.51672286 130.83376425 26.30051902 135.72574285 19.7434082 140.32226562 C18.71280273 141.05751465 18.71280273 141.05751465 17.66137695 141.80761719 C15.95209928 142.98040002 14.16458252 144.03746731 12.3684082 145.07226562 C9.3684082 144.07226562 9.3684082 144.07226562 7.73706055 140.84570312 C7.13148561 139.3842033 6.53821671 137.91757083 5.9543457 136.44726562 C5.46430054 135.25214607 5.46430054 135.25214607 4.96435547 134.03288269 C3.88054456 131.38336391 2.81220839 128.72787109 1.7434082 126.07226562 C0.9849732 124.211519 0.22535259 122.35125522 -0.53540039 120.49145508 C-2.1189772 116.61742968 -3.69737999 112.74135566 -5.2722168 108.86376953 C-8.54105788 100.82591321 -11.87118317 92.81369132 -15.20211792 84.80142212 C-16.25753157 82.25750044 -17.30770801 79.71147546 -18.35644531 77.16479492 C-21.48590204 69.57521364 -24.64121315 62.00217252 -27.93920898 54.48399353 C-29.365993 51.22872486 -30.77519456 47.96596738 -32.18377686 44.70278931 C-32.84474105 43.18630113 -33.51469465 41.67369146 -34.19464111 40.1656189 C-38.41681975 30.79773486 -41.24687009 22.58835553 -39.6315918 12.07226562 C-36.99056378 5.47027247 -32.92265691 2.050584 -26.68237305 -1.15039062 C-17.93848337 -3.37834715 -8.72496966 -1.52979418 0 0 Z " fill="#326CE5" transform="translate(725.631591796875,668.927734375)"/>
<path d="M0 0 C-0.69839913 21.86203967 -1.89248333 43.69612049 -3.10180664 65.53466797 C-3.38382048 70.63262625 -3.65862319 75.73094695 -3.93179226 80.82938576 C-4.14679084 84.81913293 -4.36686293 88.8085891 -4.588274 92.79798508 C-4.69174235 94.67701665 -4.79342313 96.55614769 -4.89312553 98.43538284 C-5.36378126 107.27428859 -5.89404162 116.09856186 -6.89086914 124.89599609 C-7.03037491 126.12788666 -7.16988068 127.35977722 -7.31361389 128.6289978 C-8.79850676 135.92165287 -12.47509313 140.59274653 -18.5625 144.75 C-23.21469048 147.13573871 -27.79523829 147.66226606 -33 147 C-39.53787843 144.82603926 -44.92545528 141.18075901 -50.375 137.0625 C-51.95023256 135.89758598 -53.5271104 134.73489408 -55.10546875 133.57421875 C-55.91032715 132.9817334 -56.71518555 132.38924805 -57.54443359 131.77880859 C-61.53256829 128.88980984 -65.60888751 126.13404923 -69.6875 123.375 C-75.9660141 119.11451179 -82.14100058 114.75071512 -88.23388672 110.22949219 C-93.36319027 106.43536231 -98.57701437 102.77085631 -103.8125 99.125 C-111.15117844 94.0145348 -118.42603353 88.82555526 -125.6628418 83.57202148 C-132.0418294 78.94914009 -138.49688403 74.44647682 -145 70 C-143.92058857 66.7617657 -143.27622354 66.12287693 -140.75 64 C-140.01910156 63.38382812 -139.28820312 62.76765625 -138.53515625 62.1328125 C-137.69855469 61.42898438 -136.86195313 60.72515625 -136 60 C-134.63681641 58.78957031 -134.63681641 58.78957031 -133.24609375 57.5546875 C-99.11743706 27.43754669 -46.53723959 -0.35246277 0 0 Z " fill="#326CE5" transform="translate(569,354)"/>
<path d="M0 0 C4.14689401 1.66077066 7.06717746 4.65980197 10.25 7.6875 C11.41855062 8.7833206 12.58781826 9.87837712 13.7578125 10.97265625 C14.59940918 11.7618042 14.59940918 11.7618042 15.45800781 12.56689453 C17.91210541 14.84769771 20.44303083 17.03511105 22.9765625 19.2265625 C25.51501171 21.45138092 28.00641776 23.72503319 30.5 26 C33.64083556 28.86471815 36.79100756 31.71185902 40 34.5 C44.17729083 38.12944941 48.25537239 41.8647902 52.34375 45.59375 C54.54352741 47.58648953 56.75955218 49.5533814 59 51.5 C63.17729083 55.12944941 67.25537239 58.8647902 71.34375 62.59375 C73.54352741 64.58648953 75.75955218 66.5533814 78 68.5 C102.38266365 89.71543105 102.38266365 89.71543105 103.3125 100.6875 C103.22291362 106.77937351 100.52903996 111.18168222 96.6875 115.75 C89.34198718 121.89973166 80.97614759 123.9924387 71.9296875 126.52734375 C70.42390232 126.95668228 68.91835816 127.38686692 67.41304016 127.81784058 C63.39801452 128.96498935 59.37994027 130.10108064 55.3611412 131.23492813 C51.21333407 132.40707902 47.0682893 133.58890991 42.9230957 134.77026367 C37.95743775 136.18494124 32.99158222 137.59889508 28.02442932 139.00831604 C18.43954098 141.72871302 8.86415428 144.47815726 -0.69921875 147.2734375 C-1.76487061 147.58440872 -2.83052246 147.89537994 -3.9284668 148.21577454 C-7.83065725 149.35493516 -11.73271446 150.49444511 -15.63214111 151.64303589 C-18.19744074 152.39817793 -20.76449816 153.14702553 -23.33203125 153.89453125 C-24.06395187 154.11221161 -24.7958725 154.32989197 -25.54997253 154.5541687 C-28.88650238 155.51995663 -31.48659857 156 -35 156 C-35.74716209 150.63660397 -36.16869437 145.38764994 -36.203125 139.96875 C-36.21013931 139.2238028 -36.21715363 138.47885559 -36.22438049 137.71133423 C-36.24183534 135.30749414 -36.24823739 132.90390124 -36.25 130.5 C-36.25067474 129.67497986 -36.25134949 128.84995972 -36.25204468 127.99993896 C-36.19542471 84.30519772 -25.40569519 36.35220052 0 0 Z " fill="#326CE5" transform="translate(385,472)"/>
<path d="M0 0 C4.07361196 3.67893676 6.5319758 7.39803515 8.875 12.375 C9.21740723 13.0870459 9.55981445 13.7990918 9.91259766 14.53271484 C10.61506501 15.9970816 11.31349427 17.4633925 12.0078125 18.93164062 C12.87847472 20.74666286 13.79505245 22.53951066 14.71875 24.328125 C24.76662597 44.32908566 31.2266158 67.01593553 35 89 C35.16081055 89.89654297 35.32162109 90.79308594 35.48730469 91.71679688 C37.84456328 105.33543309 38.26120618 118.84006242 38.25 132.625 C38.24940582 133.44389709 38.24881165 134.26279419 38.24819946 135.10650635 C38.24166738 137.45917819 38.22519266 139.81148879 38.203125 142.1640625 C38.1987291 142.86623901 38.19433319 143.56841553 38.18980408 144.29187012 C38.132843 148.2878153 37.76148977 152.07733577 37 156 C21.76441821 152.44622172 6.77261395 147.98418302 -8.24930573 143.63370514 C-10.45260959 142.99562424 -12.65606216 142.35805932 -14.85955811 141.72064209 C-20.76364794 140.01261537 -26.66770938 138.30449537 -32.57086182 136.5932312 C-40.08737415 134.4150823 -47.6075796 132.25144047 -55.13679504 130.11749268 C-58.94309855 129.03797564 -62.74682581 127.94958221 -66.55007935 126.859375 C-68.24650185 126.37555027 -69.94413589 125.8959505 -71.64303589 125.42089844 C-92.47917042 119.58945526 -92.47917042 119.58945526 -99 110 C-101.55620464 104.07425288 -101.52225294 98.20541932 -100 92 C-98.39670714 88.91715836 -96.3814104 86.51549882 -94 84 C-93.44828125 83.40574219 -92.8965625 82.81148437 -92.328125 82.19921875 C-88.79426323 78.54377916 -85.00675385 75.19537712 -81.16015625 71.875 C-77.05329258 68.31027204 -73.03593424 64.64457092 -69 61 C-59.51127959 52.43139793 -59.51127959 52.43139793 -55.0625 48.5625 C-50.86696779 44.90942044 -46.76626447 41.15494451 -42.65625 37.40625 C-39.83277331 34.84851229 -36.96943998 32.34230031 -34.09375 29.84375 C-31.53580973 27.59123543 -29.0182102 25.29682908 -26.5 23 C-22.74462591 19.57476869 -18.95696778 16.19712144 -15.1171875 12.8671875 C-11.46696521 9.64798777 -7.89836782 6.33804944 -4.3203125 3.0390625 C-2 1 -2 1 0 0 Z " fill="#326CE5" transform="translate(813,472)"/>
<path d="M0 0 C7.50933528 5.31649867 11.67979929 13.68396316 15.92480469 21.59448242 C16.57287195 22.78384156 17.22198564 23.97263102 17.87207031 25.16088867 C19.23146506 27.64841597 20.58569101 30.13865206 21.93603516 32.63110352 C24.92195748 38.13652522 27.95624899 43.61521158 30.98666382 49.09622192 C32.32824598 51.52395005 33.66725207 53.95309501 35.00636292 56.38218689 C39.19583308 63.98074508 43.40025837 71.57091149 47.61230469 79.15698242 C48.21816406 80.25075195 48.82402344 81.34452148 49.44824219 82.47143555 C52.28529663 87.58480183 55.13826147 92.6874681 58.04794312 97.75982666 C59.05581681 99.51722335 60.05987846 101.27674584 61.06298828 103.03686523 C62.32040759 105.23902409 63.5860259 107.436527 64.86083984 109.62866211 C65.41819824 110.60738281 65.97555664 111.58610352 66.54980469 112.59448242 C67.04609375 113.45428711 67.54238281 114.3140918 68.05371094 115.19995117 C68.98730469 117.40698242 68.98730469 117.40698242 67.98730469 120.40698242 C65.03657547 121.54498758 62.21565641 122.45215546 59.17480469 123.28198242 C58.25642822 123.53810303 57.33805176 123.79422363 56.3918457 124.05810547 C10.87005291 136.24720657 -45.49378341 138.25425971 -90.01269531 120.40698242 C-90.34269531 119.74698242 -90.67269531 119.08698242 -91.01269531 118.40698242 C-90.04736328 116.15820312 -90.04736328 116.15820312 -88.50488281 113.33276367 C-87.65301392 111.76051025 -87.65301392 111.76051025 -86.78393555 110.15649414 C-85.84529663 108.45517334 -85.84529663 108.45517334 -84.88769531 106.71948242 C-84.2427351 105.53763188 -83.5982912 104.35549944 -82.9543457 103.1730957 C-78.33703484 94.71795018 -73.60765521 86.32645136 -68.84033203 77.95507812 C-64.97378584 71.15321114 -61.22024877 64.29665315 -57.51269531 57.40698242 C-52.14416998 47.43535811 -46.63039075 37.55495751 -41.01660156 27.71948242 C-39.12003232 24.3898566 -37.27038052 21.04354031 -35.47753906 17.65698242 C-31.04007994 9.32743981 -26.86188857 2.94728361 -18.63769531 -2.03051758 C-12.11648383 -3.42792004 -5.84533915 -3.50047932 0 0 Z " fill="#326CE5" transform="translate(611.0126953125,721.593017578125)"/>
<path d="M0 0 C5.56440971 4.7468898 8.30533347 9.63210562 8.9609375 16.84375 C8.77802014 27.64823373 3.1938983 38.33723343 -0.97766113 48.1423645 C-2.2906935 51.22917162 -3.58932265 54.32198379 -4.88919067 57.41435242 C-5.59233877 59.08677157 -6.29618932 60.75889554 -7.0007019 62.43074036 C-11.41940425 72.92196199 -15.75932262 83.44570978 -20.1015625 93.96875 C-20.50574402 94.94756134 -20.90992554 95.92637268 -21.32635498 96.93484497 C-27.71496048 112.40633064 -34.06744425 127.89199461 -40.3515625 143.40625 C-45.71004604 141.4365631 -49.79802368 138.4138144 -54.3515625 135.03125 C-55.61697876 134.09502808 -55.61697876 134.09502808 -56.90795898 133.13989258 C-63.11786982 128.47876484 -68.89439153 123.52934598 -74.48828125 118.15234375 C-77.17462861 115.5759424 -79.92867474 113.11016955 -82.7265625 110.65625 C-86.98076781 106.82406186 -90.71498399 102.82209533 -94.3515625 98.40625 C-95.3176278 97.26425478 -96.28378196 96.12233474 -97.25 94.98046875 C-112.0249666 77.34308998 -123.76442856 58.16534676 -133.7265625 37.46875 C-134.14373535 36.60467529 -134.5609082 35.74060059 -134.99072266 34.8503418 C-137.52851406 29.47707844 -139.61444126 24.08926534 -141.3515625 18.40625 C-122.10466193 13.44772646 -102.33062274 10.7392168 -82.72576904 7.59611511 C-73.86591215 6.17271689 -65.01458209 4.6989343 -56.1640625 3.21875 C-55.44354706 3.09832336 -54.72303162 2.97789673 -53.98068237 2.8538208 C-52.57254584 2.61844059 -51.16442892 2.38294303 -49.7563324 2.14732361 C-48.38349964 1.91779892 -47.01058591 1.688758 -45.6375885 1.46022034 C-41.95206612 0.84590727 -38.26897545 0.21975068 -34.58789062 -0.4206543 C-33.79009689 -0.55776321 -32.99230316 -0.69487213 -32.17033386 -0.83613586 C-30.64959387 -1.09759518 -29.12944528 -1.36253022 -27.61006165 -1.63175964 C-18.73185325 -3.14830304 -8.04180755 -4.91638889 0 0 Z " fill="#326CE5" transform="translate(505.3515625,670.59375)"/>
<path d="M0 0 C8.55422102 0.47250788 16.61611676 1.80603448 24.9375 3.8125 C26.08702148 4.08602295 27.23654297 4.3595459 28.42089844 4.64135742 C49.66722684 9.75962633 69.7343205 17.68152105 89 28 C90.15371094 28.61230469 91.30742188 29.22460938 92.49609375 29.85546875 C109.31680329 39.11545073 124.61286405 50.84879162 138.65234375 63.8984375 C141.0107882 66.10950361 141.0107882 66.10950361 144 68 C142.85305404 71.44083787 142.1988862 71.81913606 139.2734375 73.75 C138.49661621 74.27021729 137.71979492 74.79043457 136.91943359 75.32641602 C136.07977051 75.87869873 135.24010742 76.43098145 134.375 77 C132.62363421 78.17374589 130.87364864 79.34955367 129.125 80.52734375 C128.25359375 81.11370605 127.3821875 81.70006836 126.484375 82.30419922 C123.05487471 84.64512974 119.70732827 87.08597835 116.375 89.5625 C109.05217957 94.98954988 101.61604761 100.24587492 94.15722656 105.48388672 C90.60070628 107.983433 87.05057927 110.49202519 83.5 113 C79.22976907 116.01630545 74.95816899 119.03056123 70.6796875 122.03515625 C69.24472458 123.04417543 67.80982838 124.0532895 66.375 125.0625 C65.67439453 125.55427734 64.97378906 126.04605469 64.25195312 126.55273438 C60.09196834 129.48442282 55.99762425 132.48821696 51.93359375 135.55126953 C41.91127016 143.06041955 34.09803407 147.87114772 21 146 C14.47901843 143.72864687 10.95205442 139.05614599 8 133 C7.05365995 130.16097986 6.78504765 128.06786916 6.61399841 125.10617065 C6.5235878 123.59232536 6.5235878 123.59232536 6.43135071 122.04789734 C6.36949081 120.94138321 6.30763092 119.83486908 6.24389648 118.69482422 C6.17547546 117.52866074 6.10705444 116.36249725 6.03656006 115.16099548 C5.84967872 111.96042444 5.66649602 108.75966808 5.48510242 105.5587821 C5.29423304 102.20359598 5.0991002 98.84865755 4.90455627 95.49368286 C4.57813379 89.85304591 4.25497688 84.21222914 3.93383789 78.57128906 C3.56349319 72.06657563 3.18845734 65.56214618 2.81076568 59.05785549 C2.44682522 52.78907864 2.08584988 46.52013459 1.72633553 40.25110245 C1.57371224 37.59020898 1.42001117 34.92938444 1.2658062 32.26858139 C1.0502043 28.53971019 0.83799497 24.81066089 0.62670898 21.08154297 C0.56282486 19.98717422 0.49894073 18.89280548 0.43312073 17.76527405 C0.10090606 11.83179205 -0.06215792 5.9428007 0 0 Z " fill="#326CE5" transform="translate(631,354)"/>
<path d="M0 0 C0.90196106 0.01350494 1.80392212 0.02700989 2.73321533 0.04092407 C19.38867441 0.37063745 19.38867441 0.37063745 25.28125 5.03515625 C28.22361741 8.23821418 30.1846263 11.80348296 32.015625 15.72851562 C33.8075618 19.19566095 36.42231985 21.91073073 39 24.8125 C42.16854088 28.5025092 43.16053811 29.92482309 42.9765625 34.84375 C42.84266113 35.61388428 42.70875977 36.38401855 42.57080078 37.17749023 C42.0437925 40.36638099 41.87591298 43.52948953 41.65625 46.75390625 C39.4862841 65.70216136 39.4862841 65.70216136 33.51043701 71.4197998 C28.91214498 74.94777494 23.84005418 77.46522391 18.5625 79.8125 C17.8111377 80.14710236 17.05977539 80.48170471 16.28564453 80.82644653 C4.38451648 85.95959879 -2.72736607 85.87000993 -15.0234375 81.1796875 C-33.21703044 73.82950979 -33.21703044 73.82950979 -37.11816406 65.94482422 C-41.56388605 54.90993786 -44.29718155 40.54204785 -41.875 28.875 C-40.30904764 26.63008305 -38.84860642 24.78621928 -37 22.8125 C-36.1030186 21.82500994 -35.21003955 20.83387496 -34.3203125 19.83984375 C-33.79228027 19.27523437 -33.26424805 18.710625 -32.72021484 18.12890625 C-31.1776445 16.24467637 -29.98647675 14.46076056 -28.73681641 12.38671875 C-21.20147655 0.48761303 -13.54818816 -0.49757749 0 0 Z " fill="#326CE5" transform="translate(599.875,561.125)"/>
</svg>
