<?xml version="1.0" encoding="UTF-8"?>
<svg version="1.1" xmlns="http://www.w3.org/2000/svg" width="1024" height="1024">
<path d="M0 0 C337.92 0 675.84 0 1024 0 C1024 337.92 1024 675.84 1024 1024 C686.08 1024 348.16 1024 0 1024 C0 686.08 0 348.16 0 0 Z " fill="#007EBB" transform="translate(0,0)"/>
<path d="M0 0 C2.76210619 0.01069642 5.52355831 0.00006259 8.28564453 -0.01269531 C49.43484151 -0.04518607 91.34470874 12.17490148 122.89892578 39.26074219 C124.38005859 40.51371094 124.38005859 40.51371094 125.89111328 41.79199219 C132.31642404 47.41636393 137.69505458 53.50598658 142.89892578 60.26074219 C143.99140625 61.61232422 143.99140625 61.61232422 145.10595703 62.99121094 C158.67500941 80.21986764 168.29348644 101.11617354 173.89892578 122.26074219 C174.0905127 122.94104492 174.28209961 123.62134766 174.47949219 124.32226562 C177.60756782 135.52287313 179.60320327 146.81958211 181.02679443 158.35618591 C181.11450355 159.06685164 181.20221266 159.77751736 181.29257962 160.50971841 C183.20617252 176.40523148 183.45143056 192.16788632 183.36318827 208.15918028 C183.34548197 212.20975877 183.35178953 216.2603219 183.35479736 220.31092834 C183.35686823 227.28564275 183.34460152 234.26020445 183.32184601 241.23488045 C183.28896963 251.31835839 183.27888315 261.40176451 183.27389404 271.48529022 C183.26519636 287.85555081 183.2387331 304.22573047 183.20068359 320.59594727 C183.16381882 336.47322194 183.13562444 352.35047431 183.11865234 368.2277832 C183.11758035 369.22075029 183.11650836 370.21371738 183.11540389 371.23677438 C183.10708343 379.00546529 183.0992567 386.77415666 183.09158564 394.54284823 C183.05403021 432.44888721 182.97351538 470.354723 182.89892578 508.26074219 C132.73892578 508.26074219 82.57892578 508.26074219 30.89892578 508.26074219 C30.84994141 488.71339844 30.80095703 469.16605469 30.75048828 449.02636719 C30.71509601 436.63052963 30.67922409 424.23469624 30.64111328 411.83886719 C30.62110827 405.32389368 30.60122431 398.80891981 30.58154297 392.29394531 C30.57907153 391.4775121 30.57660009 390.66107889 30.57405376 389.81990528 C30.53444277 376.67631997 30.5016529 363.53272618 30.47142597 350.38911632 C30.4402017 336.8785662 30.40154633 323.36805174 30.35613573 309.8575418 C30.32839361 301.53533736 30.3062995 293.2131587 30.29166327 284.89092073 C30.28103935 279.16733339 30.26313256 273.44379626 30.23975874 267.72024694 C30.22652379 264.42871823 30.21733766 261.13727105 30.21471214 257.84571457 C30.19224296 230.46053699 30.19224296 230.46053699 25.71142578 203.51074219 C25.49856934 202.64787598 25.28571289 201.78500977 25.06640625 200.89599609 C20.01173327 181.44969558 9.85330474 162.12089185 -7.31201172 150.85449219 C-21.39599781 142.80650014 -35.6209532 139.71912583 -51.72924805 139.81469727 C-53.90168668 139.82319568 -56.07147175 139.79433973 -58.24365234 139.76269531 C-71.17862971 139.69637287 -83.90277839 141.7812027 -95.41357422 148.01074219 C-96.06962646 148.35290771 -96.72567871 148.69507324 -97.40161133 149.04760742 C-103.37442583 152.24474685 -108.87057846 155.94911731 -114.10107422 160.26074219 C-115.02919922 161.01871094 -115.02919922 161.01871094 -115.97607422 161.79199219 C-133.52194742 177.7132475 -141.82213935 204.36411135 -144.10107422 227.26074219 C-144.25247292 231.09720932 -144.2557929 234.93125166 -144.2592926 238.77037048 C-144.26423058 239.92382967 -144.26916856 241.07728886 -144.27425617 242.26570135 C-144.28692647 245.45373009 -144.29523712 248.64173537 -144.30168283 251.82978165 C-144.30971482 255.27278447 -144.32340289 258.71576542 -144.33639526 262.15875244 C-144.35811843 268.1194636 -144.37627805 274.08017701 -144.3920002 280.04090691 C-144.41473681 288.65906413 -144.44287432 297.27719711 -144.47231948 305.89533371 C-144.51994898 319.87853532 -144.5632257 333.86174686 -144.60375977 347.8449707 C-144.64313834 361.42635878 -144.68458139 375.00773799 -144.72875977 388.58911133 C-144.73150927 389.4351537 -144.73425878 390.28119606 -144.7370916 391.15287608 C-144.75861143 397.7697288 -144.7802508 404.38658114 -144.80192792 411.00343335 C-144.90810381 443.4225184 -145.00385617 475.84162664 -145.10107422 508.26074219 C-193.61107422 508.26074219 -242.12107422 508.26074219 -292.10107422 508.26074219 C-292.10107422 345.57074219 -292.10107422 182.88074219 -292.10107422 15.26074219 C-243.59107422 15.26074219 -195.08107422 15.26074219 -145.10107422 15.26074219 C-144.77107422 36.05074219 -144.44107422 56.84074219 -144.10107422 78.26074219 C-140.80107422 73.64074219 -137.50107422 69.02074219 -134.10107422 64.26074219 C-132.10413522 61.89338406 -130.18051885 59.65516332 -128.03857422 57.44824219 C-127.53092529 56.91457031 -127.02327637 56.38089844 -126.50024414 55.83105469 C-125.49390574 54.77693148 -124.48376164 53.72642387 -123.46923828 52.68017578 C-122.27332543 51.43944821 -121.10288719 50.17426786 -119.93701172 48.90527344 C-99.31840565 27.05273534 -70.04259309 12.02280627 -41.22607422 4.63574219 C-40.02253296 4.32588379 -40.02253296 4.32588379 -38.79467773 4.00976562 C-25.81066368 0.80833488 -13.31843561 -0.06123419 0 0 Z " fill="#FEFEFE" transform="translate(699.10107421875,373.7392578125)"/>
<path d="M0 0 C50.49 0 100.98 0 153 0 C153 162.69 153 325.38 153 493 C102.51 493 52.02 493 0 493 C0 330.31 0 167.62 0 0 Z " fill="#FEFEFE" transform="translate(157,389)"/>
<path d="M0 0 C2.77624181 2.22250022 5.4665422 4.50992953 8.12890625 6.8671875 C8.75410156 7.40859375 9.37929688 7.95 10.0234375 8.5078125 C24.60371035 22.02956437 32.02330258 39.86221568 36.12890625 58.8671875 C36.30470215 59.50390381 36.48049805 60.14062012 36.66162109 60.79663086 C41.26514759 81.1950155 33.93605977 104.71106901 23.7421875 122.359375 C10.05973844 143.62846047 -9.87084106 157.57737862 -34.34057617 163.73803711 C-57.88840396 168.81104181 -82.0920466 163.36020821 -102.484375 151.19921875 C-108.58956912 147.17201327 -113.75475978 142.0552039 -118.87109375 136.8671875 C-120.01384766 135.73990234 -120.01384766 135.73990234 -121.1796875 134.58984375 C-136.14727325 118.92202007 -144.45622333 94.8724992 -144.22265625 73.46948242 C-143.37780247 47.36408741 -133.09079496 24.11980774 -114.17578125 5.8671875 C-82.30732857 -21.78814771 -34.46903822 -25.60557125 0 0 Z " fill="#FEFEFE" transform="translate(285.87109375,159.1328125)"/>
<path d="M0 0 C0.33 0 0.66 0 1 0 C1 32.67 1 65.34 1 99 C-31.67 99 -64.34 99 -98 99 C-98 98.67 -98 98.34 -98 98 C-97.09121094 97.84144531 -96.18242188 97.68289063 -95.24609375 97.51953125 C-73.87453966 93.55209403 -54.22786712 85.76001984 -38 71 C-37.26136719 70.41347656 -36.52273438 69.82695313 -35.76171875 69.22265625 C-15.5450364 52.81231196 -3.06011958 25.44369086 0 0 Z " fill="#000000" transform="translate(1023,925)"/>
<path d="M0 0 C0.33 0 0.66 0 1 0 C1.14695313 0.969375 1.29390625 1.93875 1.4453125 2.9375 C5.94300141 30.60351669 19.82206549 56.46991645 42 74 C42.73992188 74.58652344 43.47984375 75.17304687 44.2421875 75.77734375 C60.65316519 87.96125143 79.02239966 94.51454632 99 98 C99 98.33 99 98.66 99 99 C66.33 99 33.66 99 0 99 C0 66.33 0 33.66 0 0 Z " fill="#000000" transform="translate(0,925)"/>
<path d="M0 0 C32.67 0 65.34 0 99 0 C99 32.67 99 65.34 99 99 C98.67 99 98.34 99 98 99 C97.76216797 97.63681641 97.76216797 97.63681641 97.51953125 96.24609375 C93.69127568 75.62427506 86.28393654 55.74319921 72 40 C71.29230469 39.16339844 70.58460938 38.32679687 69.85546875 37.46484375 C52.10628391 16.85589533 26.63463429 4.85425593 0 1 C0 0.67 0 0.34 0 0 Z " fill="#000000" transform="translate(925,0)"/>
<path d="M0 0 C32.67 0 65.34 0 99 0 C99 0.33 99 0.66 99 1 C97.5459375 1.22042969 97.5459375 1.22042969 96.0625 1.4453125 C67.4722495 6.10113037 40.39620782 21.20043426 22.72875977 44.46679688 C11.06879411 60.74241003 3.51909501 79.14802739 1 99 C0.67 99 0.34 99 0 99 C0 66.33 0 33.66 0 0 Z " fill="#000000" transform="translate(0,0)"/>
</svg>
