<?xml version="1.0" standalone="no"?>
<!DOCTYPE svg PUBLIC "-//W3C//DTD SVG 20010904//EN"
 "http://www.w3.org/TR/2001/REC-SVG-20010904/DTD/svg10.dtd">
<svg version="1.0" xmlns="http://www.w3.org/2000/svg"
 width="1200.000000pt" height="1200.000000pt" viewBox="0 0 1200.000000 1200.000000"
 preserveAspectRatio="xMidYMid meet">

<g transform="translate(0.000000,1200.000000) scale(0.100000,-0.100000)"
fill="#000000" stroke="none">
<path d="M5695 11899 c-1654 -84 -3183 -849 -4246 -2124 -696 -835 -1151
-1860 -1303 -2935 -32 -228 -51 -439 -40 -449 5 -5 707 -295 1559 -646 853
-351 1564 -644 1580 -651 28 -11 35 -9 105 34 137 83 338 159 525 198 44 9
145 19 225 22 l145 7 723 1049 722 1049 0 98 c0 282 85 628 225 914 498 1020
1680 1509 2750 1138 140 -49 381 -169 502 -250 550 -369 902 -936 988 -1587
19 -151 19 -421 0 -572 -76 -574 -369 -1101 -810 -1457 -391 -315 -830 -481
-1330 -504 l-141 -6 -1029 -736 -1030 -737 -7 -134 c-38 -795 -654 -1448
-1451 -1540 -141 -17 -369 -7 -502 20 -613 128 -1085 566 -1258 1170 l-25 85
-1108 457 c-609 251 -1110 456 -1112 454 -6 -7 20 -90 84 -268 429 -1185 1228
-2206 2274 -2905 868 -581 1847 -912 2905 -984 192 -13 748 -7 915 10 340 35
633 86 924 160 1661 425 3053 1548 3822 3083 334 667 522 1331 600 2118 25
243 25 793 0 1045 -87 911 -358 1745 -809 2500 -668 1115 -1692 1989 -2887
2462 -801 317 -1636 456 -2485 412z"/>
<path d="M7805 8969 c-585 -49 -1087 -441 -1283 -1000 -61 -174 -77 -273 -77
-489 0 -213 10 -279 67 -460 79 -249 244 -501 436 -665 375 -322 864 -443
1331 -330 788 191 1279 967 1115 1763 -57 277 -200 538 -409 747 -207 208
-456 345 -735 406 -81 17 -288 41 -335 37 -11 0 -60 -4 -110 -9z m260 -370
c525 -64 929 -477 986 -1009 48 -437 -181 -873 -573 -1092 -101 -57 -264 -112
-377 -129 -117 -16 -334 -7 -434 20 -253 67 -468 208 -620 406 -340 446 -308
1057 76 1462 96 101 182 164 312 228 210 105 411 141 630 114z"/>
<path d="M4075 4969 c-136 -9 -349 -60 -328 -79 4 -4 175 -76 378 -160 204
-83 403 -170 444 -191 227 -122 390 -330 458 -586 37 -140 37 -326 0 -465 -93
-351 -369 -611 -726 -683 -112 -23 -314 -16 -416 14 -38 11 -234 88 -435 171
-201 84 -376 156 -389 161 -22 9 -22 8 9 -48 96 -171 261 -349 414 -448 445
-290 1025 -272 1447 44 68 52 188 170 240 237 276 358 339 858 160 1273 -146
339 -412 584 -759 701 -154 51 -314 70 -497 59z"/>
</g>
</svg>
