<?xml version="1.0" encoding="UTF-8"?>
<svg version="1.1" xmlns="http://www.w3.org/2000/svg" width="1200" height="1200">
<path d="M0 0 C3.39294456 2.28874625 6.77846569 4.58823406 10.16104126 6.89227295 C14.89230182 10.11386629 19.63295453 13.32155595 24.37454224 16.52792358 C25.35545837 17.19131241 26.33637451 17.85470123 27.34701538 18.53819275 C42.58645104 28.8278288 57.97415491 38.89445181 73.34408569 48.98753357 C78.80633884 52.57686 84.25034929 56.19232624 89.68399048 59.82476807 C94.76288895 63.21621687 99.86343142 66.57414617 104.96829224 69.92636108 C124.57998545 82.80852202 144.12647316 95.77641102 163.55670166 108.93084717 C176.24997698 117.52126024 189.00068854 126.0175432 201.81091309 134.43255615 C209.09092832 139.21622661 216.36254564 144.01266556 223.63430786 148.80886841 C225.494467 150.03511834 227.35515701 151.26056328 229.21633911 152.48526001 C234.80406968 156.16226152 240.38230414 159.85288911 245.94744873 163.56399536 C247.67363212 164.7119002 249.40301327 165.85501377 251.13586426 166.99282837 C266.11346907 176.83436433 277.4991745 186.01968489 281.96200509 204.25961665 C282.77363265 208.74455523 282.66567141 213.24256331 282.64743614 217.78740978 C282.65094222 218.89694217 282.65444829 220.00647456 282.65806061 221.14962915 C282.66738128 224.87597143 282.66244947 228.60215766 282.65759277 232.32850647 C282.66132869 235.02377057 282.66585021 237.71902303 282.67132342 240.4142831 C282.68162226 246.27879229 282.68446741 252.14326846 282.68241119 258.0077858 C282.67936091 266.72877904 282.68768581 275.44973576 282.69816045 284.1707219 C282.71750421 300.65328319 282.72312881 317.13583204 282.72427456 333.61840334 C282.72519361 346.3474142 282.72931008 359.07642018 282.73567581 371.80542946 C282.7374709 375.46932834 282.73925053 379.13322723 282.74102557 382.79712611 C282.74146766 383.70798151 282.74190976 384.61883691 282.74236525 385.55729398 C282.75467407 411.17889777 282.76256634 436.80049987 282.7616787 462.42210674 C282.76164754 463.38814138 282.76161638 464.35417603 282.76158428 465.34948445 C282.76141806 470.24575755 282.76121998 475.14203065 282.76101486 480.03830376 C282.76095503 481.49693114 282.76095503 481.49693114 282.76089398 482.98502575 C282.76081311 484.9514928 282.76072951 486.91795985 282.7606432 488.88442691 C282.75941775 519.4780952 282.7744297 550.07171915 282.80178833 580.66537476 C282.83251277 615.03700115 282.8497206 649.40859841 282.84786189 683.7802394 C282.84771262 687.44571006 282.84761521 691.11118072 282.84755325 694.77665138 C282.84751829 696.13044925 282.84751829 696.13044925 282.84748262 697.51159657 C282.84742109 712.03259963 282.86019018 726.55356419 282.87741778 741.07455581 C282.89437565 755.67012483 282.8963469 770.26563754 282.88319914 784.86121096 C282.87581098 793.53020823 282.87946391 802.19903441 282.89908382 810.86801353 C282.91108976 816.66283403 282.90848595 822.45753072 282.89414282 828.25234556 C282.88638489 831.55139043 282.88703383 834.85003942 282.90105753 838.14907321 C282.97311267 856.30319344 282.73276111 873.03563886 269.32400513 886.90097046 C265.43076424 890.75451536 261.19243751 893.68606597 256.59329224 896.63339233 C255.74414246 897.18788055 254.89499268 897.74236877 254.02011108 898.31365967 C252.18901434 899.50838277 250.35549811 900.69940436 248.51980591 901.88705444 C243.54312639 905.10765595 238.58498978 908.35661894 233.62454224 911.60214233 C232.09241089 912.60310944 232.09241089 912.60310944 230.52932739 913.6242981 C220.24467974 920.35282854 210.06284972 927.22945561 199.89016724 934.12557983 C184.54750407 944.51633544 169.11909695 954.76722372 153.62991333 964.93807983 C139.98264386 973.90262846 126.41118936 982.97182566 112.89016724 992.12557983 C97.55377484 1002.50834266 82.13583942 1012.75735855 66.65408325 1022.92196655 C50.74808255 1033.36858981 34.9461526 1043.96294444 19.19876099 1054.64706421 C14.27222651 1057.98771514 9.33403338 1061.31064552 4.39016724 1064.62557983 C3.07943237 1065.50802368 3.07943237 1065.50802368 1.74221802 1066.40829468 C-0.91013517 1068.1888786 -3.57115717 1069.95574036 -6.23483276 1071.71932983 C-7.42435547 1072.52110657 -7.42435547 1072.52110657 -8.63790894 1073.33908081 C-21.16448169 1081.5701329 -34.24330065 1084.71974668 -49.12936401 1081.97714233 C-65.01453204 1077.56773626 -75.33653956 1065.91838171 -85.32858276 1053.41073608 C-87.66689958 1050.5559075 -90.10897994 1047.8386964 -92.60983276 1045.12557983 C-96.72362185 1040.65572863 -100.58070573 1036.0351309 -104.39498901 1031.30917358 C-106.56616103 1028.67849426 -108.81224633 1026.14615559 -111.10983276 1023.62557983 C-114.20538473 1020.22959302 -117.16134483 1016.76386453 -120.04733276 1013.18807983 C-123.90808413 1008.41417684 -127.98420352 1003.89169556 -132.14108276 999.37557983 C-135.33864573 995.81373755 -138.32371619 992.0999215 -141.32858276 988.37557983 C-143.67702245 985.54458405 -146.11893179 982.83174386 -148.60983276 980.12557983 C-152.72362185 975.65572863 -156.58070573 971.0351309 -160.39498901 966.30917358 C-162.56616103 963.67849426 -164.81224633 961.14615559 -167.10983276 958.62557983 C-170.20538473 955.22959302 -173.16134483 951.76386453 -176.04733276 948.18807983 C-179.90808413 943.41417684 -183.98420352 938.89169556 -188.14108276 934.37557983 C-191.33864573 930.81373755 -194.32371619 927.0999215 -197.32858276 923.37557983 C-199.67702245 920.54458405 -202.11893179 917.83174386 -204.60983276 915.12557983 C-208.70334368 910.67830872 -212.53425775 906.0784052 -216.32858276 901.37557983 C-218.67702245 898.54458405 -221.11893179 895.83174386 -223.60983276 893.12557983 C-227.72362185 888.65572863 -231.58070573 884.0351309 -235.39498901 879.30917358 C-237.56616103 876.67849426 -239.81224633 874.14615559 -242.10983276 871.62557983 C-245.20538473 868.22959302 -248.16134483 864.76386453 -251.04733276 861.18807983 C-254.90808413 856.41417684 -258.98420352 851.89169556 -263.14108276 847.37557983 C-266.33864573 843.81373755 -269.32371619 840.0999215 -272.32858276 836.37557983 C-274.67702245 833.54458405 -277.11893179 830.83174386 -279.60983276 828.12557983 C-283.70334368 823.67830872 -287.53425775 819.0784052 -291.32858276 814.37557983 C-293.67702245 811.54458405 -296.11893179 808.83174386 -298.60983276 806.12557983 C-302.72362185 801.65572863 -306.58070573 797.0351309 -310.39498901 792.30917358 C-312.56616103 789.67849426 -314.81224633 787.14615559 -317.10983276 784.62557983 C-320.20538473 781.22959302 -323.16134483 777.76386453 -326.04733276 774.18807983 C-329.90808413 769.41417684 -333.98420352 764.89169556 -338.14108276 760.37557983 C-340.5536138 757.68820349 -342.84239487 754.9359254 -345.10983276 752.12557983 C-349.02240396 747.27648894 -353.15052716 742.67148374 -357.36764526 738.08651733 C-359.87564327 735.33383659 -362.26506967 732.51745431 -364.60983276 729.62557983 C-368.06327447 731.10666856 -370.25904602 733.05379683 -372.87545776 735.73104858 C-374.08782104 736.95984741 -374.08782104 736.95984741 -375.32467651 738.21347046 C-376.16127808 739.07134155 -376.99787964 739.92921265 -377.85983276 740.81307983 C-382.98312175 746.04494716 -388.11038446 751.14590635 -393.6713562 755.91195679 C-397.14677334 758.98424304 -400.36303977 762.31537292 -403.60983276 765.62557983 C-408.12958588 770.23360938 -412.71915503 774.6357578 -417.60983276 778.84823608 C-421.09954554 781.94944568 -424.34199896 785.29392115 -427.60983276 788.62557983 C-432.12958588 793.23360938 -436.71915503 797.6357578 -441.60983276 801.84823608 C-445.09954554 804.94944568 -448.34199896 808.29392115 -451.60983276 811.62557983 C-456.12958588 816.23360938 -460.71915503 820.6357578 -465.60983276 824.84823608 C-469.09954554 827.94944568 -472.34199896 831.29392115 -475.60983276 834.62557983 C-480.12958588 839.23360938 -484.71915503 843.6357578 -489.60983276 847.84823608 C-493.09954554 850.94944568 -496.34199896 854.29392115 -499.60983276 857.62557983 C-504.12958588 862.23360938 -508.71915503 866.6357578 -513.60983276 870.84823608 C-517.09954554 873.94944568 -520.34199896 877.29392115 -523.60983276 880.62557983 C-527.50564617 884.59748335 -531.39952817 888.49833075 -535.62155151 892.12557983 C-539.08753251 895.10874181 -542.27190439 898.28327166 -545.44259644 901.57577515 C-557.25910269 913.81050033 -568.93261764 922.51737376 -586.60983276 923.12557983 C-604.38532647 922.53306338 -616.43117115 912.92024012 -629.77389526 902.39901733 C-634.41908281 898.7498958 -639.1526417 895.23464927 -643.92233276 891.75057983 C-650.711702 886.7853769 -657.43132051 881.73892123 -664.10983276 876.62557983 C-670.72921551 871.55895174 -677.38486483 866.55122524 -684.10983276 861.62557983 C-691.73723293 856.03895563 -699.26627841 850.33281645 -706.77389526 844.58651733 C-712.50886004 840.20493658 -718.28742839 835.89015026 -724.10983276 831.62557983 C-731.73723293 826.03895563 -739.26627841 820.33281645 -746.77389526 814.58651733 C-752.50886971 810.20492919 -758.2877304 805.89057289 -764.10983276 801.62557983 C-771.04887445 796.53616759 -777.94203009 791.38981794 -784.79733276 786.18807983 C-785.65842651 785.5377478 -786.51952026 784.88741577 -787.40670776 784.21737671 C-800.98420697 773.88020399 -812.16523072 764.10114058 -815.60983276 746.62557983 C-815.78230639 744.09631293 -815.86432003 741.55964953 -815.86710167 739.02451038 C-815.87060774 738.29992719 -815.87411382 737.575344 -815.87772614 736.82880375 C-815.8869961 734.41192962 -815.8821283 731.99529878 -815.8772583 729.57841492 C-815.88099679 727.82360854 -815.8855991 726.06880382 -815.89098895 724.31400174 C-815.9032099 719.50008492 -815.90295954 714.68623764 -815.90060019 709.87230885 C-815.9001918 704.67718571 -815.91123339 699.48208481 -815.92071533 694.28697205 C-815.93732155 684.11153994 -815.94282472 673.93613101 -815.94394009 663.76068649 C-815.94489078 655.4881969 -815.94900213 647.21571495 -815.95534134 638.94322777 C-815.97295302 615.4825556 -815.98218037 592.02190172 -815.98068039 568.56122289 C-815.98060048 567.2967014 -815.98052057 566.03217992 -815.98043823 564.7293396 C-815.98035647 563.46327175 -815.98027471 562.19720391 -815.98019047 560.89277037 C-815.97937768 540.37727479 -815.99851383 519.86185265 -816.02671497 499.3463783 C-816.05545178 478.27471579 -816.06925481 457.20308909 -816.06752741 436.13140649 C-816.06686377 424.30390998 -816.07234484 412.47649045 -816.09388351 400.64901161 C-816.1121058 390.57819394 -816.11643401 380.50748814 -816.10286467 370.4366611 C-816.09634026 365.30086588 -816.0961989 360.16528523 -816.11357117 355.0295105 C-816.12933011 350.32215921 -816.1264094 345.61519212 -816.1090029 340.90785005 C-816.10593922 339.21069376 -816.10954143 337.5135086 -816.12072305 335.81638638 C-816.22086151 319.5307279 -813.18697936 306.61909649 -801.92233276 294.43807983 C-796.07256622 288.79339692 -789.41836246 284.18501523 -782.84420776 279.43417358 C-777.52852882 275.58897972 -772.31473089 271.61886016 -767.10983276 267.62557983 C-759.72413764 261.97111875 -752.27786805 256.4108632 -744.77389526 250.91464233 C-738.83311843 246.55280951 -732.96230016 242.10503435 -727.10983276 237.62557983 C-719.72341485 231.97204589 -712.27788811 226.41087789 -704.77389526 220.91464233 C-698.83311843 216.55280951 -692.96230016 212.10503435 -687.10983276 207.62557983 C-679.72341485 201.97204589 -672.27788811 196.41087789 -664.77389526 190.91464233 C-658.83310818 186.55280199 -652.96265459 182.104583 -647.10983276 177.62557983 C-637.36143541 170.17510908 -627.57409416 162.78586483 -617.60983276 155.62557983 C-616.56311401 154.87147827 -615.51639526 154.11737671 -614.43795776 153.34042358 C-603.78512192 146.08972173 -592.44914782 143.21656206 -579.60983276 144.62557983 C-561.76237525 148.21523796 -550.4286302 160.60100008 -538.13864136 173.13314819 C-535.07090824 176.24496504 -531.9604242 179.23398021 -528.64889526 182.08651733 C-523.70314489 186.35224199 -519.18027207 191.00493663 -514.60983276 195.66464233 C-511.36985739 198.94258617 -508.10286208 202.11693544 -504.60983276 205.12557983 C-499.67521145 209.37590795 -495.16729888 214.01816321 -490.60983276 218.66464233 C-487.36985739 221.94258617 -484.10286208 225.11693544 -480.60983276 228.12557983 C-475.67521145 232.37590795 -471.16729888 237.01816321 -466.60983276 241.66464233 C-463.36985739 244.94258617 -460.10286208 248.11693544 -456.60983276 251.12557983 C-451.67521145 255.37590795 -447.16729888 260.01816321 -442.60983276 264.66464233 C-439.38009079 267.93223285 -436.12471651 271.09710316 -432.64108276 274.09432983 C-427.46668299 278.55118589 -422.74732707 283.44004374 -417.96530151 288.30917358 C-413.96439022 292.35397056 -409.87301236 296.1871264 -405.56100464 299.89706421 C-402.25930631 302.82199216 -399.19675049 305.97743133 -396.10983276 309.12557983 C-390.4925522 314.83101197 -390.4925522 314.83101197 -384.54733276 320.18807983 C-381.94218795 322.42375156 -379.44845475 324.722866 -377.01998901 327.14901733 C-376.37747192 327.79024536 -375.73495483 328.43147339 -375.07296753 329.09213257 C-372.24576242 331.93058883 -369.42482425 334.77500559 -366.60983276 337.62557983 C-363.058875 335.96562631 -361.02433887 334.15029079 -358.42233276 331.18807983 C-357.63342651 330.29089233 -356.84452026 329.39370483 -356.03170776 328.46932983 C-352.93432484 324.83240278 -349.93004904 321.12501248 -346.92623901 317.41073608 C-343.77009224 313.61590868 -340.42425952 310.01049794 -337.08248901 306.37948608 C-333.86273758 302.793507 -330.85078101 299.05856491 -327.82467651 295.30917358 C-324.9450239 291.82007068 -321.90289401 288.49561063 -318.85592651 285.15292358 C-316.54795679 282.55595591 -314.35427414 279.89153971 -312.17233276 277.18807983 C-308.31274673 272.4156178 -304.23783286 267.89448875 -300.08248901 263.37948608 C-296.86273758 259.793507 -293.85078101 256.05856491 -290.82467651 252.30917358 C-287.9450239 248.82007068 -284.90289401 245.49561063 -281.85592651 242.15292358 C-279.54795679 239.55595591 -277.35427414 236.89153971 -275.17233276 234.18807983 C-271.31274673 229.4156178 -267.23783286 224.89448875 -263.08248901 220.37948608 C-259.86273758 216.793507 -256.85078101 213.05856491 -253.82467651 209.30917358 C-250.9450239 205.82007068 -247.90289401 202.49561063 -244.85592651 199.15292358 C-242.54795679 196.55595591 -240.35427414 193.89153971 -238.17233276 191.18807983 C-234.31158139 186.41417684 -230.23546201 181.89169556 -226.07858276 177.37557983 C-223.66605173 174.68820349 -221.37727066 171.9359254 -219.10983276 169.12557983 C-216.05634598 165.34097649 -212.90314975 161.70350446 -209.60983276 158.12557983 C-205.49604368 153.65572863 -201.6389598 149.0351309 -197.82467651 144.30917358 C-194.9450239 140.82007068 -191.90289401 137.49561063 -188.85592651 134.15292358 C-186.54795679 131.55595591 -184.35427414 128.89153971 -182.17233276 126.18807983 C-178.31274673 121.4156178 -174.23783286 116.89448875 -170.08248901 112.37948608 C-166.86273758 108.793507 -163.85078101 105.05856491 -160.82467651 101.30917358 C-157.9450239 97.82007068 -154.90289401 94.49561063 -151.85592651 91.15292358 C-149.54795679 88.55595591 -147.35427414 85.89153971 -145.17233276 83.18807983 C-141.31158139 78.41417684 -137.23546201 73.89169556 -133.07858276 69.37557983 C-130.66605173 66.68820349 -128.37727066 63.9359254 -126.10983276 61.12557983 C-123.05634598 57.34097649 -119.90314975 53.70350446 -116.60983276 50.12557983 C-112.49604368 45.65572863 -108.6389598 41.0351309 -104.82467651 36.30917358 C-101.9450239 32.82007068 -98.90289401 29.49561063 -95.85592651 26.15292358 C-93.54795679 23.55595591 -91.35427414 20.89153971 -89.17233276 18.18807983 C-85.22547215 13.30807354 -81.07336346 8.66306321 -76.80905151 4.05917358 C-75.13637473 2.2082364 -73.64421849 0.37883225 -72.17233276 -1.62442017 C-50.6647407 -24.70573848 -22.40129626 -14.99866802 0 0 Z M-0.29733276 377.75057983 C-0.9670813 378.37714478 -1.63682983 379.00370972 -2.32687378 379.64926147 C-7.55836029 384.57124344 -12.66641056 389.6062214 -17.68869019 394.74130249 C-20.53639829 397.63450114 -23.44374025 400.38534871 -26.51998901 403.03573608 C-30.76083478 406.69983089 -34.68712602 410.62625772 -38.60983276 414.62557983 C-43.12958588 419.23360938 -47.71915503 423.6357578 -52.60983276 427.84823608 C-56.09954554 430.94944568 -59.34199896 434.29392115 -62.60983276 437.62557983 C-67.12958588 442.23360938 -71.71915503 446.6357578 -76.60983276 450.84823608 C-80.09954554 453.94944568 -83.34199896 457.29392115 -86.60983276 460.62557983 C-91.12958588 465.23360938 -95.71915503 469.6357578 -100.60983276 473.84823608 C-104.09954554 476.94944568 -107.34199896 480.29392115 -110.60983276 483.62557983 C-114.49266984 487.58425357 -118.37323939 491.47616321 -122.57858276 495.09432983 C-126.98186459 498.88700031 -131.039702 502.9813119 -135.10983276 507.12557983 C-139.85243659 511.95456988 -144.64803834 516.60750691 -149.77975464 521.02255249 C-152.34025583 523.26538211 -154.71944664 525.6394939 -157.10983276 528.06307983 C-157.96577026 528.92804077 -158.82170776 529.79300171 -159.70358276 530.68417358 C-160.33264526 531.32483765 -160.96170776 531.96550171 -161.60983276 532.62557983 C-160.22354032 535.74882528 -158.61471706 537.8674869 -156.19577026 540.27011108 C-155.17676636 541.2862146 -155.17676636 541.2862146 -154.13717651 542.32284546 C-153.42690308 543.0208728 -152.71662964 543.71890015 -151.98483276 544.43807983 C-150.95422729 545.46771851 -150.95422729 545.46771851 -149.90280151 546.51815796 C-146.55393751 549.83874826 -143.15907397 553.05815618 -139.58639526 556.13729858 C-134.66335366 560.38681977 -130.16084146 565.02474675 -125.60983276 569.66464233 C-122.36985739 572.94258617 -119.10286208 576.11693544 -115.60983276 579.12557983 C-110.67521145 583.37590795 -106.16729888 588.01816321 -101.60983276 592.66464233 C-98.36985739 595.94258617 -95.10286208 599.11693544 -91.60983276 602.12557983 C-86.67521145 606.37590795 -82.16729888 611.01816321 -77.60983276 615.66464233 C-74.36985739 618.94258617 -71.10286208 622.11693544 -67.60983276 625.12557983 C-62.67521145 629.37590795 -58.16729888 634.01816321 -53.60983276 638.66464233 C-50.36985739 641.94258617 -47.10286208 645.11693544 -43.60983276 648.12557983 C-38.67521145 652.37590795 -34.16729888 657.01816321 -29.60983276 661.66464233 C-26.3715058 664.94091844 -23.10667673 668.11260333 -19.61373901 671.11776733 C-14.62951696 675.40943204 -10.09630824 680.12048942 -5.52194214 684.84042358 C-4.85871948 685.51460327 -4.19549683 686.18878296 -3.51217651 686.88339233 C-2.9294397 687.48296753 -2.34670288 688.08254272 -1.74630737 688.70028687 C1.09256242 691.25854617 4.2804837 693.40437731 7.39016724 695.62557983 C7.39016724 588.70557983 7.39016724 481.78557983 7.39016724 371.62557983 C4.85922146 371.62557983 1.58560983 375.98112075 -0.29733276 377.75057983 Z M-626.60983276 424.62557983 C-626.60983276 496.23557983 -626.60983276 567.84557983 -626.60983276 641.62557983 C-622.39987758 638.11728385 -619.59353981 635.63528159 -616.35983276 631.50057983 C-613.22856534 627.58124175 -610.01168846 623.8126843 -606.60983276 620.12557983 C-603.31651577 616.5476552 -600.16331955 612.91018318 -597.10983276 609.12557983 C-594.05634598 605.34097649 -590.90314975 601.70350446 -587.60983276 598.12557983 C-583.49604368 593.65572863 -579.6389598 589.0351309 -575.82467651 584.30917358 C-572.9450239 580.82007068 -569.90289401 577.49561063 -566.85592651 574.15292358 C-564.54795679 571.55595591 -562.35427414 568.89153971 -560.17233276 566.18807983 C-557.09646688 562.38470481 -553.9223011 558.72475332 -550.60983276 555.12557983 C-544.2691655 548.23183256 -538.45484815 540.93840177 -532.60983276 533.62557983 C-536.6831432 527.84677762 -541.24455976 522.67314774 -546.03561401 517.48104858 C-548.48822435 514.76047475 -550.81160198 511.97701307 -553.10983276 509.12557983 C-556.16331955 505.34097649 -559.31651577 501.70350446 -562.60983276 498.12557983 C-566.70334368 493.67830872 -570.53425775 489.0784052 -574.32858276 484.37557983 C-576.67702245 481.54458405 -579.11893179 478.83174386 -581.60983276 476.12557983 C-585.72362185 471.65572863 -589.58070573 467.0351309 -593.39498901 462.30917358 C-595.56616103 459.67849426 -597.81224633 457.14615559 -600.10983276 454.62557983 C-603.20538473 451.22959302 -606.16134483 447.76386453 -609.04733276 444.18807983 C-614.56852131 437.36664653 -620.40294583 430.83246677 -626.60983276 424.62557983 Z " fill="#A276D9" transform="translate(866.6098327636719,66.37442016601563)"/>
<path d="M0 0 C5.36895227 0.43730822 9.05581009 3.44770555 13.34765625 6.421875 C14.17543076 6.98535141 15.00320526 7.54882782 15.85606384 8.12937927 C17.6528925 9.35343105 19.44728046 10.58107154 21.23950195 11.81185913 C26.07636537 15.13262752 30.93175959 18.42612082 35.78515625 21.72265625 C37.29270981 22.74804253 37.29270981 22.74804253 38.83071899 23.79414368 C49.48465331 31.03054508 60.23500885 38.11781382 71 45.1875 C74.69814001 47.61814989 78.39595334 50.04929655 82.09375 52.48046875 C82.96639999 53.05403107 83.83904999 53.62759338 84.73814392 54.21853638 C92.71165657 59.46184221 100.65048211 64.75546356 108.58203125 70.06201172 C115.33863207 74.57569331 122.11599267 79.05662537 128.90625 83.51953125 C148.39884978 96.33289332 167.83563614 109.21711466 187.15170288 122.29537964 C200.19050252 131.12071435 213.29195168 139.84456396 226.44906616 148.49252319 C229.2734662 150.34933843 232.09658053 152.20809032 234.91918945 154.06762695 C235.81601944 154.65845566 236.71284943 155.24928436 237.63685608 155.85801697 C239.38359157 157.00888366 241.13028653 158.15981187 242.87693787 159.31080627 C246.55106656 161.731308 250.22628384 164.14998321 253.90917969 166.55712891 C270.01200158 177.08949464 282.75051869 185.9289347 287.57183786 205.63403682 C288.38346541 210.1189754 288.27550418 214.61698348 288.25726891 219.16182995 C288.26077498 220.27136234 288.26428105 221.38089473 288.26789337 222.52404931 C288.27721404 226.25039159 288.27228223 229.97657782 288.26742554 233.70292664 C288.27116146 236.39819073 288.27568297 239.09344319 288.28115618 241.78870326 C288.29145502 247.65321245 288.29430018 253.51768863 288.29224396 259.38220596 C288.28919367 268.10319921 288.29751858 276.82415592 288.30799321 285.54514206 C288.32733698 302.02770335 288.33296158 318.5102522 288.33410732 334.9928235 C288.33502637 347.72183437 288.33914284 360.45084035 288.34550858 373.17984962 C288.34730366 376.8437485 288.34908329 380.50764739 288.35085833 384.17154628 C288.35152148 385.53782937 288.35152148 385.53782937 288.35219802 386.93171415 C288.36450683 412.55331794 288.3723991 438.17492003 288.37151146 463.79652691 C288.37146472 465.24557887 288.37146472 465.24557887 288.37141704 466.72390461 C288.37125083 471.62017772 288.37105275 476.51645082 288.37084763 481.41272392 C288.37080774 482.38514218 288.37076785 483.35756044 288.37072675 484.35944591 C288.37064587 486.32591297 288.37056228 488.29238002 288.37047596 490.25884707 C288.36925051 520.85251536 288.38426246 551.44613932 288.41162109 582.03979492 C288.44234554 616.41142131 288.45955337 650.78301858 288.45769465 685.15465957 C288.45754539 688.82013023 288.45744798 692.48560089 288.45738602 696.15107155 C288.45736271 697.05360346 288.4573394 697.95613537 288.45731538 698.88601674 C288.45725385 713.4070198 288.47002294 727.92798436 288.48725055 742.44897598 C288.50420841 757.04454499 288.50617966 771.64005771 288.4930319 786.23563113 C288.48564374 794.9046284 288.48929667 803.57345457 288.50891658 812.24243369 C288.52092253 818.0372542 288.51831872 823.83195088 288.50397559 829.62676572 C288.49621765 832.9258106 288.49686659 836.22445959 288.51089029 839.52349337 C288.58294544 857.67761361 288.34259387 874.41005903 274.93383789 888.27539062 C271.040597 892.12893553 266.80227027 895.06048614 262.203125 898.0078125 C261.35397522 898.56230072 260.50482544 899.11678894 259.62994385 899.68807983 C257.7988471 900.88280294 255.96533087 902.07382452 254.12963867 903.26147461 C249.15295915 906.48207611 244.19482254 909.73103911 239.234375 912.9765625 C238.2129541 913.6438739 237.1915332 914.3111853 236.13916016 914.99871826 C225.8545125 921.72724871 215.67268248 928.60387577 205.5 935.5 C190.15733684 945.89075561 174.72892972 956.14164389 159.23974609 966.3125 C145.59247662 975.27704863 132.02102213 984.34624583 118.5 993.5 C103.16923087 1003.87895586 87.75668744 1014.12378392 72.28103638 1024.28530884 C51.9656652 1037.62935828 31.81704691 1051.21723728 11.6971283 1064.85368347 C7.03109613 1068.00533076 7.03109613 1068.00533076 4.8125 1067.625 C4.214375 1067.41875 3.61625 1067.2125 3 1067 C3.39832031 1066.38253906 3.79664063 1065.76507812 4.20703125 1065.12890625 C10.36517591 1055.28486478 13.12287996 1046.44358291 13.1276505 1034.77323139 C13.12930128 1034.06359876 13.13095206 1033.35396614 13.13265286 1032.62282949 C13.13697366 1030.24014499 13.13417785 1027.85752242 13.13142776 1025.47483635 C13.13307759 1023.74387584 13.13516396 1022.01291571 13.13764787 1020.2819562 C13.1432218 1015.50376635 13.14254077 1010.72559441 13.14087028 1005.94740235 C13.14014023 1000.75715868 13.14515964 995.5669201 13.1494453 990.37667859 C13.15703267 980.07280218 13.15921873 969.76893096 13.15977435 959.46505206 C13.16068726 947.12713366 13.16735259 934.78922007 13.17412117 922.45130374 C13.18980915 893.3375923 13.19587042 864.22388256 13.2005282 835.11016788 C13.20291116 820.29908684 13.20661458 805.48800626 13.2105653 790.67692557 C13.22322978 743.17188006 13.23401381 695.66683457 13.23740576 648.1617874 C13.237568 645.89119806 13.23773356 643.62060871 13.23790014 641.35001937 C13.23823394 636.79629189 13.23856442 632.24256441 13.2388947 627.68883693 C13.2392816 622.35749137 13.23967121 617.02614581 13.24006577 611.69480025 C13.24017818 610.1689241 13.2402896 608.64304795 13.24040002 607.1171718 C13.24394972 558.10770946 13.25902921 509.09826179 13.28233776 460.08880504 C13.29907909 424.87359142 13.31455429 389.65838057 13.31907272 354.44316292 C13.31916621 353.71896727 13.3192597 352.99477161 13.31935601 352.24863064 C13.32137505 336.3507935 13.3225311 320.4529564 13.3228846 304.55511913 C13.32302077 298.86654674 13.32322977 293.17797435 13.32347785 287.48940197 C13.32353941 286.07421874 13.32359773 284.65903552 13.3236528 283.24385229 C13.32457263 260.69314679 13.33454103 238.14245659 13.34911029 215.59175612 C13.36413277 192.24614434 13.36831548 168.90055639 13.36001733 145.55493884 C13.35555436 132.0933908 13.35944834 118.63190548 13.37525584 105.17036566 C13.38498531 96.182173 13.38384704 87.19402443 13.37381961 78.2058322 C13.36841294 73.082099 13.36776454 67.95848649 13.38032833 62.83476315 C13.39166757 58.17158112 13.38914246 53.50861798 13.37566125 48.84544353 C13.37322996 47.17088354 13.3758017 45.49630668 13.38405773 43.82176527 C13.46145353 27.01613934 10.30510391 13.54385086 0 0 Z " fill="#CA95F7" transform="translate(861,65)"/>
<path d="M0 0 C8.74038473 7.37720546 16.09282734 16.4353355 23.2265625 25.3203125 C25.5468495 28.13253315 27.96821134 30.81797263 30.4375 33.5 C34.53101091 37.94727112 38.36192499 42.54717463 42.15625 47.25 C44.50468968 50.08099578 46.94659902 52.79383598 49.4375 55.5 C53.55128909 59.9698512 57.40837297 64.59044893 61.22265625 69.31640625 C63.39382827 71.94708557 65.63991357 74.47942424 67.9375 77 C71.03305196 80.39598682 73.98901207 83.86171531 76.875 87.4375 C80.73575137 92.211403 84.81187075 96.73388428 88.96875 101.25 C92.16268604 104.80780217 95.14493216 108.51665477 98.14453125 112.23828125 C101.28576255 116.02167227 104.61733346 119.6129899 107.98046875 123.19921875 C109.19669922 124.58560547 109.19669922 124.58560547 110.4375 126 C110.94143583 126.56146335 111.44537166 127.1229267 111.96457827 127.70140409 C116.26614716 132.87236211 117.30109241 136.51994577 117.1590271 143.16223145 C117.16415365 144.05111415 117.1692802 144.93999686 117.1745621 145.85581541 C117.18439885 148.81673858 117.1515242 151.77559484 117.11865234 154.73632812 C117.11695892 156.86555941 117.11791181 158.99479419 117.12130737 161.12402344 C117.12302673 166.89226911 117.08778537 172.65976404 117.04586363 178.42783546 C117.00832028 184.4602743 117.0048284 190.49273092 116.99771118 196.52526855 C116.97907303 207.94327572 116.92984956 219.36093763 116.86961424 230.77879286 C116.80251737 243.77989139 116.76955204 256.78100653 116.73944163 269.78223515 C116.67674993 296.52168141 116.57123455 323.26082135 116.4375 350 C118.17633804 348.1188762 119.9129702 346.23579207 121.6484375 344.3515625 C122.1343335 343.8263501 122.62022949 343.3011377 123.12084961 342.76000977 C127.01309112 338.52902924 130.6523511 334.12639489 134.2578125 329.6484375 C136.41507399 327.02724881 138.65061 324.50845719 140.9375 322 C144.03305196 318.60401318 146.98901207 315.13828469 149.875 311.5625 C153.73458603 306.79003797 157.80949991 302.26890891 161.96484375 297.75390625 C165.18459519 294.16792716 168.19655176 290.43298508 171.22265625 286.68359375 C174.10230887 283.19449084 177.14443876 279.87003079 180.19140625 276.52734375 C182.49937598 273.93037607 184.69305863 271.26595987 186.875 268.5625 C189.96898714 264.73544273 193.1658055 261.05719127 196.5 257.4375 C201.06514598 252.47942283 205.30484167 247.32166338 209.4375 242 C216.93073144 249.2515143 223.63564619 257.18243071 230.1875 265.28125 C233.08225711 268.77908151 236.13339539 272.11785404 239.19140625 275.47265625 C241.49937598 278.06962393 243.69305863 280.73404013 245.875 283.4375 C248.95086588 287.24087503 252.12503166 290.90082652 255.4375 294.5 C259.55128909 298.9698512 263.40837297 303.59044893 267.22265625 308.31640625 C269.39382827 310.94708557 271.63991357 313.47942424 273.9375 316 C277.85641252 320.29991791 281.52920869 324.75919547 285.1875 329.28125 C288.08225711 332.77908151 291.13339539 336.11785404 294.19140625 339.47265625 C296.49937598 342.06962393 298.69305863 344.73404013 300.875 347.4375 C303.95086588 351.24087503 307.12503166 354.90082652 310.4375 358.5 C314.55128909 362.9698512 318.40837297 367.59044893 322.22265625 372.31640625 C324.39382827 374.94708557 326.63991357 377.47942424 328.9375 380 C332.85641252 384.29991791 336.52920869 388.75919547 340.1875 393.28125 C343.08225711 396.77908151 346.13339539 400.11785404 349.19140625 403.47265625 C351.49937598 406.06962393 353.69305863 408.73404013 355.875 411.4375 C360.5105344 417.16517602 365.4549211 422.57488942 370.4375 428 C371.81910715 429.51483356 373.19491481 431.03499557 374.5625 432.5625 C375.12195313 433.18253906 375.68140625 433.80257813 376.2578125 434.44140625 C377.4375 436 377.4375 436 377.4375 438 C376.21484375 439.19921875 376.21484375 439.19921875 374.375 440.6875 C369.31381753 444.97281493 364.70843812 449.67327362 360.07006836 454.4050293 C356.96433283 457.55254051 353.81989991 460.58231033 350.46875 463.46875 C346.2451119 467.11066491 342.34091837 471.02034299 338.4375 475 C333.91774688 479.60802955 329.32817773 484.01017797 324.4375 488.22265625 C320.94778722 491.32386585 317.7053338 494.66834132 314.4375 498 C309.91774688 502.60802955 305.32817773 507.01017797 300.4375 511.22265625 C296.94778722 514.32386585 293.7053338 517.66834132 290.4375 521 C285.91774688 525.60802955 281.32817773 530.01017797 276.4375 534.22265625 C272.94778722 537.32386585 269.7053338 540.66834132 266.4375 544 C261.91774688 548.60802955 257.32817773 553.01017797 252.4375 557.22265625 C248.94778722 560.32386585 245.7053338 563.66834132 242.4375 567 C237.91774688 571.60802955 233.32817773 576.01017797 228.4375 580.22265625 C224.94778722 583.32386585 221.7053338 586.66834132 218.4375 590 C214.54168659 593.97190351 210.6478046 597.87275091 206.42578125 601.5 C202.95980026 604.48316198 199.77542837 607.65769182 196.60473633 610.95019531 C184.78823008 623.18492049 173.11471512 631.89179393 155.4375 632.5 C137.66200629 631.90748354 125.61616161 622.29466028 112.2734375 611.7734375 C107.62824995 608.12431596 102.89469106 604.60906944 98.125 601.125 C91.33563077 596.15979707 84.61601226 591.1133414 77.9375 586 C71.31811726 580.9333719 64.66246793 575.92564541 57.9375 571 C50.31009983 565.4133758 42.78105435 559.70723662 35.2734375 553.9609375 C29.53847273 549.57935674 23.75990437 545.26457042 17.9375 541 C10.31009983 535.4133758 2.78105435 529.70723662 -4.7265625 523.9609375 C-10.46153695 519.57934935 -16.24039764 515.26499306 -22.0625 511 C-29.00154169 505.91058776 -35.89469733 500.7642381 -42.75 495.5625 C-43.61109375 494.91216797 -44.4721875 494.26183594 -45.359375 493.59179688 C-58.93687421 483.25462416 -70.11789796 473.47556075 -73.5625 456 C-73.73497363 453.47073309 -73.81698727 450.9340697 -73.81976891 448.39893055 C-73.82502802 447.31205576 -73.82502802 447.31205576 -73.83039337 446.20322391 C-73.83966333 443.78634978 -73.83479553 441.36971895 -73.82992554 438.95283508 C-73.83366402 437.1980287 -73.83826634 435.44322399 -73.84365618 433.68842191 C-73.85587714 428.87450508 -73.85562677 424.06065781 -73.85326743 419.24672902 C-73.85285903 414.05160588 -73.86390062 408.85650497 -73.87338257 403.66139221 C-73.88998879 393.48596011 -73.89549195 383.31055118 -73.89660732 373.13510666 C-73.89755801 364.86261707 -73.90166936 356.59013511 -73.90800858 348.31764793 C-73.92562026 324.85697576 -73.93484761 301.39632188 -73.93334763 277.93564305 C-73.93326772 276.67112157 -73.9331878 275.40660008 -73.93310547 274.10375977 C-73.93302371 272.83769192 -73.93294195 271.57162408 -73.93285771 270.26719054 C-73.93204492 249.75169496 -73.95118107 229.23627281 -73.9793822 208.72079847 C-74.00811901 187.64913596 -74.02192204 166.57750925 -74.02019465 145.50582665 C-74.01953101 133.67833015 -74.02501208 121.85091062 -74.04655075 110.02343178 C-74.06477303 99.9526141 -74.06910125 89.8819083 -74.0555319 79.81108127 C-74.04900749 74.67528605 -74.04886613 69.5397054 -74.0662384 64.40393066 C-74.08199735 59.69657938 -74.07907664 54.98961229 -74.06167014 50.28227022 C-74.05860646 48.58511393 -74.06220867 46.88792876 -74.07339029 45.19080655 C-74.17688535 28.35925907 -70.90665024 15.42722002 -59 3.125 C-54.82790653 -1.02478281 -50.6807377 -3.82479003 -45.0625 -5.625 C-44.3303125 -5.86476563 -43.598125 -6.10453125 -42.84375 -6.3515625 C-28.10862888 -10.53997022 -12.57848116 -9.00709098 0 0 Z " fill="#7051A8" transform="translate(124.5625,357)"/>
<path d="M0 0 C2.10742898 1.44174903 3.8393863 2.71923139 5.4609375 4.68359375 C5.4609375 5.34359375 5.4609375 6.00359375 5.4609375 6.68359375 C7.08239303 9.01102008 8.80721704 11.24596914 10.5390625 13.4921875 C16.12413356 22.76658396 17.05558319 31.5253933 17.04962158 42.19281006 C17.06284791 43.63530926 17.07775678 45.07779383 17.0941875 46.5202601 C17.13393648 50.45702275 17.14908002 54.39354166 17.15974474 58.33047628 C17.17545525 62.58701847 17.21375919 66.84337197 17.24859619 71.09979248 C17.32735235 81.36150945 17.3678683 91.62324044 17.40350735 101.88518369 C17.42107844 106.72575539 17.44253439 111.56630986 17.46346283 116.40686798 C17.53146253 132.5088271 17.58944101 148.61077578 17.61845779 164.71285629 C17.62609638 168.88376632 17.63377789 173.05467625 17.64160156 177.22558594 C17.64353652 178.26214593 17.64547148 179.29870593 17.64746508 180.36667684 C17.68067581 197.16289154 17.78205865 213.95796775 17.91192427 230.75368521 C18.04434889 248.02184807 18.11626429 265.28943256 18.12903476 282.55810571 C18.13767984 292.2445531 18.17244113 301.92933697 18.27487946 311.61528778 C18.36190517 319.86246049 18.39381805 328.10756536 18.35501233 336.35514519 C18.336886 340.55910026 18.34405538 344.75879428 18.42205811 348.9621582 C18.88598581 375.41531822 18.88598581 375.41531822 13.03658295 382.82300568 C9.84303013 386.11646363 6.37244849 388.71738639 2.53696966 391.21359301 C-1.07109772 393.76840012 -4.00974856 396.98378323 -7.0390625 400.18359375 C-10.40184315 403.62627923 -13.79765487 406.94702762 -17.4453125 410.08984375 C-21.68730734 413.75541441 -25.61507008 417.68296085 -29.5390625 421.68359375 C-34.05881562 426.2916233 -38.64838477 430.69377172 -43.5390625 434.90625 C-47.02877528 438.0074596 -50.2712287 441.35193507 -53.5390625 444.68359375 C-58.05881562 449.2916233 -62.64838477 453.69377172 -67.5390625 457.90625 C-71.02877528 461.0074596 -74.2712287 464.35193507 -77.5390625 467.68359375 C-82.05881562 472.2916233 -86.64838477 476.69377172 -91.5390625 480.90625 C-95.02877528 484.0074596 -98.2712287 487.35193507 -101.5390625 490.68359375 C-105.42189957 494.64226748 -109.30246912 498.53417713 -113.5078125 502.15234375 C-117.91109432 505.94501423 -121.96893174 510.03932581 -126.0390625 514.18359375 C-130.79456652 519.02571897 -135.60339891 523.6932402 -140.74902344 528.12060547 C-143.07238087 530.14926535 -145.25096562 532.29835653 -147.4140625 534.49609375 C-148.15398437 535.24503906 -148.89390625 535.99398437 -149.65625 536.765625 C-150.27757812 537.39855469 -150.89890625 538.03148437 -151.5390625 538.68359375 C-152.1990625 539.34359375 -152.8590625 540.00359375 -153.5390625 540.68359375 C-161.72917465 533.13584334 -169.82932774 525.53233174 -177.61767578 517.56787109 C-180.45548056 514.68517254 -183.35122391 511.9439695 -186.41796875 509.3046875 C-191.61775664 504.81206579 -196.37164073 499.89960243 -201.18359375 495 C-205.17444952 490.96536885 -209.25558259 487.14387637 -213.55664062 483.44335938 C-217.75146857 479.71967466 -221.61323177 475.64703836 -225.5390625 471.64453125 C-228.75857116 468.38729397 -232.00231151 465.23188569 -235.4765625 462.24609375 C-240.89072153 457.5827263 -245.82169962 452.44732801 -250.828125 447.35546875 C-254.94424137 443.19691819 -259.13745128 439.23876557 -263.57421875 435.42578125 C-267.76477584 431.71009842 -271.61921662 427.64093662 -275.5390625 423.64453125 C-278.76880448 420.37694073 -282.02417875 417.21207042 -285.5078125 414.21484375 C-290.68221227 409.7579877 -295.40156819 404.86912985 -300.18359375 400 C-304.17444952 395.96536885 -308.25558259 392.14387637 -312.55664062 388.44335938 C-316.75146857 384.71967466 -320.61323177 380.64703836 -324.5390625 376.64453125 C-327.77136282 373.37435241 -331.02964355 370.20711393 -334.515625 367.20703125 C-338.87194706 363.45569475 -342.88886462 359.40931129 -346.9140625 355.30859375 C-348.31538997 353.88183384 -349.718926 352.45723868 -351.125 351.03515625 C-351.7339209 350.41463379 -352.3428418 349.79411133 -352.97021484 349.15478516 C-354.49029711 347.58897413 -354.49029711 347.58897413 -356.5390625 346.68359375 C-354.97674229 343.00403084 -352.70322168 340.51843582 -349.9765625 337.62109375 C-346.52443679 333.90880784 -343.21981066 330.13543237 -340.0390625 326.18359375 C-336.98557571 322.39899041 -333.83237949 318.76151838 -330.5390625 315.18359375 C-326.42527341 310.71374255 -322.56818953 306.09314482 -318.75390625 301.3671875 C-315.87425363 297.87808459 -312.83212374 294.55362454 -309.78515625 291.2109375 C-307.47718652 288.61396982 -305.28350387 285.94955362 -303.1015625 283.24609375 C-299.24197647 278.47363172 -295.16706259 273.95250266 -291.01171875 269.4375 C-287.79196731 265.85152091 -284.78001074 262.11657883 -281.75390625 258.3671875 C-278.87425363 254.87808459 -275.83212374 251.55362454 -272.78515625 248.2109375 C-270.47718652 245.61396982 -268.28350387 242.94955362 -266.1015625 240.24609375 C-262.24197647 235.47363172 -258.16706259 230.95250266 -254.01171875 226.4375 C-250.79196731 222.85152091 -247.78001074 219.11657883 -244.75390625 215.3671875 C-241.87425363 211.87808459 -238.83212374 208.55362454 -235.78515625 205.2109375 C-233.47718652 202.61396982 -231.28350387 199.94955362 -229.1015625 197.24609375 C-225.24081113 192.47219075 -221.16469175 187.94970947 -217.0078125 183.43359375 C-214.59528146 180.74621741 -212.3065004 177.99393931 -210.0390625 175.18359375 C-206.98557571 171.39899041 -203.83237949 167.76151838 -200.5390625 164.18359375 C-196.42527341 159.71374255 -192.56818953 155.09314482 -188.75390625 150.3671875 C-185.87425363 146.87808459 -182.83212374 143.55362454 -179.78515625 140.2109375 C-177.47718652 137.61396982 -175.28350387 134.94955362 -173.1015625 132.24609375 C-169.24197647 127.47363172 -165.16706259 122.95250266 -161.01171875 118.4375 C-157.79196731 114.85152091 -154.78001074 111.11657883 -151.75390625 107.3671875 C-148.87425363 103.87808459 -145.83212374 100.55362454 -142.78515625 97.2109375 C-140.47718652 94.61396982 -138.28350387 91.94955362 -136.1015625 89.24609375 C-132.24081113 84.47219075 -128.16469175 79.94970947 -124.0078125 75.43359375 C-121.59528146 72.74621741 -119.3065004 69.99393931 -117.0390625 67.18359375 C-113.98557571 63.39899041 -110.83237949 59.76151838 -107.5390625 56.18359375 C-103.42527341 51.71374255 -99.56818953 47.09314482 -95.75390625 42.3671875 C-92.87425363 38.87808459 -89.83212374 35.55362454 -86.78515625 32.2109375 C-84.47718652 29.61396982 -82.28350387 26.94955362 -80.1015625 24.24609375 C-76.15470189 19.36608746 -72.0025932 14.72107712 -67.73828125 10.1171875 C-66.06560447 8.26625031 -64.57344823 6.43684617 -63.1015625 4.43359375 C-45.70527983 -14.23558765 -20.2154138 -12.16718606 0 0 Z " fill="#6F50A6" transform="translate(857.5390625,60.31640625)"/>
<path d="M0 0 C8.74038473 7.37720546 16.09282734 16.4353355 23.2265625 25.3203125 C25.5468495 28.13253315 27.96821134 30.81797263 30.4375 33.5 C34.53101091 37.94727112 38.36192499 42.54717463 42.15625 47.25 C44.50468968 50.08099578 46.94659902 52.79383598 49.4375 55.5 C53.55128909 59.9698512 57.40837297 64.59044893 61.22265625 69.31640625 C63.39382827 71.94708557 65.63991357 74.47942424 67.9375 77 C71.03305196 80.39598682 73.98901207 83.86171531 76.875 87.4375 C80.73575137 92.211403 84.81187075 96.73388428 88.96875 101.25 C92.16268604 104.80780217 95.14493216 108.51665477 98.14453125 112.23828125 C101.28576255 116.02167227 104.61733346 119.6129899 107.98046875 123.19921875 C109.19669922 124.58560547 109.19669922 124.58560547 110.4375 126 C110.94057708 126.56107885 111.44365415 127.1221577 111.96197599 127.70023894 C116.25971828 132.87075176 117.31376316 136.55416144 117.23304749 143.19537354 C117.24593526 144.08804011 117.25882303 144.98070669 117.27210134 145.90042377 C117.30757877 148.87454911 117.30050486 151.84698442 117.29321289 154.82128906 C117.30953877 156.96062661 117.32833521 159.09994652 117.34941101 161.23924255 C117.39806626 167.03909904 117.40809051 172.83840545 117.40811086 178.63844395 C117.41084479 183.48664377 117.43045619 188.33472209 117.44940466 193.18288112 C117.49304344 204.62573702 117.5032802 216.06830524 117.49438477 227.51123047 C117.48594542 239.29965916 117.54044141 251.08664406 117.62492949 262.87474084 C117.6949459 273.00926461 117.72230087 283.14332085 117.71649545 293.27808356 C117.71366794 299.32515522 117.72755371 305.37101947 117.7839222 311.41785431 C117.83539002 317.10840642 117.83348513 322.79653329 117.79144478 328.48713875 C117.78491872 330.56878264 117.79696514 332.65058539 117.82950974 334.73198509 C118.08239757 352.06844837 118.08239757 352.06844837 112.63132328 358.4604423 C110.35780002 360.78409779 107.89844115 362.87823847 105.4375 365 C103.87902072 366.82263831 102.3517831 368.673061 100.875 370.5625 C97.84392433 374.32838189 94.71168423 377.94329756 91.4375 381.5 C87.32371091 385.9698512 83.46662703 390.59044893 79.65234375 395.31640625 C76.77269113 398.80550916 73.73056124 402.12996921 70.68359375 405.47265625 C68.37562402 408.06962393 66.18194137 410.73404013 64 413.4375 C60.13924863 418.211403 56.06312925 422.73388428 51.90625 427.25 C49.49371896 429.93737634 47.2049379 432.68965444 44.9375 435.5 C41.88401321 439.28460334 38.73081699 442.92207537 35.4375 446.5 C31.32692217 450.96636201 27.47315407 455.58383305 23.66015625 460.3046875 C20.73248036 463.85494473 17.66074143 467.25840366 14.55859375 470.65625 C12.61918497 472.79924312 10.74420701 474.98344638 8.875 477.1875 C1.45070282 485.61416224 -7.07313704 492.43104005 -18.5625 494 C-21.64719956 494.13739483 -24.72519882 494.13949437 -27.8125 494.125 C-28.62074219 494.12886719 -29.42898437 494.13273437 -30.26171875 494.13671875 C-46.31253512 494.11103744 -46.31253512 494.11103744 -52.125 488.9375 C-53.04796875 488.11765625 -53.9709375 487.2978125 -54.921875 486.453125 C-55.79328125 485.64359375 -56.6646875 484.8340625 -57.5625 484 C-58.31015625 483.35546875 -59.0578125 482.7109375 -59.828125 482.046875 C-68.27359058 474.37503985 -73.04207515 463.63185286 -73.81549966 452.28984624 C-73.81690851 451.00584406 -73.81831736 449.72184188 -73.81976891 448.39893055 C-73.82502802 447.31205576 -73.82502802 447.31205576 -73.83039337 446.20322391 C-73.83966333 443.78634978 -73.83479553 441.36971895 -73.82992554 438.95283508 C-73.83366402 437.1980287 -73.83826634 435.44322399 -73.84365618 433.68842191 C-73.85587714 428.87450508 -73.85562677 424.06065781 -73.85326743 419.24672902 C-73.85285903 414.05160588 -73.86390062 408.85650497 -73.87338257 403.66139221 C-73.88998879 393.48596011 -73.89549195 383.31055118 -73.89660732 373.13510666 C-73.89755801 364.86261707 -73.90166936 356.59013511 -73.90800858 348.31764793 C-73.92562026 324.85697576 -73.93484761 301.39632188 -73.93334763 277.93564305 C-73.93326772 276.67112157 -73.9331878 275.40660008 -73.93310547 274.10375977 C-73.93302371 272.83769192 -73.93294195 271.57162408 -73.93285771 270.26719054 C-73.93204492 249.75169496 -73.95118107 229.23627281 -73.9793822 208.72079847 C-74.00811901 187.64913596 -74.02192204 166.57750925 -74.02019465 145.50582665 C-74.01953101 133.67833015 -74.02501208 121.85091062 -74.04655075 110.02343178 C-74.06477303 99.9526141 -74.06910125 89.8819083 -74.0555319 79.81108127 C-74.04900749 74.67528605 -74.04886613 69.5397054 -74.0662384 64.40393066 C-74.08199735 59.69657938 -74.07907664 54.98961229 -74.06167014 50.28227022 C-74.05860646 48.58511393 -74.06220867 46.88792876 -74.07339029 45.19080655 C-74.17688535 28.35925907 -70.90665024 15.42722002 -59 3.125 C-54.82790653 -1.02478281 -50.6807377 -3.82479003 -45.0625 -5.625 C-44.3303125 -5.86476563 -43.598125 -6.10453125 -42.84375 -6.3515625 C-28.10862888 -10.53997022 -12.57848116 -9.00709098 0 0 Z " fill="#5D428D" transform="translate(124.5625,357)"/>
<path d="M0 0 C7.49323144 7.2515143 14.19814619 15.18243071 20.75 23.28125 C23.64475711 26.77908151 26.69589539 30.11785404 29.75390625 33.47265625 C32.06187598 36.06962393 34.25555863 38.73404013 36.4375 41.4375 C39.51336588 45.24087503 42.68753166 48.90082652 46 52.5 C50.11378909 56.9698512 53.97087297 61.59044893 57.78515625 66.31640625 C59.95632827 68.94708557 62.20241357 71.47942424 64.5 74 C68.41891252 78.29991791 72.09170869 82.75919547 75.75 87.28125 C78.64475711 90.77908151 81.69589539 94.11785404 84.75390625 97.47265625 C87.06187598 100.06962393 89.25555863 102.73404013 91.4375 105.4375 C94.51336588 109.24087503 97.68753166 112.90082652 101 116.5 C105.11378909 120.9698512 108.97087297 125.59044893 112.78515625 130.31640625 C114.95632827 132.94708557 117.20241357 135.47942424 119.5 138 C123.41891252 142.29991791 127.09170869 146.75919547 130.75 151.28125 C133.64475711 154.77908151 136.69589539 158.11785404 139.75390625 161.47265625 C142.06187598 164.06962393 144.25555863 166.73404013 146.4375 169.4375 C151.0730344 175.16517602 156.0174211 180.57488942 161 186 C162.38160715 187.51483356 163.75741481 189.03499557 165.125 190.5625 C165.68445313 191.18253906 166.24390625 191.80257812 166.8203125 192.44140625 C168 194 168 194 168 196 C167.01 196.33 166.02 196.66 165 197 C164.16094435 195.87926138 163.32892169 194.75325453 162.5 193.625 C162.0359375 192.99851562 161.571875 192.37203125 161.09375 191.7265625 C160 190 160 190 160 188 C159.1028125 187.6596875 159.1028125 187.6596875 158.1875 187.3125 C155.40167272 185.64100363 154.62462768 183.7943596 153 181 C151.35570171 179.31126121 149.68615782 177.64694485 148 176 C146.47193909 174.25018882 144.97837056 172.47424536 143.484375 170.6953125 C141.85426074 168.78259818 141.85426074 168.78259818 139.25 166.375 C137 164 137 164 135.9375 161.3125 C135.23196154 158.84061395 135.23196154 158.84061395 133 158 C130.22017379 156.6100869 130.12536659 154.81341647 129 152 C128.34 151.67 127.68 151.34 127 151 C124.22017379 149.6100869 124.12536659 147.81341647 123 145 C122.34 144.67 121.68 144.34 121 144 C118.22017379 142.6100869 118.12536659 140.81341647 117 138 C116.34 137.67 115.68 137.34 115 137 C112.22017379 135.6100869 112.12536659 133.81341647 111 131 C109.67532254 130.3162955 108.34136367 129.65035814 107 129 C105.97388051 127.34928604 104.97691857 125.68029994 104 124 C102.35570171 122.31126121 100.68615782 120.64694485 99 119 C97.47193909 117.25018882 95.97837056 115.47424536 94.484375 113.6953125 C92.85426074 111.78259818 92.85426074 111.78259818 90.25 109.375 C88 107 88 107 86.9375 104.3125 C86.23196154 101.84061395 86.23196154 101.84061395 84 101 C81.22017379 99.6100869 81.12536659 97.81341647 80 95 C79.34 94.67 78.68 94.34 78 94 C75.22017379 92.6100869 75.12536659 90.81341647 74 88 C73.34 87.67 72.68 87.34 72 87 C69.22017379 85.6100869 69.12536659 83.81341647 68 81 C66.67532254 80.3162955 65.34136367 79.65035814 64 79 C62.97388051 77.34928604 61.97691857 75.68029994 61 74 C59.35570171 72.31126121 57.68615782 70.64694485 56 69 C54.47193909 67.25018882 52.97837056 65.47424536 51.484375 63.6953125 C49.85426074 61.78259818 49.85426074 61.78259818 47.25 59.375 C45 57 45 57 43.9375 54.3125 C43.23196154 51.84061395 43.23196154 51.84061395 41 51 C38.22017379 49.6100869 38.12536659 47.81341647 37 45 C36.01 44.505 36.01 44.505 35 44 C32.22017379 42.6100869 32.12536659 40.81341647 31 38 C30.01 37.505 30.01 37.505 29 37 C26.22017379 35.6100869 26.12536659 33.81341647 25 31 C24.34 30.67 23.68 30.34 23 30 C20.22017379 28.6100869 20.12536659 26.81341647 19 24 C17.67532254 23.3162955 16.34136367 22.65035814 15 22 C13.97388051 20.34928604 12.97691857 18.68029994 12 17 C10.3563186 15.31066078 8.6857124 13.64740076 7 12 C4.63296742 9.36230881 2.31242545 6.68561227 0 4 C-0.99 4.99 -1.98 5.98 -3 7 C-3.66 6.67 -4.32 6.34 -5 6 C-3.35 4.02 -1.7 2.04 0 0 Z " fill="#573F81" transform="translate(334,599)"/>
<path d="M0 0 C2.24815894 1.68051748 4.34049481 3.4299516 6.4140625 5.3203125 C7.03539062 5.88492187 7.65671875 6.44953125 8.296875 7.03125 C9.7311681 8.3988318 11.0826689 9.85236571 12.4140625 11.3203125 C12.4140625 11.9803125 12.4140625 12.6403125 12.4140625 13.3203125 C8.97268623 12.76264812 7.75100652 11.86684178 5.7265625 9.0703125 C2.77701737 5.40595413 -0.369248 3.47141789 -4.53515625 1.36328125 C-6.5859375 0.3203125 -6.5859375 0.3203125 -9.5859375 -1.6796875 C-25.9804345 -5.66753812 -37.66256543 -3.01451334 -52.5859375 4.3203125 C-52.5859375 3.0003125 -52.5859375 1.6803125 -52.5859375 0.3203125 C-38.67357651 -10.89933346 -14.11434533 -9.16792824 0 0 Z " fill="#49346E" transform="translate(122.5859375,355.6796875)"/>
<path d="M0 0 C0 0.33 0 0.66 0 1 C-1.216875 1.20625 -2.43375 1.4125 -3.6875 1.625 C-10.21188887 3.04243912 -16.04013248 6.07072972 -22 9 C-22 7.68 -22 6.36 -22 5 C-15.51456575 -0.23018891 -7.95030796 -1.59006159 0 0 Z " fill="#533A7C" transform="translate(92,351)"/>
<path d="M0 0 C5.1404874 3.82241371 8.88635136 8.36326199 12.8515625 13.37890625 C14.93075659 16.01495981 14.93075659 16.01495981 17.2734375 18.21484375 C19 20 19 20 19 22 C15.88800719 20.64087445 14.02042985 19.18124708 11.8359375 16.59375 C11.27132812 15.93246094 10.70671875 15.27117187 10.125 14.58984375 C9.5475 13.90019531 8.97 13.21054687 8.375 12.5 C7.21665229 11.13498673 6.05781933 9.77038505 4.8984375 8.40625 C4.13539307 7.49842773 4.13539307 7.49842773 3.35693359 6.57226562 C2.28932819 5.33524173 1.15542404 4.15542404 0 3 C0 2.01 0 1.02 0 0 Z " fill="#49346D" transform="translate(216,463)"/>
<path d="M0 0 C5.1404874 3.82241371 8.88635136 8.36326199 12.8515625 13.37890625 C14.93075659 16.01495981 14.93075659 16.01495981 17.2734375 18.21484375 C19 20 19 20 19 22 C15.88800719 20.64087445 14.02042985 19.18124708 11.8359375 16.59375 C11.27132812 15.93246094 10.70671875 15.27117187 10.125 14.58984375 C9.5475 13.90019531 8.97 13.21054687 8.375 12.5 C7.21665229 11.13498673 6.05781933 9.77038505 4.8984375 8.40625 C4.13539307 7.49842773 4.13539307 7.49842773 3.35693359 6.57226562 C2.28932819 5.33524173 1.15542404 4.15542404 0 3 C0 2.01 0 1.02 0 0 Z " fill="#49346D" transform="translate(185,427)"/>
<path d="M0 0 C5.1404874 3.82241371 8.88635136 8.36326199 12.8515625 13.37890625 C14.93075659 16.01495981 14.93075659 16.01495981 17.2734375 18.21484375 C19 20 19 20 19 22 C15.88800719 20.64087445 14.02042985 19.18124708 11.8359375 16.59375 C11.27132812 15.93246094 10.70671875 15.27117187 10.125 14.58984375 C9.5475 13.90019531 8.97 13.21054687 8.375 12.5 C7.21665229 11.13498673 6.05781933 9.77038505 4.8984375 8.40625 C4.13539307 7.49842773 4.13539307 7.49842773 3.35693359 6.57226562 C2.28932819 5.33524173 1.15542404 4.15542404 0 3 C0 2.01 0 1.02 0 0 Z " fill="#49346D" transform="translate(160,398)"/>
<path d="M0 0 C4.89445607 3.82006327 9.27437957 8.00678682 13 13 C13 13.66 13 14.32 13 15 C9.19029195 13.45339834 6.97630811 11.09618599 4.25 8.0625 C3.45078125 7.18722656 2.6515625 6.31195313 1.828125 5.41015625 C0 3 0 3 0 0 Z " fill="#49346D" transform="translate(135,369)"/>
<path d="M0 0 C0.66 0.33 1.32 0.66 2 1 C-2.29 5.29 -6.58 9.58 -11 14 C-11.66 13.67 -12.32 13.34 -13 13 C-11.58791833 11.39179588 -10.17013964 9.78859292 -8.75 8.1875 C-7.96109375 7.29417969 -7.1721875 6.40085937 -6.359375 5.48046875 C-4.34120555 3.35871775 -2.40083295 1.65745577 0 0 Z " fill="#584086" transform="translate(801,59)"/>
<path d="M0 0 C0.66 0.33 1.32 0.66 2 1 C-3.14285714 6.57142857 -3.14285714 6.57142857 -7 7 C-4.66666667 4.66666667 -2.33333333 2.33333333 0 0 Z " fill="#905EBA" transform="translate(82,347)"/>
<path d="M0 0 C2.04119788 1.61594832 4.04072937 3.2856382 6 5 C6 5.66 6 6.32 6 7 C3.53199953 5.84826645 1.95216435 4.95216435 0 3 C0 2.01 0 1.02 0 0 Z " fill="#49346D" transform="translate(210,456)"/>
<path d="M0 0 C2.04119788 1.61594832 4.04072937 3.2856382 6 5 C6 5.66 6 6.32 6 7 C3.53199953 5.84826645 1.95216435 4.95216435 0 3 C0 2.01 0 1.02 0 0 Z " fill="#4A356E" transform="translate(204,449)"/>
<path d="M0 0 C2.04119788 1.61594832 4.04072937 3.2856382 6 5 C6 5.66 6 6.32 6 7 C3.53199953 5.84826645 1.95216435 4.95216435 0 3 C0 2.01 0 1.02 0 0 Z " fill="#49346E" transform="translate(179,420)"/>
<path d="M0 0 C2.04119788 1.61594832 4.04072937 3.2856382 6 5 C6 5.66 6 6.32 6 7 C3.53199953 5.84826645 1.95216435 4.95216435 0 3 C0 2.01 0 1.02 0 0 Z " fill="#49346E" transform="translate(154,391)"/>
<path d="M0 0 C2.04119788 1.61594832 4.04072937 3.2856382 6 5 C6 5.66 6 6.32 6 7 C3.53199953 5.84826645 1.95216435 4.95216435 0 3 C0 2.01 0 1.02 0 0 Z " fill="#4A356E" transform="translate(148,384)"/>
</svg>
